%TF.GenerationSoftware,KiCad,Pcbnew,8.0.7*%
%TF.CreationDate,2025-01-23T01:15:36+01:00*%
%TF.ProjectId,pyrosim,7079726f-7369-46d2-9e6b-696361645f70,rev?*%
%TF.SameCoordinates,Original*%
%TF.FileFunction,Legend,Bot*%
%TF.FilePolarity,Positive*%
%FSLAX46Y46*%
G04 Gerber Fmt 4.6, Leading zero omitted, Abs format (unit mm)*
G04 Created by KiCad (PCBNEW 8.0.7) date 2025-01-23 01:15:36*
%MOMM*%
%LPD*%
G01*
G04 APERTURE LIST*
%ADD10C,0.150000*%
%ADD11R,1.700000X1.700000*%
%ADD12O,1.700000X1.700000*%
G04 APERTURE END LIST*
D10*
X131363220Y-93869819D02*
X131363220Y-92869819D01*
X131363220Y-92869819D02*
X130982268Y-92869819D01*
X130982268Y-92869819D02*
X130887030Y-92917438D01*
X130887030Y-92917438D02*
X130839411Y-92965057D01*
X130839411Y-92965057D02*
X130791792Y-93060295D01*
X130791792Y-93060295D02*
X130791792Y-93203152D01*
X130791792Y-93203152D02*
X130839411Y-93298390D01*
X130839411Y-93298390D02*
X130887030Y-93346009D01*
X130887030Y-93346009D02*
X130982268Y-93393628D01*
X130982268Y-93393628D02*
X131363220Y-93393628D01*
X130172744Y-93393628D02*
X130172744Y-93869819D01*
X130506077Y-92869819D02*
X130172744Y-93393628D01*
X130172744Y-93393628D02*
X129839411Y-92869819D01*
X128934649Y-93869819D02*
X129267982Y-93393628D01*
X129506077Y-93869819D02*
X129506077Y-92869819D01*
X129506077Y-92869819D02*
X129125125Y-92869819D01*
X129125125Y-92869819D02*
X129029887Y-92917438D01*
X129029887Y-92917438D02*
X128982268Y-92965057D01*
X128982268Y-92965057D02*
X128934649Y-93060295D01*
X128934649Y-93060295D02*
X128934649Y-93203152D01*
X128934649Y-93203152D02*
X128982268Y-93298390D01*
X128982268Y-93298390D02*
X129029887Y-93346009D01*
X129029887Y-93346009D02*
X129125125Y-93393628D01*
X129125125Y-93393628D02*
X129506077Y-93393628D01*
X128315601Y-92869819D02*
X128125125Y-92869819D01*
X128125125Y-92869819D02*
X128029887Y-92917438D01*
X128029887Y-92917438D02*
X127934649Y-93012676D01*
X127934649Y-93012676D02*
X127887030Y-93203152D01*
X127887030Y-93203152D02*
X127887030Y-93536485D01*
X127887030Y-93536485D02*
X127934649Y-93726961D01*
X127934649Y-93726961D02*
X128029887Y-93822200D01*
X128029887Y-93822200D02*
X128125125Y-93869819D01*
X128125125Y-93869819D02*
X128315601Y-93869819D01*
X128315601Y-93869819D02*
X128410839Y-93822200D01*
X128410839Y-93822200D02*
X128506077Y-93726961D01*
X128506077Y-93726961D02*
X128553696Y-93536485D01*
X128553696Y-93536485D02*
X128553696Y-93203152D01*
X128553696Y-93203152D02*
X128506077Y-93012676D01*
X128506077Y-93012676D02*
X128410839Y-92917438D01*
X128410839Y-92917438D02*
X128315601Y-92869819D01*
X127506077Y-93822200D02*
X127363220Y-93869819D01*
X127363220Y-93869819D02*
X127125125Y-93869819D01*
X127125125Y-93869819D02*
X127029887Y-93822200D01*
X127029887Y-93822200D02*
X126982268Y-93774580D01*
X126982268Y-93774580D02*
X126934649Y-93679342D01*
X126934649Y-93679342D02*
X126934649Y-93584104D01*
X126934649Y-93584104D02*
X126982268Y-93488866D01*
X126982268Y-93488866D02*
X127029887Y-93441247D01*
X127029887Y-93441247D02*
X127125125Y-93393628D01*
X127125125Y-93393628D02*
X127315601Y-93346009D01*
X127315601Y-93346009D02*
X127410839Y-93298390D01*
X127410839Y-93298390D02*
X127458458Y-93250771D01*
X127458458Y-93250771D02*
X127506077Y-93155533D01*
X127506077Y-93155533D02*
X127506077Y-93060295D01*
X127506077Y-93060295D02*
X127458458Y-92965057D01*
X127458458Y-92965057D02*
X127410839Y-92917438D01*
X127410839Y-92917438D02*
X127315601Y-92869819D01*
X127315601Y-92869819D02*
X127077506Y-92869819D01*
X127077506Y-92869819D02*
X126934649Y-92917438D01*
X126506077Y-93869819D02*
X126506077Y-92869819D01*
X126029887Y-93869819D02*
X126029887Y-92869819D01*
X126029887Y-92869819D02*
X125696554Y-93584104D01*
X125696554Y-93584104D02*
X125363221Y-92869819D01*
X125363221Y-92869819D02*
X125363221Y-93869819D01*
%LPC*%
D11*
%TO.C,J1*%
X124700000Y-83375000D03*
D12*
X127240000Y-83375000D03*
X129780000Y-83375000D03*
X132320000Y-83375000D03*
%TD*%
%LPD*%
M02*
