%TF.GenerationSoftware,KiCad,Pcbnew,8.0.7*%
%TF.CreationDate,2025-01-22T04:17:01+01:00*%
%TF.ProjectId,beacon,62656163-6f6e-42e6-9b69-6361645f7063,rev?*%
%TF.SameCoordinates,Original*%
%TF.FileFunction,Copper,L1,Top*%
%TF.FilePolarity,Positive*%
%FSLAX46Y46*%
G04 Gerber Fmt 4.6, Leading zero omitted, Abs format (unit mm)*
G04 Created by KiCad (PCBNEW 8.0.7) date 2025-01-22 04:17:01*
%MOMM*%
%LPD*%
G01*
G04 APERTURE LIST*
G04 Aperture macros list*
%AMRoundRect*
0 Rectangle with rounded corners*
0 $1 Rounding radius*
0 $2 $3 $4 $5 $6 $7 $8 $9 X,Y pos of 4 corners*
0 Add a 4 corners polygon primitive as box body*
4,1,4,$2,$3,$4,$5,$6,$7,$8,$9,$2,$3,0*
0 Add four circle primitives for the rounded corners*
1,1,$1+$1,$2,$3*
1,1,$1+$1,$4,$5*
1,1,$1+$1,$6,$7*
1,1,$1+$1,$8,$9*
0 Add four rect primitives between the rounded corners*
20,1,$1+$1,$2,$3,$4,$5,0*
20,1,$1+$1,$4,$5,$6,$7,0*
20,1,$1+$1,$6,$7,$8,$9,0*
20,1,$1+$1,$8,$9,$2,$3,0*%
%AMFreePoly0*
4,1,11,1.372500,0.090000,0.862500,0.090000,0.862500,-0.165000,1.372500,-0.165000,1.372500,-0.587500,0.612500,-0.587500,0.612500,-0.495000,-0.862500,-0.495000,-0.862500,0.495000,1.372500,0.495000,1.372500,0.090000,1.372500,0.090000,$1*%
%AMFreePoly1*
4,1,11,1.372500,0.165000,0.862500,0.165000,0.862500,-0.090000,1.372500,-0.090000,1.372500,-0.495000,-0.862500,-0.495000,-0.862500,0.495000,0.612500,0.495000,0.612500,0.587500,1.372500,0.587500,1.372500,0.165000,1.372500,0.165000,$1*%
G04 Aperture macros list end*
%TA.AperFunction,ComponentPad*%
%ADD10R,2.200000X2.200000*%
%TD*%
%TA.AperFunction,ComponentPad*%
%ADD11C,2.200000*%
%TD*%
%TA.AperFunction,SMDPad,CuDef*%
%ADD12RoundRect,0.150000X-0.200000X0.150000X-0.200000X-0.150000X0.200000X-0.150000X0.200000X0.150000X0*%
%TD*%
%TA.AperFunction,SMDPad,CuDef*%
%ADD13RoundRect,0.150000X0.150000X0.200000X-0.150000X0.200000X-0.150000X-0.200000X0.150000X-0.200000X0*%
%TD*%
%TA.AperFunction,SMDPad,CuDef*%
%ADD14RoundRect,0.135000X0.185000X-0.135000X0.185000X0.135000X-0.185000X0.135000X-0.185000X-0.135000X0*%
%TD*%
%TA.AperFunction,SMDPad,CuDef*%
%ADD15RoundRect,0.147500X0.147500X0.172500X-0.147500X0.172500X-0.147500X-0.172500X0.147500X-0.172500X0*%
%TD*%
%TA.AperFunction,SMDPad,CuDef*%
%ADD16RoundRect,0.140000X0.140000X0.170000X-0.140000X0.170000X-0.140000X-0.170000X0.140000X-0.170000X0*%
%TD*%
%TA.AperFunction,SMDPad,CuDef*%
%ADD17RoundRect,0.140000X-0.140000X-0.170000X0.140000X-0.170000X0.140000X0.170000X-0.140000X0.170000X0*%
%TD*%
%TA.AperFunction,SMDPad,CuDef*%
%ADD18RoundRect,0.140000X-0.170000X0.140000X-0.170000X-0.140000X0.170000X-0.140000X0.170000X0.140000X0*%
%TD*%
%TA.AperFunction,SMDPad,CuDef*%
%ADD19RoundRect,0.140000X0.170000X-0.140000X0.170000X0.140000X-0.170000X0.140000X-0.170000X-0.140000X0*%
%TD*%
%TA.AperFunction,SMDPad,CuDef*%
%ADD20RoundRect,0.135000X-0.135000X-0.185000X0.135000X-0.185000X0.135000X0.185000X-0.135000X0.185000X0*%
%TD*%
%TA.AperFunction,SMDPad,CuDef*%
%ADD21RoundRect,0.062500X0.375000X0.062500X-0.375000X0.062500X-0.375000X-0.062500X0.375000X-0.062500X0*%
%TD*%
%TA.AperFunction,SMDPad,CuDef*%
%ADD22RoundRect,0.062500X0.062500X0.375000X-0.062500X0.375000X-0.062500X-0.375000X0.062500X-0.375000X0*%
%TD*%
%TA.AperFunction,SMDPad,CuDef*%
%ADD23R,5.600000X5.600000*%
%TD*%
%TA.AperFunction,ComponentPad*%
%ADD24C,3.800000*%
%TD*%
%TA.AperFunction,SMDPad,CuDef*%
%ADD25RoundRect,0.135000X-0.185000X0.135000X-0.185000X-0.135000X0.185000X-0.135000X0.185000X0.135000X0*%
%TD*%
%TA.AperFunction,SMDPad,CuDef*%
%ADD26RoundRect,0.150000X-0.150000X0.587500X-0.150000X-0.587500X0.150000X-0.587500X0.150000X0.587500X0*%
%TD*%
%TA.AperFunction,SMDPad,CuDef*%
%ADD27RoundRect,0.250000X0.250000X0.475000X-0.250000X0.475000X-0.250000X-0.475000X0.250000X-0.475000X0*%
%TD*%
%TA.AperFunction,SMDPad,CuDef*%
%ADD28R,0.800000X0.900000*%
%TD*%
%TA.AperFunction,SMDPad,CuDef*%
%ADD29RoundRect,0.150000X0.150000X-0.587500X0.150000X0.587500X-0.150000X0.587500X-0.150000X-0.587500X0*%
%TD*%
%TA.AperFunction,SMDPad,CuDef*%
%ADD30RoundRect,0.062500X0.062500X-0.387500X0.062500X0.387500X-0.062500X0.387500X-0.062500X-0.387500X0*%
%TD*%
%TA.AperFunction,HeatsinkPad*%
%ADD31R,1.600000X0.200000*%
%TD*%
%TA.AperFunction,SMDPad,CuDef*%
%ADD32R,0.250000X0.675000*%
%TD*%
%TA.AperFunction,SMDPad,CuDef*%
%ADD33R,0.675000X0.250000*%
%TD*%
%TA.AperFunction,SMDPad,CuDef*%
%ADD34R,0.550000X0.950000*%
%TD*%
%TA.AperFunction,SMDPad,CuDef*%
%ADD35RoundRect,0.125000X0.125000X-0.150000X0.125000X0.150000X-0.125000X0.150000X-0.125000X-0.150000X0*%
%TD*%
%TA.AperFunction,SMDPad,CuDef*%
%ADD36RoundRect,0.147500X-0.147500X-0.172500X0.147500X-0.172500X0.147500X0.172500X-0.147500X0.172500X0*%
%TD*%
%TA.AperFunction,SMDPad,CuDef*%
%ADD37RoundRect,0.147500X0.172500X-0.147500X0.172500X0.147500X-0.172500X0.147500X-0.172500X-0.147500X0*%
%TD*%
%TA.AperFunction,SMDPad,CuDef*%
%ADD38RoundRect,0.218750X0.218750X0.256250X-0.218750X0.256250X-0.218750X-0.256250X0.218750X-0.256250X0*%
%TD*%
%TA.AperFunction,SMDPad,CuDef*%
%ADD39R,0.405000X0.990000*%
%TD*%
%TA.AperFunction,SMDPad,CuDef*%
%ADD40FreePoly0,270.000000*%
%TD*%
%TA.AperFunction,SMDPad,CuDef*%
%ADD41FreePoly1,270.000000*%
%TD*%
%TA.AperFunction,ConnectorPad*%
%ADD42RoundRect,0.500000X-0.500000X-1.250000X0.500000X-1.250000X0.500000X1.250000X-0.500000X1.250000X0*%
%TD*%
%TA.AperFunction,ComponentPad*%
%ADD43R,2.100000X2.100000*%
%TD*%
%TA.AperFunction,ComponentPad*%
%ADD44C,2.100000*%
%TD*%
%TA.AperFunction,ViaPad*%
%ADD45C,0.500000*%
%TD*%
%TA.AperFunction,Conductor*%
%ADD46C,0.300000*%
%TD*%
%TA.AperFunction,Conductor*%
%ADD47C,0.150000*%
%TD*%
%TA.AperFunction,Conductor*%
%ADD48C,1.000000*%
%TD*%
G04 APERTURE END LIST*
D10*
%TO.P,J3,1,Pin_1*%
%TO.N,/PYRO2_OUT*%
X11315000Y-7600000D03*
D11*
%TO.P,J3,2,Pin_2*%
%TO.N,+BATT*%
X8775000Y-7600000D03*
%TO.P,J3,3,Pin_3*%
%TO.N,/PYRO1_OUT*%
X6235000Y-7600000D03*
%TO.P,J3,4,Pin_4*%
%TO.N,+BATT*%
X3695000Y-7600000D03*
%TD*%
D12*
%TO.P,D2,1,K*%
%TO.N,/COMP_OUT*%
X12600000Y11050000D03*
%TO.P,D2,2,A*%
%TO.N,Net-(D2-A)*%
X12600000Y8950000D03*
%TD*%
D13*
%TO.P,D3,1,K*%
%TO.N,/COMP_OUT*%
X11250000Y8900000D03*
%TO.P,D3,2,A*%
%TO.N,Net-(D3-A)*%
X9150000Y8900000D03*
%TD*%
D14*
%TO.P,R7,1*%
%TO.N,+BATT*%
X7900000Y6190000D03*
%TO.P,R7,2*%
%TO.N,/BAT_ADC*%
X7900000Y7210000D03*
%TD*%
D15*
%TO.P,L3,2,2*%
%TO.N,Net-(AE1-A)*%
X5215000Y23050000D03*
%TO.P,L3,1,1*%
%TO.N,Net-(C6-Pad2)*%
X6185000Y23050000D03*
%TD*%
D14*
%TO.P,R8,1*%
%TO.N,/BAT_ADC*%
X7900000Y7990000D03*
%TO.P,R8,2*%
%TO.N,GND*%
X7900000Y9010000D03*
%TD*%
D16*
%TO.P,C5,1*%
%TO.N,/VR_PA*%
X5380000Y20400000D03*
%TO.P,C5,2*%
%TO.N,GND*%
X4420000Y20400000D03*
%TD*%
D17*
%TO.P,C16,1*%
%TO.N,+3.3V*%
X4520000Y5700000D03*
%TO.P,C16,2*%
%TO.N,GND*%
X5480000Y5700000D03*
%TD*%
D16*
%TO.P,C7,1*%
%TO.N,Net-(C6-Pad2)*%
X6080000Y22200000D03*
%TO.P,C7,2*%
%TO.N,GND*%
X5120000Y22200000D03*
%TD*%
D18*
%TO.P,C11,1*%
%TO.N,+3.3V*%
X10700000Y11180000D03*
%TO.P,C11,2*%
%TO.N,GND*%
X10700000Y10220000D03*
%TD*%
D19*
%TO.P,C21,1*%
%TO.N,/RFI_N*%
X6900000Y20420000D03*
%TO.P,C21,2*%
%TO.N,/RFO_HP*%
X6900000Y21380000D03*
%TD*%
D17*
%TO.P,C13,1*%
%TO.N,+3.3V*%
X9620000Y7400000D03*
%TO.P,C13,2*%
%TO.N,GND*%
X10580000Y7400000D03*
%TD*%
D18*
%TO.P,C3,1*%
%TO.N,+3.3V*%
X9300000Y11180000D03*
%TO.P,C3,2*%
%TO.N,GND*%
X9300000Y10220000D03*
%TD*%
D20*
%TO.P,R5,1*%
%TO.N,/PYRO1_CON*%
X8090000Y500000D03*
%TO.P,R5,2*%
%TO.N,/PYRO1_OUT*%
X9110000Y500000D03*
%TD*%
D18*
%TO.P,C18,1*%
%TO.N,+3.3V*%
X5200000Y11380000D03*
%TO.P,C18,2*%
%TO.N,GND*%
X5200000Y10420000D03*
%TD*%
D16*
%TO.P,C12,1*%
%TO.N,+3.3V*%
X3480000Y20300000D03*
%TO.P,C12,2*%
%TO.N,GND*%
X2520000Y20300000D03*
%TD*%
D21*
%TO.P,U1,1,PB3*%
%TO.N,/BAT_ADC*%
X12037500Y13050000D03*
%TO.P,U1,2,PB4*%
X12037500Y13550000D03*
%TO.P,U1,3,PB5*%
%TO.N,/COMP_OUT*%
X12037500Y14050000D03*
%TO.P,U1,4,PB6*%
%TO.N,/TX*%
X12037500Y14550000D03*
%TO.P,U1,5,PB7*%
%TO.N,/RX*%
X12037500Y15050000D03*
%TO.P,U1,6,PB8*%
%TO.N,unconnected-(U1-PB8-Pad6)*%
X12037500Y15550000D03*
%TO.P,U1,7,PA0*%
%TO.N,unconnected-(U1-PA0-Pad7)*%
X12037500Y16050000D03*
%TO.P,U1,8,PA1*%
%TO.N,unconnected-(U1-PA1-Pad8)*%
X12037500Y16550000D03*
%TO.P,U1,9,PA2*%
%TO.N,unconnected-(U1-PA2-Pad9)*%
X12037500Y17050000D03*
%TO.P,U1,10,PA3*%
%TO.N,unconnected-(U1-PA3-Pad10)*%
X12037500Y17550000D03*
%TO.P,U1,11,VDD*%
%TO.N,+3.3V*%
X12037500Y18050000D03*
%TO.P,U1,12,PA4*%
%TO.N,unconnected-(U1-PA4-Pad12)*%
X12037500Y18550000D03*
D22*
%TO.P,U1,13,PA5*%
%TO.N,/SCK*%
X11350000Y19237500D03*
%TO.P,U1,14,PA6*%
%TO.N,unconnected-(U1-PA6-Pad14)*%
X10850000Y19237500D03*
%TO.P,U1,15,PA7*%
%TO.N,unconnected-(U1-PA7-Pad15)*%
X10350000Y19237500D03*
%TO.P,U1,16,PA8*%
%TO.N,/BUZZ*%
X9850000Y19237500D03*
%TO.P,U1,17,PA9*%
%TO.N,/LED*%
X9350000Y19237500D03*
%TO.P,U1,18,NRST*%
%TO.N,unconnected-(U1-NRST-Pad18)*%
X8850000Y19237500D03*
%TO.P,U1,19,PH3*%
%TO.N,/BOOT*%
X8350000Y19237500D03*
%TO.P,U1,20,RFI_P*%
%TO.N,/RFI_P*%
X7850000Y19237500D03*
%TO.P,U1,21,RFI_N*%
%TO.N,/RFI_N*%
X7350000Y19237500D03*
%TO.P,U1,22,RFO_LP*%
%TO.N,unconnected-(U1-RFO_LP-Pad22)*%
X6850000Y19237500D03*
%TO.P,U1,23,RFO_HP*%
%TO.N,/RFO_HP*%
X6350000Y19237500D03*
%TO.P,U1,24,VR_PA*%
%TO.N,/VR_PA*%
X5850000Y19237500D03*
D21*
%TO.P,U1,25,VDDPA*%
%TO.N,+3.3V*%
X5162500Y18550000D03*
%TO.P,U1,26,OSC_IN*%
%TO.N,/OSC_IN*%
X5162500Y18050000D03*
%TO.P,U1,27,OSC_OUT*%
%TO.N,/OSC_OUT*%
X5162500Y17550000D03*
%TO.P,U1,28,VDDRF*%
%TO.N,+3.3V*%
X5162500Y17050000D03*
%TO.P,U1,29,VDDRF1V55*%
%TO.N,/VFBSMPS*%
X5162500Y16550000D03*
%TO.P,U1,30,PB0*%
%TO.N,unconnected-(U1-PB0-Pad30)*%
X5162500Y16050000D03*
%TO.P,U1,31,PB2*%
%TO.N,unconnected-(U1-PB2-Pad31)*%
X5162500Y15550000D03*
%TO.P,U1,32,PB12*%
%TO.N,unconnected-(U1-PB12-Pad32)*%
X5162500Y15050000D03*
%TO.P,U1,33,PA10*%
%TO.N,/CS_FLASH*%
X5162500Y14550000D03*
%TO.P,U1,34,PA11*%
%TO.N,/MISO*%
X5162500Y14050000D03*
%TO.P,U1,35,PA12*%
%TO.N,/MOSI*%
X5162500Y13550000D03*
%TO.P,U1,36,PA13*%
%TO.N,/CS_IMU*%
X5162500Y13050000D03*
D22*
%TO.P,U1,37,VBAT*%
%TO.N,+3.3V*%
X5850000Y12362500D03*
%TO.P,U1,38,PC13*%
%TO.N,/CS_BARO*%
X6350000Y12362500D03*
%TO.P,U1,39,PC14*%
%TO.N,/PYRO1_CON*%
X6850000Y12362500D03*
%TO.P,U1,40,PC15*%
%TO.N,/PYRO2_CON*%
X7350000Y12362500D03*
%TO.P,U1,41,VDDA*%
%TO.N,+3.3V*%
X7850000Y12362500D03*
%TO.P,U1,42,PA14*%
%TO.N,/PYRO1*%
X8350000Y12362500D03*
%TO.P,U1,43,PA15*%
%TO.N,/PYRO2*%
X8850000Y12362500D03*
%TO.P,U1,44,VDD*%
%TO.N,+3.3V*%
X9350000Y12362500D03*
%TO.P,U1,45,VFBSMPS*%
%TO.N,/VFBSMPS*%
X9850000Y12362500D03*
%TO.P,U1,46,VDDSMPS*%
%TO.N,+3.3V*%
X10350000Y12362500D03*
%TO.P,U1,47,VLXSMPS*%
%TO.N,unconnected-(U1-VLXSMPS-Pad47)*%
X10850000Y12362500D03*
%TO.P,U1,48,VSSSMPS*%
%TO.N,GND*%
X11350000Y12362500D03*
D23*
%TO.P,U1,49,VSS*%
X8600000Y15800000D03*
%TD*%
D24*
%TO.P,H3,1,1*%
%TO.N,GND*%
X7500000Y25300000D03*
%TD*%
D14*
%TO.P,R3,1*%
%TO.N,/LED*%
X10800000Y21390000D03*
%TO.P,R3,2*%
%TO.N,Net-(D1-A)*%
X10800000Y22410000D03*
%TD*%
D25*
%TO.P,R6,1*%
%TO.N,/PYRO2_CON*%
X8600000Y2610000D03*
%TO.P,R6,2*%
%TO.N,/PYRO2_OUT*%
X8600000Y1590000D03*
%TD*%
D19*
%TO.P,C14,1*%
%TO.N,+BATT*%
X7700000Y3920000D03*
%TO.P,C14,2*%
%TO.N,GND*%
X7700000Y4880000D03*
%TD*%
D26*
%TO.P,U2,1,GND*%
%TO.N,GND*%
X11150000Y5937500D03*
%TO.P,U2,2,VO*%
%TO.N,+3.3V*%
X9250000Y5937500D03*
%TO.P,U2,3,VI*%
%TO.N,+BATT*%
X10200000Y4062500D03*
%TD*%
D19*
%TO.P,C6,1*%
%TO.N,/RFO_HP*%
X8700000Y21620000D03*
%TO.P,C6,2*%
%TO.N,Net-(C6-Pad2)*%
X8700000Y22580000D03*
%TD*%
D18*
%TO.P,C15,1*%
%TO.N,+3.3V*%
X6000000Y11380000D03*
%TO.P,C15,2*%
%TO.N,GND*%
X6000000Y10420000D03*
%TD*%
D20*
%TO.P,R4,1*%
%TO.N,GND*%
X9890000Y23300000D03*
%TO.P,R4,2*%
%TO.N,/BOOT*%
X10910000Y23300000D03*
%TD*%
D17*
%TO.P,C1,1*%
%TO.N,+3.3V*%
X11720000Y20200000D03*
%TO.P,C1,2*%
%TO.N,GND*%
X12680000Y20200000D03*
%TD*%
D19*
%TO.P,C20,1*%
%TO.N,/RFI_P*%
X9600000Y21420000D03*
%TO.P,C20,2*%
%TO.N,GND*%
X9600000Y22380000D03*
%TD*%
D16*
%TO.P,C10,1*%
%TO.N,+3.3V*%
X3280000Y15700000D03*
%TO.P,C10,2*%
%TO.N,GND*%
X2320000Y15700000D03*
%TD*%
D25*
%TO.P,R9,1*%
%TO.N,/PYRO1*%
X9500000Y2610000D03*
%TO.P,R9,2*%
%TO.N,Net-(D3-A)*%
X9500000Y1590000D03*
%TD*%
D16*
%TO.P,C4,1*%
%TO.N,/VR_PA*%
X4080000Y21300000D03*
%TO.P,C4,2*%
%TO.N,GND*%
X3120000Y21300000D03*
%TD*%
D18*
%TO.P,C2,1*%
%TO.N,+3.3V*%
X7900000Y10880000D03*
%TO.P,C2,2*%
%TO.N,GND*%
X7900000Y9920000D03*
%TD*%
D25*
%TO.P,R10,1*%
%TO.N,/PYRO2*%
X12400000Y3910000D03*
%TO.P,R10,2*%
%TO.N,Net-(D2-A)*%
X12400000Y2890000D03*
%TD*%
D14*
%TO.P,R1,1*%
%TO.N,/PYRO2*%
X12400000Y4790000D03*
%TO.P,R1,2*%
%TO.N,GND*%
X12400000Y5810000D03*
%TD*%
D27*
%TO.P,C19,1*%
%TO.N,+BATT*%
X4350000Y-5100000D03*
%TO.P,C19,2*%
%TO.N,GND*%
X2450000Y-5100000D03*
%TD*%
D28*
%TO.P,Y1,1,1*%
%TO.N,/OSC_OUT*%
X3600000Y17100000D03*
%TO.P,Y1,2,2*%
%TO.N,GND*%
X3600000Y18500000D03*
%TO.P,Y1,3,3*%
%TO.N,/OSC_IN*%
X2500000Y18500000D03*
%TO.P,Y1,4,4*%
%TO.N,GND*%
X2500000Y17100000D03*
%TD*%
D16*
%TO.P,C9,1*%
%TO.N,/VFBSMPS*%
X3280000Y14600000D03*
%TO.P,C9,2*%
%TO.N,GND*%
X2320000Y14600000D03*
%TD*%
D29*
%TO.P,Q1,1,G*%
%TO.N,GND*%
X2450000Y-1337500D03*
%TO.P,Q1,2,S*%
%TO.N,+BATT*%
X4350000Y-1337500D03*
%TO.P,Q1,3,D*%
%TO.N,Net-(BT1-+)*%
X3400000Y537500D03*
%TD*%
D25*
%TO.P,R2,1*%
%TO.N,/PYRO1*%
X10400000Y2610000D03*
%TO.P,R2,2*%
%TO.N,GND*%
X10400000Y1590000D03*
%TD*%
D30*
%TO.P,U4,1,~{CS}*%
%TO.N,/CS_FLASH*%
X2050000Y2575000D03*
%TO.P,U4,2,DO(IO1)*%
%TO.N,/MISO*%
X2550000Y2575000D03*
%TO.P,U4,3,IO2*%
%TO.N,unconnected-(U4-IO2-Pad3)*%
X3050000Y2575000D03*
%TO.P,U4,4,GND*%
%TO.N,GND*%
X3550000Y2575000D03*
%TO.P,U4,5,DI(IO0)*%
%TO.N,/MOSI*%
X3550000Y5425000D03*
%TO.P,U4,6,CLK*%
%TO.N,/SCK*%
X3050000Y5425000D03*
%TO.P,U4,7,IO3*%
%TO.N,unconnected-(U4-IO3-Pad7)*%
X2550000Y5425000D03*
%TO.P,U4,8,VCC*%
%TO.N,+3.3V*%
X2050000Y5425000D03*
D31*
%TO.P,U4,9*%
%TO.N,N/C*%
X2800000Y4000000D03*
%TD*%
D32*
%TO.P,U6,1,SDO*%
%TO.N,/MISO*%
X3850000Y13262500D03*
%TO.P,U6,2,ASDx*%
%TO.N,unconnected-(U6-ASDx-Pad2)*%
X3350000Y13262500D03*
%TO.P,U6,3,ASCx*%
%TO.N,unconnected-(U6-ASCx-Pad3)*%
X2850000Y13262500D03*
%TO.P,U6,4,INT1*%
%TO.N,unconnected-(U6-INT1-Pad4)*%
X2350000Y13262500D03*
D33*
%TO.P,U6,5,VDDIO*%
%TO.N,+3.3V*%
X2087500Y12500000D03*
%TO.P,U6,6,GNDIO*%
%TO.N,GND*%
X2087500Y12000000D03*
%TO.P,U6,7,GND*%
X2087500Y11500000D03*
D32*
%TO.P,U6,8,VDD*%
%TO.N,+3.3V*%
X2350000Y10737500D03*
%TO.P,U6,9,INT2*%
%TO.N,unconnected-(U6-INT2-Pad9)*%
X2850000Y10737500D03*
%TO.P,U6,10,OCSB*%
%TO.N,unconnected-(U6-OCSB-Pad10)*%
X3350000Y10737500D03*
%TO.P,U6,11,OSDO*%
%TO.N,unconnected-(U6-OSDO-Pad11)*%
X3850000Y10737500D03*
D33*
%TO.P,U6,12,CSB*%
%TO.N,/CS_IMU*%
X4112500Y11500000D03*
%TO.P,U6,13,SCx*%
%TO.N,/SCK*%
X4112500Y12000000D03*
%TO.P,U6,14,SDx*%
%TO.N,/MOSI*%
X4112500Y12500000D03*
%TD*%
D34*
%TO.P,U3,1,VDD*%
%TO.N,+3.3V*%
X2525000Y6925000D03*
%TO.P,U3,2,PS*%
%TO.N,GND*%
X3775000Y6925000D03*
%TO.P,U3,3,GND*%
X5025000Y6925000D03*
%TO.P,U3,4,CSB*%
%TO.N,/CS_BARO*%
X6275000Y6925000D03*
%TO.P,U3,5,CSB*%
X6275000Y9075000D03*
%TO.P,U3,6,SDO*%
%TO.N,/MISO*%
X5025000Y9075000D03*
%TO.P,U3,7,SDI/SDA*%
%TO.N,/MOSI*%
X3775000Y9075000D03*
%TO.P,U3,8,SCLK*%
%TO.N,/SCK*%
X2525000Y9075000D03*
%TD*%
D27*
%TO.P,C17,1*%
%TO.N,+BATT*%
X4350000Y-3200000D03*
%TO.P,C17,2*%
%TO.N,GND*%
X2450000Y-3200000D03*
%TD*%
D35*
%TO.P,SW1,1,1*%
%TO.N,+3.3V*%
X11800000Y20975000D03*
%TO.P,SW1,2,2*%
X12600000Y20975000D03*
%TO.P,SW1,3,K*%
%TO.N,/BOOT*%
X11800000Y23625000D03*
%TO.P,SW1,4,A*%
X12600000Y23625000D03*
%TD*%
D36*
%TO.P,L1,1,1*%
%TO.N,/VR_PA*%
X5015000Y21300000D03*
%TO.P,L1,2,2*%
%TO.N,/RFO_HP*%
X5985000Y21300000D03*
%TD*%
D16*
%TO.P,C8,1*%
%TO.N,Net-(AE1-A)*%
X3980000Y22200000D03*
%TO.P,C8,2*%
%TO.N,GND*%
X3020000Y22200000D03*
%TD*%
D36*
%TO.P,L4,1,1*%
%TO.N,/RFI_N*%
X7815000Y20700000D03*
%TO.P,L4,2,2*%
%TO.N,/RFI_P*%
X8785000Y20700000D03*
%TD*%
D37*
%TO.P,L2,1,1*%
%TO.N,/RFO_HP*%
X7800000Y21615000D03*
%TO.P,L2,2,2*%
%TO.N,Net-(C6-Pad2)*%
X7800000Y22585000D03*
%TD*%
D38*
%TO.P,D1,1,K*%
%TO.N,GND*%
X11887500Y24600000D03*
%TO.P,D1,2,A*%
%TO.N,Net-(D1-A)*%
X10312500Y24600000D03*
%TD*%
D39*
%TO.P,Q2,1,S*%
%TO.N,GND*%
X12590000Y342500D03*
%TO.P,Q2,2,G*%
%TO.N,Net-(D2-A)*%
X11930000Y342500D03*
%TO.P,Q2,3,S*%
%TO.N,GND*%
X11270000Y342500D03*
%TO.P,Q2,4,G*%
%TO.N,Net-(D3-A)*%
X10610000Y342500D03*
D40*
%TO.P,Q2,5,D*%
%TO.N,/PYRO1_OUT*%
X10992500Y-1650000D03*
D41*
%TO.P,Q2,6,D*%
%TO.N,/PYRO2_OUT*%
X12207500Y-1650000D03*
%TD*%
D42*
%TO.P,AE1,1,A*%
%TO.N,Net-(AE1-A)*%
X3800000Y24700000D03*
%TD*%
D24*
%TO.P,H4,1,1*%
%TO.N,GND*%
X7500000Y-2200000D03*
%TD*%
D43*
%TO.P,BT1,1,+*%
%TO.N,Net-(BT1-+)*%
X5900000Y1530000D03*
D44*
%TO.P,BT1,2,-*%
%TO.N,GND*%
X5900000Y4070000D03*
%TD*%
D45*
%TO.N,GND*%
X9400000Y23100000D03*
X5700000Y-4500000D03*
X2300000Y16300000D03*
X4700000Y22400000D03*
X13000000Y17200000D03*
X1800000Y6600000D03*
X9900000Y10100000D03*
X5200000Y8000000D03*
X12400000Y7200000D03*
X2200000Y22300000D03*
X11700000Y2300000D03*
X11641405Y1703512D03*
X3500000Y19100000D03*
X4200000Y19800000D03*
X8600000Y15800000D03*
X7900000Y9500000D03*
X13200000Y2600000D03*
X6700000Y17700000D03*
X13300000Y-4300000D03*
X12950000Y1000000D03*
X11400000Y1100000D03*
X2000000Y24800000D03*
X13100000Y-7200000D03*
X10200000Y17700000D03*
X13150000Y0D03*
X5600000Y9900000D03*
X8600000Y14000000D03*
X13300000Y20200000D03*
X3200000Y-1800000D03*
X13000000Y21900000D03*
X6700000Y14000000D03*
X3300000Y-6000000D03*
X3300000Y-4200000D03*
X1800000Y20400000D03*
X8600000Y17700000D03*
X12500000Y22500000D03*
X3900000Y6200000D03*
X2200000Y-6500000D03*
X7500000Y5500000D03*
X10100000Y5700000D03*
X2300000Y21400000D03*
X6700000Y15700000D03*
X2100000Y100000D03*
X10700000Y15700000D03*
X2400000Y14100000D03*
X13100000Y15500000D03*
X5600000Y6400000D03*
X2825000Y12443707D03*
X12400000Y6400000D03*
X10700000Y14000000D03*
%TO.N,+3.3V*%
X5850000Y11800000D03*
X10000000Y10900000D03*
X12700000Y19400000D03*
X7850000Y11300000D03*
X9870993Y8529007D03*
%TO.N,/VFBSMPS*%
X10000000Y11600000D03*
X4100000Y15300000D03*
%TO.N,/TX*%
X12775000Y11780551D03*
%TO.N,/RX*%
X12500000Y10000000D03*
%TO.N,+BATT*%
X9700000Y4500000D03*
%TO.N,/BUZZ*%
X10235807Y20072398D03*
%TO.N,/PYRO1_CON*%
X6300000Y8199998D03*
X8000000Y3200000D03*
%TO.N,/PYRO2_CON*%
X8900000Y3400000D03*
X6700000Y5900000D03*
%TO.N,Net-(D3-A)*%
X11200000Y4700000D03*
X9000000Y8003678D03*
%TO.N,/BAT_ADC*%
X12025000Y12598899D03*
X7900000Y7700000D03*
%TO.N,/MOSI*%
X4300000Y9700000D03*
X3525000Y4600000D03*
X4396821Y13373758D03*
%TO.N,/MISO*%
X4475000Y14019042D03*
X2800000Y3400000D03*
X4400000Y8300000D03*
%TO.N,/SCK*%
X11000000Y20100000D03*
X3000000Y9000000D03*
X2200000Y4500000D03*
X3300000Y12000000D03*
%TO.N,/CS_FLASH*%
X2100000Y3400000D03*
X4000000Y14500000D03*
%TD*%
D46*
%TO.N,Net-(C6-Pad2)*%
X6135000Y23100000D02*
X6100000Y23100000D01*
X6080000Y22945000D02*
X6185000Y23050000D01*
X6080000Y22200000D02*
X6080000Y22945000D01*
X6185000Y23050000D02*
X6135000Y23100000D01*
%TO.N,Net-(AE1-A)*%
X4965000Y23200000D02*
X4470001Y23200000D01*
X5115000Y23050000D02*
X4965000Y23200000D01*
%TO.N,+3.3V*%
X3150000Y19600000D02*
X3300000Y19750000D01*
X2275000Y19600000D02*
X3150000Y19600000D01*
X1740000Y15300000D02*
X1740000Y19065000D01*
X1740000Y19065000D02*
X2275000Y19600000D01*
X12520000Y19400000D02*
X11720000Y20200000D01*
X12700000Y19400000D02*
X12520000Y19400000D01*
X12800000Y18250000D02*
X12600000Y18050000D01*
X12800000Y19300000D02*
X12800000Y18250000D01*
X12700000Y19400000D02*
X12800000Y19300000D01*
D47*
%TO.N,/SCK*%
X11350000Y19674999D02*
X11350000Y19237500D01*
X11000000Y20024999D02*
X11350000Y19674999D01*
X11000000Y20100000D02*
X11000000Y20024999D01*
D46*
%TO.N,GND*%
X7500000Y5080000D02*
X7700000Y4880000D01*
D47*
X5600000Y9900000D02*
X5600000Y10020000D01*
X2400000Y14100000D02*
X2400000Y14520000D01*
X11150000Y5937500D02*
X10337500Y5937500D01*
X2087500Y12000000D02*
X2381293Y12000000D01*
D46*
X7500000Y5500000D02*
X7500000Y5080000D01*
D47*
X2381293Y12000000D02*
X2825000Y12443707D01*
X3300000Y18500000D02*
X3300000Y18900000D01*
X11275000Y8325000D02*
X10920993Y8325000D01*
X11350000Y12362500D02*
X11350000Y13350000D01*
X4220000Y19820000D02*
X4200000Y19800000D01*
X7900000Y9500000D02*
X7850000Y9550000D01*
X5600000Y10020000D02*
X6000000Y10420000D01*
X12400000Y7200000D02*
X12400000Y6400000D01*
X2320000Y16280000D02*
X2300000Y16300000D01*
D46*
X7700000Y4880000D02*
X7800000Y4880000D01*
D47*
X10337500Y5937500D02*
X10100000Y5700000D01*
X1800000Y20400000D02*
X2320000Y20400000D01*
X2200000Y17100000D02*
X2200000Y16400000D01*
X2320000Y15700000D02*
X2320000Y16280000D01*
X2200000Y16400000D02*
X2300000Y16300000D01*
X5120000Y22400000D02*
X4700000Y22400000D01*
X3300000Y18900000D02*
X3500000Y19100000D01*
X10700000Y8545993D02*
X10700000Y10220000D01*
X4220000Y20400000D02*
X4220000Y19820000D01*
X7850000Y9550000D02*
X7850000Y10020000D01*
X12400000Y5810000D02*
X12400000Y6400000D01*
X2400000Y14520000D02*
X2320000Y14600000D01*
X12400000Y7200000D02*
X11275000Y8325000D01*
X10920993Y8325000D02*
X10700000Y8545993D01*
X11350000Y13350000D02*
X10700000Y14000000D01*
%TO.N,+3.3V*%
X4630000Y17050000D02*
X4225000Y16645000D01*
X11800000Y20280000D02*
X11720000Y20200000D01*
X4375000Y10175000D02*
X4600000Y10400000D01*
D46*
X9250000Y5937500D02*
X9250000Y7030000D01*
D47*
X4225000Y16645000D02*
X4225000Y16449264D01*
D46*
X1450000Y11150000D02*
X1862500Y10737500D01*
X9620000Y8278014D02*
X9620000Y7400000D01*
D47*
X3165000Y15165000D02*
X3280000Y15280000D01*
X5850000Y11530000D02*
X6000000Y11380000D01*
X10500000Y11180000D02*
X10500000Y11800000D01*
X2350000Y10250000D02*
X2350000Y10737500D01*
X4600000Y10780000D02*
X5200000Y11380000D01*
X1740000Y15300000D02*
X1875000Y15165000D01*
D46*
X9928248Y10800000D02*
X10028248Y10900000D01*
X1872500Y9622500D02*
X2425000Y10175000D01*
X3500000Y19950000D02*
X3500000Y20380000D01*
D47*
X4778248Y18550000D02*
X3578248Y19750000D01*
X7850000Y10980000D02*
X7850000Y11300000D01*
D46*
X1450000Y12275000D02*
X1450000Y11150000D01*
X3300000Y19750000D02*
X3500000Y19950000D01*
X2550000Y7700000D02*
X1872500Y8377500D01*
X2087500Y12500000D02*
X1740000Y12847500D01*
X9300000Y11180000D02*
X9300000Y11100000D01*
X3300000Y7700000D02*
X2550000Y7700000D01*
D47*
X10350000Y11950000D02*
X10350000Y12362500D01*
X3475736Y15700000D02*
X3280000Y15700000D01*
X3280000Y15280000D02*
X3280000Y15700000D01*
X2525000Y6525000D02*
X2525000Y6925000D01*
X5850000Y11800000D02*
X5620000Y11800000D01*
X10028248Y10900000D02*
X10220000Y10900000D01*
X5162500Y18550000D02*
X4778248Y18550000D01*
D46*
X2550000Y7700000D02*
X2550000Y6950000D01*
X4450000Y7450000D02*
X4200000Y7700000D01*
X9600000Y10800000D02*
X9928248Y10800000D01*
D47*
X4600000Y10400000D02*
X4600000Y10780000D01*
X9350000Y12362500D02*
X9350000Y11230000D01*
X5850000Y12362500D02*
X5850000Y11430000D01*
X2050000Y6050000D02*
X2525000Y6525000D01*
X4225000Y16449264D02*
X3475736Y15700000D01*
X2050000Y5425000D02*
X2050000Y6050000D01*
X11800000Y20975000D02*
X12600000Y20975000D01*
D46*
X9870993Y8529007D02*
X9620000Y8278014D01*
D47*
X5850000Y11430000D02*
X5900000Y11380000D01*
D46*
X3500000Y20380000D02*
X3480000Y20400000D01*
X1675000Y12500000D02*
X1450000Y12275000D01*
D47*
X10500000Y11800000D02*
X10350000Y11950000D01*
D46*
X4450000Y5770000D02*
X4450000Y7450000D01*
X9250000Y7030000D02*
X9620000Y7400000D01*
X1862500Y10737500D02*
X2350000Y10737500D01*
D47*
X3578248Y19750000D02*
X3300000Y19750000D01*
X12600000Y18050000D02*
X12037500Y18050000D01*
D46*
X2087500Y12500000D02*
X1675000Y12500000D01*
X4520000Y5700000D02*
X4450000Y5770000D01*
D47*
X7850000Y11300000D02*
X7850000Y12362500D01*
D46*
X1872500Y8377500D02*
X1872500Y9622500D01*
X1740000Y12847500D02*
X1740000Y15300000D01*
D47*
X2425000Y10175000D02*
X4375000Y10175000D01*
X5620000Y11800000D02*
X5200000Y11380000D01*
D46*
X2550000Y6950000D02*
X2525000Y6925000D01*
X9300000Y11100000D02*
X9600000Y10800000D01*
D47*
X2425000Y10175000D02*
X2350000Y10250000D01*
X5850000Y11800000D02*
X5850000Y11530000D01*
X1875000Y15165000D02*
X3165000Y15165000D01*
D46*
X4200000Y7700000D02*
X3300000Y7700000D01*
D47*
X5162500Y17050000D02*
X4630000Y17050000D01*
X9350000Y11230000D02*
X9300000Y11180000D01*
D46*
X10220000Y10900000D02*
X10500000Y11180000D01*
D47*
X11800000Y20975000D02*
X11800000Y20280000D01*
D46*
%TO.N,/VR_PA*%
X5380000Y20400000D02*
X5380000Y20935000D01*
X4080000Y21300000D02*
X5015000Y21300000D01*
X5380000Y20935000D02*
X5015000Y21300000D01*
X5850000Y19930000D02*
X5380000Y20400000D01*
X5850000Y19237500D02*
X5850000Y19930000D01*
%TO.N,/RFO_HP*%
X6350000Y19237500D02*
X6350000Y19750000D01*
X6300000Y20116396D02*
X6300000Y19800000D01*
X7800000Y21615000D02*
X8695000Y21615000D01*
X6820000Y21300000D02*
X6900000Y21380000D01*
X7800000Y21615000D02*
X7135000Y21615000D01*
X5985000Y20431396D02*
X6300000Y20116396D01*
X7135000Y21615000D02*
X6900000Y21380000D01*
X8695000Y21615000D02*
X8700000Y21620000D01*
X5985000Y21300000D02*
X6820000Y21300000D01*
X6350000Y19750000D02*
X6300000Y19800000D01*
X5985000Y21300000D02*
X5985000Y20431396D01*
%TO.N,Net-(C6-Pad2)*%
X7315000Y22300000D02*
X6600000Y22300000D01*
X6600000Y22300000D02*
X6500000Y22200000D01*
X8700000Y22580000D02*
X7805000Y22580000D01*
X7600000Y22585000D02*
X7315000Y22300000D01*
X7805000Y22580000D02*
X7800000Y22585000D01*
X6500000Y22200000D02*
X6080000Y22200000D01*
D47*
%TO.N,/VFBSMPS*%
X4750000Y16550000D02*
X5162500Y16550000D01*
X4100000Y15300000D02*
X4100000Y15900000D01*
X9850000Y12362500D02*
X9850000Y11750000D01*
X9850000Y11750000D02*
X10000000Y11600000D01*
X4100000Y15900000D02*
X4750000Y16550000D01*
X4100000Y15300000D02*
X3980000Y15300000D01*
X3280000Y14400000D02*
X3280000Y14600000D01*
X3980000Y15300000D02*
X3280000Y14600000D01*
%TO.N,/OSC_IN*%
X5162500Y18050000D02*
X4450000Y18050000D01*
X3000000Y17800000D02*
X2500000Y18300000D01*
X4450000Y18050000D02*
X4200000Y17800000D01*
X4200000Y17800000D02*
X3000000Y17800000D01*
X2500000Y18300000D02*
X2500000Y18500000D01*
%TO.N,/OSC_OUT*%
X4100000Y17100000D02*
X4550000Y17550000D01*
X3600000Y17100000D02*
X4100000Y17100000D01*
X4550000Y17550000D02*
X5162500Y17550000D01*
%TO.N,/BOOT*%
X8575001Y19900000D02*
X8967393Y19900000D01*
X10255000Y21187607D02*
X10255000Y21755000D01*
X10415000Y21915000D02*
X11137858Y21915000D01*
X8967393Y19900000D02*
X10255000Y21187607D01*
X8350000Y19237500D02*
X8350000Y19674999D01*
X11345000Y22122142D02*
X11345000Y22965000D01*
X11300000Y23400000D02*
X10910000Y23400000D01*
X11525000Y23625000D02*
X11300000Y23400000D01*
X11800000Y23625000D02*
X11525000Y23625000D01*
X11345000Y22965000D02*
X10910000Y23400000D01*
X8350000Y19674999D02*
X8575001Y19900000D01*
X11800000Y23625000D02*
X12600000Y23625000D01*
X10255000Y21755000D02*
X10415000Y21915000D01*
X11137858Y21915000D02*
X11345000Y22122142D01*
%TO.N,/TX*%
X13000000Y14024999D02*
X12474999Y14550000D01*
X13000000Y12005551D02*
X13000000Y14024999D01*
X12474999Y14550000D02*
X12037500Y14550000D01*
X12775000Y11780551D02*
X13000000Y12005551D01*
%TO.N,/RX*%
X12500000Y10000000D02*
X12800000Y10000000D01*
X12474999Y15050000D02*
X12037500Y15050000D01*
X12800000Y10000000D02*
X13175000Y10375000D01*
X13175000Y11375000D02*
X13300000Y11500000D01*
X13175000Y10375000D02*
X13175000Y11375000D01*
X13300000Y11500000D02*
X13300000Y14224999D01*
X13300000Y14224999D02*
X12474999Y15050000D01*
%TO.N,/LED*%
X10800000Y20800000D02*
X10800000Y21390000D01*
X10039055Y20547398D02*
X10547398Y20547398D01*
X9760807Y20269150D02*
X10039055Y20547398D01*
X9350000Y19237500D02*
X9350000Y19850000D01*
X9350000Y19850000D02*
X9760807Y20260807D01*
X10547398Y20547398D02*
X10800000Y20800000D01*
X9760807Y20260807D02*
X9760807Y20269150D01*
%TO.N,Net-(D1-A)*%
X10385000Y22925000D02*
X10385000Y24427500D01*
X11000000Y22310000D02*
X10385000Y22925000D01*
X10385000Y24427500D02*
X10312500Y24500000D01*
D46*
%TO.N,Net-(AE1-A)*%
X3980000Y22400000D02*
X3980000Y24420000D01*
X3980000Y24420000D02*
X3700000Y24700000D01*
%TO.N,/RFI_N*%
X6900000Y20420000D02*
X7535000Y20420000D01*
X7535000Y20420000D02*
X7815000Y20700000D01*
X7350000Y20235000D02*
X7815000Y20700000D01*
X7350000Y19237500D02*
X7350000Y20235000D01*
%TO.N,/RFI_P*%
X9600000Y21420000D02*
X9505000Y21420000D01*
X7850000Y19765000D02*
X8785000Y20700000D01*
X9505000Y21420000D02*
X8785000Y20700000D01*
X7850000Y19237500D02*
X7850000Y19765000D01*
%TO.N,+BATT*%
X5687500Y0D02*
X4350000Y-1337500D01*
D48*
X4350000Y-6945000D02*
X3695000Y-7600000D01*
D47*
X8235000Y4455000D02*
X7700000Y3920000D01*
D46*
X9700000Y4500000D02*
X8380000Y4500000D01*
D48*
X4350000Y-1337500D02*
X4350000Y-3400000D01*
D46*
X6900000Y0D02*
X5687500Y0D01*
X7400000Y3520000D02*
X7400000Y500000D01*
D47*
X8235000Y5855000D02*
X8235000Y4455000D01*
D46*
X7400000Y500000D02*
X6900000Y0D01*
D48*
X4350000Y-3400000D02*
X4350000Y-6945000D01*
D46*
X8380000Y4500000D02*
X7400000Y3520000D01*
D47*
X7900000Y6190000D02*
X8235000Y5855000D01*
D48*
%TO.N,/PYRO1_OUT*%
X10992500Y-1650000D02*
X10992500Y-2507500D01*
X6235000Y-7265000D02*
X6235000Y-7600000D01*
D47*
X9110000Y500000D02*
X9110000Y232500D01*
X9110000Y232500D02*
X10992500Y-1650000D01*
D48*
X10992500Y-2507500D02*
X6235000Y-7265000D01*
D47*
%TO.N,/PYRO1*%
X10200000Y2610000D02*
X10900000Y3310000D01*
X9500000Y2610000D02*
X10200000Y2610000D01*
X8465000Y11435000D02*
X8350000Y11550000D01*
X8600000Y7400000D02*
X8465000Y7535000D01*
X8600000Y5100000D02*
X8600000Y7400000D01*
X8465000Y7535000D02*
X8465000Y11435000D01*
X10725000Y4503248D02*
X10725000Y4892243D01*
X10900000Y4328248D02*
X10725000Y4503248D01*
X9559486Y4975000D02*
X8725000Y4975000D01*
X8725000Y4975000D02*
X8600000Y5100000D01*
X10725000Y4892243D02*
X10517243Y5100000D01*
X10900000Y3310000D02*
X10900000Y4328248D01*
X8350000Y11550000D02*
X8350000Y12362500D01*
X9684486Y5100000D02*
X9559486Y4975000D01*
X10517243Y5100000D02*
X9684486Y5100000D01*
%TO.N,/PYRO2*%
X8765000Y11475068D02*
X8850000Y11560068D01*
X10615000Y7935000D02*
X10345993Y8204007D01*
X10345993Y8725759D02*
X9371752Y9700000D01*
X8765000Y9924932D02*
X8765000Y11475068D01*
X12400000Y3910000D02*
X12400000Y4790000D01*
X11700000Y5490000D02*
X11700000Y7171752D01*
X8989932Y9700000D02*
X8765000Y9924932D01*
X9371752Y9700000D02*
X8989932Y9700000D01*
X11700000Y7171752D02*
X10936752Y7935000D01*
X12400000Y4790000D02*
X11700000Y5490000D01*
X10936752Y7935000D02*
X10615000Y7935000D01*
X8850000Y11560068D02*
X8850000Y12362500D01*
X10345993Y8204007D02*
X10345993Y8725759D01*
%TO.N,/PYRO2_OUT*%
X10362500Y-557500D02*
X11957500Y-557500D01*
X10100000Y400000D02*
X10100000Y-295000D01*
D48*
X11326000Y-5949247D02*
X11326000Y-4574000D01*
D47*
X8600000Y1590000D02*
X9095000Y1095000D01*
X11957500Y-557500D02*
X12207500Y-807500D01*
X9405000Y1095000D02*
X10100000Y400000D01*
X12207500Y-807500D02*
X12207500Y-1650000D01*
D48*
X11315000Y-5960247D02*
X11326000Y-5949247D01*
X12207500Y-3692500D02*
X12207500Y-1650000D01*
D47*
X9095000Y1095000D02*
X9405000Y1095000D01*
X10100000Y-295000D02*
X10362500Y-557500D01*
D48*
X11326000Y-4574000D02*
X12207500Y-3692500D01*
X11315000Y-7600000D02*
X11315000Y-5960247D01*
D47*
%TO.N,/BUZZ*%
X9850000Y19686591D02*
X9850000Y19237500D01*
X10235807Y20072398D02*
X9850000Y19686591D01*
%TO.N,/PYRO1_CON*%
X6850000Y8450000D02*
X6850000Y12362500D01*
X8000000Y590000D02*
X8090000Y500000D01*
X6599998Y8199998D02*
X6850000Y8450000D01*
X6300000Y8199998D02*
X6599998Y8199998D01*
X8000000Y3200000D02*
X8000000Y590000D01*
%TO.N,/PYRO2_CON*%
X7350000Y6550000D02*
X7350000Y12362500D01*
X6700000Y5900000D02*
X7350000Y6550000D01*
X8600000Y3100000D02*
X8900000Y3400000D01*
X8600000Y2610000D02*
X8600000Y3100000D01*
%TO.N,Net-(D2-A)*%
X11930000Y930000D02*
X11930000Y342500D01*
X13000000Y8000000D02*
X12600000Y8400000D01*
X12400000Y2890000D02*
X12400000Y1400000D01*
X12600000Y8400000D02*
X12600000Y8950000D01*
X12400000Y2890000D02*
X13000000Y3490000D01*
X12400000Y1400000D02*
X11930000Y930000D01*
X13000000Y3490000D02*
X13000000Y8000000D01*
%TO.N,/COMP_OUT*%
X12800000Y11050000D02*
X12300000Y11550000D01*
X11800000Y10050000D02*
X12800000Y11050000D01*
X12300000Y12000000D02*
X12700000Y12400000D01*
X12700000Y13800000D02*
X12450000Y14050000D01*
X12700000Y12400000D02*
X12700000Y13800000D01*
X11800000Y9600000D02*
X11800000Y10050000D01*
X12450000Y14050000D02*
X12037500Y14050000D01*
X11250000Y9050000D02*
X11800000Y9600000D01*
X11250000Y8800000D02*
X11250000Y9050000D01*
X12300000Y11550000D02*
X12300000Y12000000D01*
%TO.N,Net-(D3-A)*%
X10915000Y2115000D02*
X11200000Y2400000D01*
X10025000Y2115000D02*
X10915000Y2115000D01*
X9000000Y8003678D02*
X9000000Y8650000D01*
X9500000Y1590000D02*
X10025000Y2115000D01*
X9000000Y8650000D02*
X9150000Y8800000D01*
X9300000Y1590000D02*
X9362500Y1590000D01*
X9362500Y1590000D02*
X10610000Y342500D01*
X11200000Y2400000D02*
X11200000Y4700000D01*
D46*
%TO.N,/BAT_ADC*%
X7900000Y7410000D02*
X7900000Y7700000D01*
D47*
X12037500Y12611399D02*
X12037500Y13050000D01*
D46*
X7900000Y7700000D02*
X7900000Y7990000D01*
D47*
X12037500Y13550000D02*
X12037500Y13050000D01*
X12025000Y12598899D02*
X12037500Y12611399D01*
%TO.N,/MOSI*%
X4400000Y13400000D02*
X4550000Y13550000D01*
X3775000Y9175000D02*
X4300000Y9700000D01*
X3775000Y9075000D02*
X3775000Y9175000D01*
X3525000Y4600000D02*
X3525000Y5400000D01*
X3525000Y5400000D02*
X3550000Y5425000D01*
X4112500Y12500000D02*
X4400000Y12787500D01*
X4550000Y13550000D02*
X5162500Y13550000D01*
X4400000Y12787500D02*
X4400000Y13400000D01*
%TO.N,/MISO*%
X4250000Y14050000D02*
X5162500Y14050000D01*
X4400000Y8727500D02*
X4747500Y9075000D01*
X2550000Y2575000D02*
X2550000Y3150000D01*
X2550000Y3150000D02*
X2800000Y3400000D01*
X4400000Y8300000D02*
X4400000Y8727500D01*
X3850000Y13650000D02*
X4250000Y14050000D01*
X3850000Y13262500D02*
X3850000Y13650000D01*
%TO.N,/SCK*%
X3912500Y12000000D02*
X3300000Y12000000D01*
X2200000Y4500000D02*
X2700000Y4500000D01*
X3050000Y4850000D02*
X3050000Y5425000D01*
X2972502Y9000000D02*
X2747500Y9225002D01*
X3000000Y9000000D02*
X2972502Y9000000D01*
X2700000Y4500000D02*
X3050000Y4850000D01*
X2525000Y9075000D02*
X2925000Y9075000D01*
X2925000Y9075000D02*
X3000000Y9000000D01*
%TO.N,/CS_FLASH*%
X2100000Y3400000D02*
X2100000Y2625000D01*
X2100000Y2625000D02*
X2050000Y2575000D01*
X4050000Y14550000D02*
X4000000Y14500000D01*
X5162500Y14550000D02*
X4050000Y14550000D01*
D48*
%TO.N,Net-(BT1-+)*%
X3762500Y900000D02*
X5270000Y900000D01*
X5270000Y900000D02*
X5900000Y1530000D01*
X3400000Y537500D02*
X3762500Y900000D01*
D47*
%TO.N,/CS_BARO*%
X6535000Y11675068D02*
X6535000Y10124932D01*
X6535000Y10124932D02*
X6300000Y9889932D01*
X6300000Y9889932D02*
X6300000Y9100000D01*
X6350000Y12362500D02*
X6350000Y11860068D01*
X6300000Y9100000D02*
X6275000Y9075000D01*
X5800000Y8600000D02*
X5800000Y7400000D01*
X6350000Y11860068D02*
X6535000Y11675068D01*
X5800000Y7400000D02*
X6275000Y6925000D01*
X6275000Y9075000D02*
X5800000Y8600000D01*
%TO.N,/CS_IMU*%
X5162500Y12172568D02*
X5162500Y13050000D01*
X4489932Y11500000D02*
X5162500Y12172568D01*
X4112500Y11500000D02*
X4489932Y11500000D01*
%TD*%
%TA.AperFunction,Conductor*%
%TO.N,GND*%
G36*
X1205203Y10757248D02*
G01*
X1211681Y10751216D01*
X1585886Y10377011D01*
X1674994Y10325564D01*
X1695652Y10313637D01*
X1694964Y10312446D01*
X1742666Y10274013D01*
X1764738Y10207721D01*
X1747465Y10140020D01*
X1728498Y10115602D01*
X1512013Y9899117D01*
X1512009Y9899111D01*
X1452701Y9796388D01*
X1452700Y9796383D01*
X1422000Y9681809D01*
X1422000Y8318191D01*
X1440424Y8249432D01*
X1440424Y8249431D01*
X1452699Y8203616D01*
X1468932Y8175501D01*
X1512011Y8100886D01*
X1512013Y8100884D01*
X1950698Y7662198D01*
X1984183Y7600875D01*
X1979199Y7531183D01*
X1976452Y7524432D01*
X1952415Y7469994D01*
X1952415Y7469992D01*
X1949500Y7444869D01*
X1949500Y6531901D01*
X1929815Y6464862D01*
X1913182Y6444220D01*
X1848976Y6380013D01*
X1819438Y6350475D01*
X1749525Y6280562D01*
X1701739Y6197794D01*
X1700089Y6194936D01*
X1695865Y6179173D01*
X1685521Y6140564D01*
X1674500Y6099438D01*
X1674500Y6027446D01*
X1661901Y5972987D01*
X1654036Y5956899D01*
X1634780Y5917509D01*
X1624500Y5846949D01*
X1624500Y5846945D01*
X1624500Y5846944D01*
X1624500Y5003050D01*
X1634779Y4932493D01*
X1690609Y4818292D01*
X1702369Y4749419D01*
X1693770Y4716379D01*
X1663671Y4643713D01*
X1663670Y4643709D01*
X1644750Y4500001D01*
X1644750Y4500000D01*
X1663670Y4356292D01*
X1663671Y4356288D01*
X1701939Y4263900D01*
X1709408Y4194431D01*
X1704694Y4179038D01*
X1704864Y4178991D01*
X1702415Y4169991D01*
X1699500Y4144869D01*
X1699500Y3855144D01*
X1699502Y3855125D01*
X1701045Y3841816D01*
X1689212Y3772956D01*
X1676247Y3752051D01*
X1619138Y3677625D01*
X1619138Y3677624D01*
X1563671Y3543713D01*
X1563670Y3543709D01*
X1550091Y3440565D01*
X1544750Y3400000D01*
X1563107Y3260564D01*
X1563670Y3256292D01*
X1563671Y3256288D01*
X1622249Y3114866D01*
X1619685Y3113805D01*
X1632958Y3059037D01*
X1631805Y3047092D01*
X1624501Y2996951D01*
X1624500Y2996946D01*
X1624500Y2153050D01*
X1634779Y2082494D01*
X1687989Y1973651D01*
X1773651Y1887989D01*
X1882488Y1834781D01*
X1882489Y1834781D01*
X1882491Y1834780D01*
X1953051Y1824500D01*
X2146948Y1824501D01*
X2146950Y1824501D01*
X2175172Y1828613D01*
X2217509Y1834780D01*
X2245539Y1848484D01*
X2314409Y1860244D01*
X2354459Y1848485D01*
X2382491Y1834780D01*
X2453051Y1824500D01*
X2646948Y1824501D01*
X2646950Y1824501D01*
X2675172Y1828613D01*
X2717509Y1834780D01*
X2745539Y1848484D01*
X2814409Y1860244D01*
X2854459Y1848485D01*
X2882491Y1834780D01*
X2953051Y1824500D01*
X3146948Y1824501D01*
X3146950Y1824501D01*
X3175172Y1828613D01*
X3217509Y1834780D01*
X3326347Y1887988D01*
X3412012Y1973653D01*
X3465220Y2082491D01*
X3475500Y2153051D01*
X3475499Y2996948D01*
X3465220Y3067509D01*
X3412012Y3176347D01*
X3412010Y3176349D01*
X3412010Y3176350D01*
X3379074Y3209286D01*
X3345589Y3270609D01*
X3343816Y3313153D01*
X3355250Y3400000D01*
X3355250Y3400001D01*
X3347441Y3459315D01*
X3358206Y3528351D01*
X3404586Y3580607D01*
X3470380Y3599501D01*
X3644856Y3599501D01*
X3644864Y3599501D01*
X3644879Y3599503D01*
X3644882Y3599503D01*
X3669987Y3602414D01*
X3669988Y3602415D01*
X3669991Y3602415D01*
X3772765Y3647794D01*
X3852206Y3727235D01*
X3897585Y3830009D01*
X3900500Y3855135D01*
X3900499Y4142974D01*
X3920183Y4210012D01*
X3926114Y4218448D01*
X4005861Y4322375D01*
X4061330Y4456291D01*
X4080250Y4600000D01*
X4061330Y4743709D01*
X4005861Y4877625D01*
X4005861Y4877626D01*
X4005859Y4877629D01*
X3996864Y4889352D01*
X3971671Y4954521D01*
X3972535Y4982705D01*
X3975500Y5003051D01*
X3975499Y5035427D01*
X3995182Y5102463D01*
X4047984Y5148219D01*
X4117143Y5158164D01*
X4163021Y5139345D01*
X4163627Y5140490D01*
X4171842Y5136148D01*
X4297173Y5092292D01*
X4297177Y5092292D01*
X4297181Y5092290D01*
X4312057Y5090895D01*
X4326930Y5089500D01*
X4485449Y5089500D01*
X4552488Y5069815D01*
X4598243Y5017011D01*
X4608187Y4947853D01*
X4591176Y4900710D01*
X4514668Y4775862D01*
X4421303Y4550458D01*
X4364348Y4313220D01*
X4345207Y4070000D01*
X4364348Y3826781D01*
X4421303Y3589543D01*
X4514668Y3364139D01*
X4638504Y3162058D01*
X5376212Y3899767D01*
X5387482Y3857708D01*
X5459890Y3732292D01*
X5562292Y3629890D01*
X5687708Y3557482D01*
X5729765Y3546213D01*
X5100370Y2916819D01*
X5039047Y2883334D01*
X5012690Y2880500D01*
X4805142Y2880500D01*
X4805119Y2880498D01*
X4780011Y2877586D01*
X4780008Y2877585D01*
X4677235Y2832207D01*
X4597794Y2752766D01*
X4552415Y2649994D01*
X4552415Y2649992D01*
X4549500Y2624869D01*
X4549500Y1824500D01*
X4529815Y1757461D01*
X4477011Y1711706D01*
X4425500Y1700500D01*
X3683654Y1700500D01*
X3529009Y1669739D01*
X3528997Y1669736D01*
X3486332Y1652064D01*
X3486333Y1652063D01*
X3383323Y1609396D01*
X3383313Y1609390D01*
X3363872Y1596399D01*
X3297195Y1575520D01*
X3294980Y1575500D01*
X3195730Y1575500D01*
X3165300Y1572647D01*
X3165298Y1572647D01*
X3037119Y1527794D01*
X3037117Y1527793D01*
X2927850Y1447150D01*
X2847207Y1337883D01*
X2847206Y1337881D01*
X2802353Y1209702D01*
X2802353Y1209700D01*
X2799500Y1179270D01*
X2799500Y1117266D01*
X2779815Y1050227D01*
X2778602Y1048375D01*
X2690609Y916686D01*
X2690602Y916673D01*
X2630264Y771002D01*
X2630261Y770990D01*
X2599500Y616347D01*
X2599500Y458654D01*
X2630261Y304011D01*
X2630264Y303999D01*
X2690602Y158328D01*
X2690609Y158315D01*
X2778602Y26626D01*
X2799480Y-40051D01*
X2799500Y-42265D01*
X2799500Y-104269D01*
X2802353Y-134699D01*
X2802353Y-134701D01*
X2839115Y-239757D01*
X2847207Y-262882D01*
X2927850Y-372150D01*
X3037118Y-452793D01*
X3079845Y-467744D01*
X3165299Y-497646D01*
X3195730Y-500500D01*
X3195734Y-500500D01*
X3604265Y-500500D01*
X3604266Y-500500D01*
X3624532Y-498599D01*
X3693116Y-511936D01*
X3743603Y-560237D01*
X3759962Y-628164D01*
X3753158Y-663000D01*
X3752354Y-665298D01*
X3752353Y-665300D01*
X3749500Y-695730D01*
X3749500Y-757734D01*
X3729815Y-824773D01*
X3728602Y-826625D01*
X3640609Y-958314D01*
X3640602Y-958327D01*
X3580264Y-1103998D01*
X3580261Y-1104010D01*
X3549500Y-1258653D01*
X3549500Y-6099391D01*
X3529815Y-6166430D01*
X3477011Y-6212185D01*
X3445910Y-6221700D01*
X3350016Y-6237702D01*
X3130504Y-6313061D01*
X3130495Y-6313064D01*
X2926371Y-6423531D01*
X2926365Y-6423535D01*
X2743222Y-6566081D01*
X2743219Y-6566084D01*
X2743216Y-6566086D01*
X2743216Y-6566087D01*
X2729226Y-6581284D01*
X2586016Y-6736852D01*
X2459075Y-6931151D01*
X2365842Y-7143699D01*
X2308866Y-7368691D01*
X2308864Y-7368702D01*
X2289700Y-7599993D01*
X2289700Y-7600006D01*
X2308864Y-7831297D01*
X2308866Y-7831308D01*
X2365842Y-8056300D01*
X2459075Y-8268848D01*
X2586016Y-8463147D01*
X2586019Y-8463151D01*
X2586021Y-8463153D01*
X2743216Y-8633913D01*
X2743219Y-8633915D01*
X2743222Y-8633918D01*
X2928527Y-8778147D01*
X2969340Y-8834857D01*
X2973015Y-8904630D01*
X2938383Y-8965313D01*
X2876442Y-8997640D01*
X2852365Y-9000000D01*
X2001527Y-9000000D01*
X1998490Y-8999963D01*
X1912420Y-8997854D01*
X1891266Y-8995508D01*
X1720993Y-8961639D01*
X1697731Y-8954583D01*
X1538745Y-8888728D01*
X1517307Y-8877269D01*
X1374224Y-8781664D01*
X1355434Y-8766243D01*
X1233756Y-8644565D01*
X1218335Y-8625775D01*
X1122730Y-8482692D01*
X1111271Y-8461254D01*
X1045413Y-8302261D01*
X1038362Y-8279013D01*
X1004490Y-8108728D01*
X1002145Y-8087583D01*
X1000037Y-8001509D01*
X1000000Y-7998473D01*
X1000000Y10663535D01*
X1019685Y10730574D01*
X1072489Y10776329D01*
X1141647Y10786273D01*
X1205203Y10757248D01*
G37*
%TD.AperFunction*%
%TA.AperFunction,Conductor*%
G36*
X13001509Y26999963D02*
G01*
X13007232Y26999823D01*
X13087583Y26997855D01*
X13108728Y26995510D01*
X13279013Y26961638D01*
X13302261Y26954587D01*
X13461257Y26888728D01*
X13482692Y26877270D01*
X13625775Y26781665D01*
X13644565Y26766244D01*
X13766243Y26644566D01*
X13781664Y26625776D01*
X13877269Y26482693D01*
X13888728Y26461255D01*
X13954583Y26302269D01*
X13961639Y26279007D01*
X13995508Y26108734D01*
X13997854Y26087581D01*
X13999963Y26001512D01*
X14000000Y25998474D01*
X14000000Y-7998473D01*
X13999963Y-8001511D01*
X13997854Y-8087580D01*
X13995508Y-8108733D01*
X13961639Y-8279006D01*
X13954583Y-8302268D01*
X13888728Y-8461254D01*
X13877269Y-8482692D01*
X13781664Y-8625775D01*
X13766243Y-8644565D01*
X13644565Y-8766243D01*
X13625775Y-8781664D01*
X13482692Y-8877269D01*
X13461254Y-8888728D01*
X13302268Y-8954583D01*
X13279006Y-8961639D01*
X13108733Y-8995508D01*
X13087580Y-8997854D01*
X13004250Y-8999895D01*
X13001509Y-8999963D01*
X12998473Y-9000000D01*
X12801327Y-9000000D01*
X12734288Y-8980315D01*
X12688533Y-8927511D01*
X12678589Y-8858353D01*
X12687893Y-8825913D01*
X12712584Y-8769993D01*
X12712585Y-8769991D01*
X12715500Y-8744865D01*
X12715499Y-6455136D01*
X12715497Y-6455117D01*
X12712586Y-6430012D01*
X12712585Y-6430010D01*
X12712585Y-6430009D01*
X12667206Y-6327235D01*
X12587765Y-6247794D01*
X12539539Y-6226500D01*
X12484992Y-6202415D01*
X12459868Y-6199500D01*
X12459865Y-6199500D01*
X12243499Y-6199500D01*
X12176460Y-6179815D01*
X12130705Y-6127011D01*
X12120761Y-6057853D01*
X12121882Y-6051308D01*
X12126500Y-6028092D01*
X12126500Y-4956940D01*
X12146185Y-4889901D01*
X12162819Y-4869259D01*
X12829284Y-4202794D01*
X12829289Y-4202789D01*
X12834613Y-4194821D01*
X12916894Y-4071679D01*
X12920195Y-4063711D01*
X12977235Y-3926001D01*
X12977237Y-3925997D01*
X13008000Y-3771342D01*
X13008000Y-3284214D01*
X13026572Y-3218937D01*
X13079870Y-3132859D01*
X13100500Y-3022500D01*
X13100500Y-2262500D01*
X13099197Y-2234312D01*
X13068472Y-2126327D01*
X13068471Y-2126326D01*
X13068471Y-2126325D01*
X13033045Y-2079413D01*
X13008354Y-2014051D01*
X13008000Y-2004687D01*
X13008000Y-787502D01*
X13006697Y-759316D01*
X13006697Y-759312D01*
X12975972Y-651327D01*
X12908314Y-561733D01*
X12908313Y-561732D01*
X12812860Y-502630D01*
X12812861Y-502630D01*
X12757679Y-492315D01*
X12702500Y-482000D01*
X12702498Y-482000D01*
X12505801Y-482000D01*
X12438762Y-462315D01*
X12393007Y-409511D01*
X12383063Y-340353D01*
X12392365Y-307917D01*
X12430085Y-222491D01*
X12433000Y-197365D01*
X12432999Y850602D01*
X12452683Y917640D01*
X12469313Y938278D01*
X12700474Y1169437D01*
X12703293Y1174319D01*
X12706150Y1179266D01*
X12749908Y1255059D01*
X12749910Y1255062D01*
X12755622Y1276382D01*
X12763426Y1305501D01*
X12769462Y1328032D01*
X12775500Y1350564D01*
X12775500Y1449436D01*
X12775500Y2291734D01*
X12795185Y2358773D01*
X12825864Y2391503D01*
X12896423Y2443577D01*
X12974381Y2549206D01*
X12996061Y2611164D01*
X13017741Y2673119D01*
X13017741Y2673121D01*
X13020500Y2702543D01*
X13020499Y2928102D01*
X13040183Y2995141D01*
X13056809Y3015774D01*
X13300474Y3259437D01*
X13301125Y3260564D01*
X13349910Y3345062D01*
X13375500Y3440565D01*
X13375500Y8049435D01*
X13375324Y8050090D01*
X13353402Y8131904D01*
X13349910Y8144938D01*
X13300475Y8230562D01*
X13230562Y8300475D01*
X13168321Y8362716D01*
X13134836Y8424039D01*
X13139820Y8493731D01*
X13156229Y8524027D01*
X13202793Y8587118D01*
X13225219Y8651210D01*
X13247646Y8715299D01*
X13247646Y8715301D01*
X13250500Y8745731D01*
X13250500Y9154270D01*
X13247646Y9184700D01*
X13247646Y9184702D01*
X13202793Y9312881D01*
X13202792Y9312883D01*
X13122150Y9422150D01*
X13023459Y9494987D01*
X12981210Y9550633D01*
X12975751Y9620290D01*
X13008819Y9681839D01*
X13024560Y9694001D01*
X13024116Y9694579D01*
X13030557Y9699523D01*
X13030562Y9699525D01*
X13100475Y9769438D01*
X13475474Y10144437D01*
X13475763Y10144937D01*
X13524910Y10230062D01*
X13543777Y10300475D01*
X13550500Y10325564D01*
X13550500Y10424436D01*
X13550500Y11168100D01*
X13570185Y11235139D01*
X13586817Y11255781D01*
X13600475Y11269437D01*
X13649911Y11355063D01*
X13675500Y11450564D01*
X13675500Y11549436D01*
X13675500Y14274434D01*
X13668777Y14299526D01*
X13649911Y14369936D01*
X13600475Y14455561D01*
X12796442Y15259594D01*
X12762957Y15320917D01*
X12765174Y15372766D01*
X12763831Y15372961D01*
X12765218Y15382489D01*
X12765220Y15382491D01*
X12775500Y15453051D01*
X12775499Y15646948D01*
X12765220Y15717509D01*
X12751516Y15745540D01*
X12739756Y15814409D01*
X12751515Y15854460D01*
X12765220Y15882491D01*
X12775500Y15953051D01*
X12775499Y16146948D01*
X12765220Y16217509D01*
X12751516Y16245540D01*
X12739756Y16314409D01*
X12751515Y16354460D01*
X12765220Y16382491D01*
X12775500Y16453051D01*
X12775499Y16646948D01*
X12765220Y16717509D01*
X12751516Y16745540D01*
X12739756Y16814409D01*
X12751515Y16854460D01*
X12765220Y16882491D01*
X12775500Y16953051D01*
X12775499Y17146948D01*
X12765220Y17217509D01*
X12751516Y17245540D01*
X12739756Y17314409D01*
X12751515Y17354460D01*
X12765220Y17382491D01*
X12775500Y17453051D01*
X12775499Y17559543D01*
X12795183Y17626581D01*
X12837498Y17666928D01*
X12876614Y17689511D01*
X13160490Y17973386D01*
X13219799Y18076113D01*
X13232764Y18124501D01*
X13250500Y18190691D01*
X13250500Y19355798D01*
X13251561Y19371987D01*
X13255250Y19400000D01*
X13236330Y19543709D01*
X13180861Y19677625D01*
X13092621Y19792621D01*
X12977625Y19880861D01*
X12977624Y19880862D01*
X12977622Y19880863D01*
X12843712Y19936329D01*
X12843710Y19936330D01*
X12843709Y19936330D01*
X12726099Y19951814D01*
X12700001Y19955250D01*
X12699997Y19955250D01*
X12673896Y19951814D01*
X12604861Y19962580D01*
X12570031Y19987072D01*
X12369285Y20187819D01*
X12335800Y20249142D01*
X12340784Y20318834D01*
X12382656Y20374767D01*
X12448120Y20399184D01*
X12456966Y20399500D01*
X12758493Y20399500D01*
X12858121Y20415280D01*
X12858121Y20415281D01*
X12858126Y20415281D01*
X12978220Y20476472D01*
X13073528Y20571780D01*
X13134719Y20691874D01*
X13137275Y20708010D01*
X13150500Y20791507D01*
X13150500Y21158494D01*
X13134720Y21258122D01*
X13134719Y21258124D01*
X13134719Y21258126D01*
X13073528Y21378220D01*
X13073526Y21378222D01*
X13073523Y21378226D01*
X12978225Y21473524D01*
X12978221Y21473527D01*
X12978220Y21473528D01*
X12858126Y21534719D01*
X12858124Y21534720D01*
X12858121Y21534721D01*
X12758493Y21550500D01*
X12758488Y21550500D01*
X12441512Y21550500D01*
X12441507Y21550500D01*
X12341876Y21534721D01*
X12256294Y21491114D01*
X12187625Y21478218D01*
X12143706Y21491114D01*
X12058123Y21534721D01*
X11958493Y21550500D01*
X11958488Y21550500D01*
X11641512Y21550500D01*
X11641508Y21550500D01*
X11617883Y21546759D01*
X11548590Y21555716D01*
X11495139Y21600714D01*
X11474502Y21667467D01*
X11493229Y21734780D01*
X11510800Y21756906D01*
X11645474Y21891579D01*
X11645494Y21891613D01*
X11694910Y21977204D01*
X11719562Y22069206D01*
X11719565Y22069206D01*
X11719565Y22069220D01*
X11720500Y22072706D01*
X11720500Y22171578D01*
X11720500Y22925500D01*
X11740185Y22992539D01*
X11792989Y23038294D01*
X11844500Y23049500D01*
X11958493Y23049500D01*
X12058121Y23065280D01*
X12058121Y23065281D01*
X12058126Y23065281D01*
X12143708Y23108888D01*
X12212374Y23121783D01*
X12256289Y23108889D01*
X12341874Y23065281D01*
X12341876Y23065281D01*
X12341878Y23065280D01*
X12441507Y23049500D01*
X12441512Y23049500D01*
X12758493Y23049500D01*
X12858121Y23065280D01*
X12858121Y23065281D01*
X12858126Y23065281D01*
X12978220Y23126472D01*
X13073528Y23221780D01*
X13134719Y23341874D01*
X13134720Y23341879D01*
X13150500Y23441507D01*
X13150500Y23808494D01*
X13134720Y23908122D01*
X13134719Y23908124D01*
X13134719Y23908126D01*
X13073528Y24028220D01*
X13073526Y24028222D01*
X13073523Y24028226D01*
X12978225Y24123524D01*
X12978221Y24123527D01*
X12978220Y24123528D01*
X12858126Y24184719D01*
X12858124Y24184720D01*
X12858121Y24184721D01*
X12758493Y24200500D01*
X12758488Y24200500D01*
X12441512Y24200500D01*
X12441507Y24200500D01*
X12341876Y24184721D01*
X12256294Y24141114D01*
X12187625Y24128218D01*
X12143706Y24141114D01*
X12058123Y24184721D01*
X11958493Y24200500D01*
X11958488Y24200500D01*
X11641512Y24200500D01*
X11641507Y24200500D01*
X11541878Y24184721D01*
X11421778Y24123527D01*
X11421774Y24123524D01*
X11326476Y24028226D01*
X11326471Y24028219D01*
X11297679Y23971712D01*
X11249704Y23920916D01*
X11181883Y23904122D01*
X11146241Y23910966D01*
X11126876Y23917742D01*
X11126878Y23917742D01*
X11094571Y23920771D01*
X11094672Y23921859D01*
X11032743Y23943259D01*
X10989526Y23998159D01*
X10982851Y24067709D01*
X10989263Y24089782D01*
X11040479Y24219654D01*
X11050500Y24303098D01*
X11050500Y24896902D01*
X11040479Y24980346D01*
X10988115Y25113132D01*
X10946838Y25167564D01*
X10901867Y25226868D01*
X10788134Y25313114D01*
X10788132Y25313115D01*
X10655346Y25365479D01*
X10655345Y25365480D01*
X10655343Y25365480D01*
X10571902Y25375500D01*
X10053098Y25375500D01*
X9969656Y25365480D01*
X9969655Y25365480D01*
X9836865Y25313114D01*
X9723132Y25226868D01*
X9636886Y25113135D01*
X9584520Y24980345D01*
X9584520Y24980344D01*
X9574500Y24896903D01*
X9574500Y24303098D01*
X9584520Y24219657D01*
X9584520Y24219656D01*
X9636886Y24086866D01*
X9723132Y23973133D01*
X9836865Y23886887D01*
X9836868Y23886885D01*
X9930992Y23849768D01*
X9986134Y23806863D01*
X10009327Y23740955D01*
X10009500Y23734414D01*
X10009500Y22875565D01*
X10035090Y22780062D01*
X10035091Y22780061D01*
X10035091Y22780060D01*
X10084526Y22694437D01*
X10143181Y22635782D01*
X10176666Y22574459D01*
X10179500Y22548101D01*
X10179500Y22261902D01*
X10159815Y22194863D01*
X10143182Y22174221D01*
X10024438Y22055475D01*
X10024437Y22055475D01*
X9992254Y22023292D01*
X9930931Y21989807D01*
X9863617Y21993932D01*
X9852823Y21997709D01*
X9852814Y21997711D01*
X9823070Y22000500D01*
X9823066Y22000500D01*
X9376934Y22000500D01*
X9376930Y22000500D01*
X9347912Y21997779D01*
X9279327Y22011118D01*
X9228842Y22059420D01*
X9212486Y22127348D01*
X9235450Y22193336D01*
X9236539Y22194836D01*
X9263852Y22231843D01*
X9290557Y22308164D01*
X9307708Y22357174D01*
X9307708Y22357177D01*
X9307710Y22357181D01*
X9310500Y22386934D01*
X9310500Y22773066D01*
X9307710Y22802819D01*
X9307708Y22802823D01*
X9307708Y22802827D01*
X9277204Y22889997D01*
X9263852Y22928157D01*
X9184999Y23034999D01*
X9078157Y23113852D01*
X9078155Y23113853D01*
X8952826Y23157709D01*
X8952814Y23157711D01*
X8923070Y23160500D01*
X8923066Y23160500D01*
X8476934Y23160500D01*
X8476930Y23160500D01*
X8447185Y23157711D01*
X8447173Y23157709D01*
X8313072Y23110783D01*
X8312245Y23113146D01*
X8257190Y23101964D01*
X8194112Y23125743D01*
X8184201Y23133057D01*
X8184203Y23133057D01*
X8056733Y23177661D01*
X8056724Y23177663D01*
X8026467Y23180500D01*
X7573539Y23180500D01*
X7543275Y23177663D01*
X7543266Y23177661D01*
X7415800Y23133058D01*
X7307138Y23052862D01*
X7226942Y22944200D01*
X7188222Y22833545D01*
X7147500Y22776769D01*
X7082548Y22751022D01*
X7071181Y22750500D01*
X6904500Y22750500D01*
X6837461Y22770185D01*
X6791706Y22822989D01*
X6780500Y22874500D01*
X6780499Y23276461D01*
X6777662Y23306725D01*
X6777662Y23306729D01*
X6733057Y23434201D01*
X6652862Y23542862D01*
X6544201Y23623057D01*
X6484697Y23643879D01*
X6416733Y23667661D01*
X6416724Y23667663D01*
X6386467Y23670500D01*
X5983539Y23670500D01*
X5953275Y23667663D01*
X5953266Y23667661D01*
X5825800Y23623058D01*
X5773633Y23584557D01*
X5708004Y23560587D01*
X5639834Y23575903D01*
X5626367Y23584557D01*
X5574200Y23623058D01*
X5446733Y23667661D01*
X5446724Y23667663D01*
X5416467Y23670500D01*
X5416463Y23670500D01*
X5224500Y23670500D01*
X5157461Y23690185D01*
X5111706Y23742989D01*
X5100500Y23794500D01*
X5100500Y25981408D01*
X11873500Y25981408D01*
X11873500Y25818593D01*
X11905259Y25658927D01*
X11905262Y25658918D01*
X11967562Y25508510D01*
X11967563Y25508508D01*
X12058015Y25373138D01*
X12058018Y25373134D01*
X12173133Y25258019D01*
X12173137Y25258016D01*
X12308505Y25167565D01*
X12308506Y25167565D01*
X12308507Y25167564D01*
X12308509Y25167563D01*
X12408781Y25126030D01*
X12458919Y25105262D01*
X12458921Y25105262D01*
X12458926Y25105260D01*
X12618592Y25073501D01*
X12618595Y25073500D01*
X12618597Y25073500D01*
X12781405Y25073500D01*
X12781406Y25073501D01*
X12834629Y25084088D01*
X12941073Y25105260D01*
X12941076Y25105262D01*
X12941081Y25105262D01*
X13091495Y25167565D01*
X13226863Y25258016D01*
X13341984Y25373137D01*
X13432435Y25508505D01*
X13494738Y25658919D01*
X13526500Y25818597D01*
X13526500Y25981403D01*
X13526500Y25981406D01*
X13526499Y25981408D01*
X13494740Y26141074D01*
X13494737Y26141083D01*
X13432437Y26291491D01*
X13432436Y26291493D01*
X13425242Y26302259D01*
X13341984Y26426863D01*
X13341981Y26426867D01*
X13226866Y26541982D01*
X13226862Y26541985D01*
X13091492Y26632437D01*
X13091490Y26632438D01*
X12941082Y26694738D01*
X12941073Y26694741D01*
X12781406Y26726500D01*
X12781403Y26726500D01*
X12618597Y26726500D01*
X12618594Y26726500D01*
X12458926Y26694741D01*
X12458917Y26694738D01*
X12308509Y26632438D01*
X12308507Y26632437D01*
X12173137Y26541985D01*
X12173133Y26541982D01*
X12058018Y26426867D01*
X12058015Y26426863D01*
X11967563Y26291493D01*
X11967562Y26291491D01*
X11905262Y26141083D01*
X11905259Y26141074D01*
X11873500Y25981408D01*
X5100500Y25981408D01*
X5100500Y25994957D01*
X5100499Y25994961D01*
X5085369Y26129250D01*
X5085368Y26129255D01*
X5081229Y26141083D01*
X5025789Y26299522D01*
X4929816Y26452262D01*
X4802262Y26579816D01*
X4649523Y26675789D01*
X4479254Y26735369D01*
X4479249Y26735370D01*
X4344960Y26750500D01*
X4344954Y26750500D01*
X3255046Y26750500D01*
X3255039Y26750500D01*
X3120750Y26735370D01*
X3120745Y26735369D01*
X2950476Y26675789D01*
X2797737Y26579816D01*
X2670184Y26452263D01*
X2574211Y26299524D01*
X2514631Y26129255D01*
X2514630Y26129250D01*
X2499500Y25994961D01*
X2499500Y23405040D01*
X2514630Y23270751D01*
X2514631Y23270746D01*
X2574211Y23100477D01*
X2670184Y22947738D01*
X2797738Y22820184D01*
X2825381Y22802815D01*
X2907808Y22751022D01*
X2950478Y22724211D01*
X3117410Y22665799D01*
X3120745Y22664632D01*
X3120750Y22664631D01*
X3211246Y22654435D01*
X3255040Y22649501D01*
X3255043Y22649500D01*
X3255046Y22649500D01*
X3296350Y22649500D01*
X3363389Y22629815D01*
X3409144Y22577011D01*
X3419088Y22507853D01*
X3413391Y22484544D01*
X3402291Y22452824D01*
X3402289Y22452815D01*
X3399500Y22423071D01*
X3399500Y21976930D01*
X3402289Y21947186D01*
X3402291Y21947174D01*
X3446147Y21821843D01*
X3446148Y21821842D01*
X3509175Y21736443D01*
X3533146Y21670814D01*
X3526446Y21621855D01*
X3502291Y21552827D01*
X3502289Y21552815D01*
X3499500Y21523071D01*
X3499500Y21076929D01*
X3502393Y21046076D01*
X3489054Y20977492D01*
X3440752Y20927007D01*
X3378935Y20910500D01*
X3286930Y20910500D01*
X3257185Y20907711D01*
X3257173Y20907709D01*
X3131844Y20863853D01*
X3025001Y20784999D01*
X2946147Y20678156D01*
X2902291Y20552827D01*
X2902289Y20552815D01*
X2899500Y20523071D01*
X2899500Y20174500D01*
X2879815Y20107461D01*
X2827011Y20061706D01*
X2775500Y20050500D01*
X2215691Y20050500D01*
X2126547Y20026614D01*
X2126546Y20026614D01*
X2101114Y20019801D01*
X1998386Y19960489D01*
X1998383Y19960487D01*
X1379513Y19341617D01*
X1379509Y19341611D01*
X1320201Y19238888D01*
X1320200Y19238883D01*
X1289500Y19124309D01*
X1289500Y12802966D01*
X1269815Y12735927D01*
X1253181Y12715285D01*
X1211681Y12673785D01*
X1150358Y12640300D01*
X1080666Y12645284D01*
X1024733Y12687156D01*
X1000316Y12752620D01*
X1000000Y12761466D01*
X1000000Y25998474D01*
X1000037Y26001510D01*
X1002145Y26087579D01*
X1002146Y26087581D01*
X1002145Y26087585D01*
X1004490Y26108728D01*
X1038362Y26279017D01*
X1045412Y26302259D01*
X1111274Y26461262D01*
X1122726Y26482686D01*
X1218338Y26625781D01*
X1233751Y26644561D01*
X1355439Y26766249D01*
X1374219Y26781662D01*
X1517314Y26877274D01*
X1538738Y26888726D01*
X1697741Y26954588D01*
X1720983Y26961638D01*
X1891272Y26995510D01*
X1912415Y26997855D01*
X1993037Y26999830D01*
X1998491Y26999963D01*
X2001527Y27000000D01*
X12998473Y27000000D01*
X13001509Y26999963D01*
G37*
%TD.AperFunction*%
%TA.AperFunction,Conductor*%
G36*
X8660165Y4811D02*
G01*
X8673629Y-3842D01*
X8769206Y-74381D01*
X8800184Y-85221D01*
X8893118Y-117741D01*
X8900490Y-119351D01*
X8899936Y-121885D01*
X8953334Y-143149D01*
X8964542Y-153079D01*
X10155681Y-1344218D01*
X10189166Y-1405541D01*
X10192000Y-1431899D01*
X10192000Y-2000785D01*
X10173427Y-2066062D01*
X10120130Y-2152139D01*
X10120129Y-2152143D01*
X10105193Y-2232040D01*
X10073525Y-2294321D01*
X10070986Y-2296935D01*
X6204741Y-6163181D01*
X6143418Y-6196666D01*
X6124034Y-6198750D01*
X6124062Y-6199076D01*
X6118959Y-6199498D01*
X5890015Y-6237702D01*
X5670504Y-6313061D01*
X5670495Y-6313064D01*
X5466371Y-6423531D01*
X5466365Y-6423535D01*
X5350662Y-6513591D01*
X5285668Y-6539234D01*
X5217128Y-6525667D01*
X5166803Y-6477199D01*
X5150500Y-6415738D01*
X5150500Y-1258655D01*
X5149402Y-1253136D01*
X5155629Y-1183545D01*
X5183335Y-1141266D01*
X5837785Y-486819D01*
X5899108Y-453334D01*
X5925466Y-450500D01*
X6959308Y-450500D01*
X6959309Y-450500D01*
X7030580Y-431401D01*
X7049666Y-426288D01*
X7049667Y-426287D01*
X7049673Y-426286D01*
X7073887Y-419799D01*
X7176614Y-360489D01*
X7508920Y-28182D01*
X7570241Y5301D01*
X7639932Y317D01*
X7670227Y-16092D01*
X7749206Y-74381D01*
X7790511Y-88834D01*
X7873119Y-117741D01*
X7880796Y-118460D01*
X7902543Y-120500D01*
X8277456Y-120499D01*
X8306879Y-117741D01*
X8430794Y-74381D01*
X8526367Y-3844D01*
X8591995Y20126D01*
X8660165Y4811D01*
G37*
%TD.AperFunction*%
%TA.AperFunction,Conductor*%
G36*
X11780703Y2627907D02*
G01*
X11816541Y2575149D01*
X11825618Y2549207D01*
X11825619Y2549206D01*
X11903577Y2443577D01*
X11974134Y2391504D01*
X12016384Y2335857D01*
X12024500Y2291734D01*
X12024500Y1606899D01*
X12004815Y1539860D01*
X11988181Y1519218D01*
X11699438Y1230475D01*
X11678665Y1209702D01*
X11629524Y1160562D01*
X11629520Y1160557D01*
X11620456Y1144857D01*
X11569888Y1096643D01*
X11563161Y1093427D01*
X11554735Y1089707D01*
X11475293Y1010264D01*
X11429915Y907494D01*
X11429915Y907492D01*
X11427000Y882369D01*
X11427000Y882363D01*
X11427001Y-58000D01*
X11407317Y-125039D01*
X11354513Y-170794D01*
X11303001Y-182000D01*
X11237000Y-182000D01*
X11169961Y-162315D01*
X11124206Y-109511D01*
X11113000Y-58000D01*
X11112999Y882357D01*
X11112999Y882363D01*
X11112999Y882364D01*
X11112997Y882383D01*
X11110086Y907488D01*
X11110085Y907490D01*
X11110085Y907491D01*
X11064706Y1010265D01*
X10985265Y1089706D01*
X10969554Y1096643D01*
X10882492Y1135085D01*
X10857368Y1138000D01*
X10396899Y1138000D01*
X10329860Y1157685D01*
X10309218Y1174319D01*
X10156818Y1326719D01*
X10123333Y1388042D01*
X10120499Y1414392D01*
X10120499Y1615501D01*
X10140184Y1682539D01*
X10192988Y1728294D01*
X10244499Y1739500D01*
X10964435Y1739500D01*
X10964436Y1739500D01*
X11012186Y1752295D01*
X11059938Y1765090D01*
X11145562Y1814525D01*
X11215475Y1884438D01*
X11215474Y1884438D01*
X11500475Y2169437D01*
X11525192Y2212250D01*
X11549910Y2255062D01*
X11567176Y2319500D01*
X11575500Y2350564D01*
X11575500Y2449436D01*
X11575500Y2534194D01*
X11595185Y2601233D01*
X11647989Y2646988D01*
X11717147Y2656932D01*
X11780703Y2627907D01*
G37*
%TD.AperFunction*%
%TA.AperFunction,Conductor*%
G36*
X7388628Y5753835D02*
G01*
X7398989Y5746962D01*
X7466823Y5696899D01*
X7509206Y5665619D01*
X7566597Y5645537D01*
X7633119Y5622259D01*
X7640796Y5621540D01*
X7662543Y5619500D01*
X7735500Y5619501D01*
X7802538Y5599817D01*
X7848294Y5547014D01*
X7859500Y5495501D01*
X7859500Y4667965D01*
X7839815Y4600926D01*
X7823181Y4580284D01*
X7779716Y4536819D01*
X7718393Y4503334D01*
X7692035Y4500500D01*
X7482243Y4500500D01*
X7415204Y4520185D01*
X7369449Y4572989D01*
X7367682Y4577048D01*
X7285333Y4775858D01*
X7285331Y4775861D01*
X7161494Y4977944D01*
X6423787Y4240235D01*
X6412518Y4282292D01*
X6340110Y4407708D01*
X6237708Y4510110D01*
X6112292Y4582518D01*
X6070233Y4593788D01*
X6820134Y5343689D01*
X6860358Y5370567D01*
X6977625Y5419139D01*
X7092621Y5507379D01*
X7180861Y5622375D01*
X7210795Y5694646D01*
X7254635Y5749047D01*
X7320929Y5771113D01*
X7388628Y5753835D01*
G37*
%TD.AperFunction*%
%TA.AperFunction,Conductor*%
G36*
X10386496Y7633337D02*
G01*
X10470062Y7585090D01*
X10470066Y7585089D01*
X10511870Y7573887D01*
X10511871Y7573887D01*
X10516059Y7572765D01*
X10565564Y7559500D01*
X10565565Y7559500D01*
X10729853Y7559500D01*
X10796892Y7539815D01*
X10817534Y7523181D01*
X11288181Y7052534D01*
X11321666Y6991211D01*
X11324500Y6964853D01*
X11324500Y5440566D01*
X11332492Y5410739D01*
X11330829Y5340889D01*
X11291666Y5283027D01*
X11227437Y5255523D01*
X11208128Y5255638D01*
X11208128Y5255250D01*
X11199999Y5255250D01*
X11056287Y5236330D01*
X11030768Y5225760D01*
X10961298Y5218294D01*
X10898820Y5249572D01*
X10895659Y5252622D01*
X10747806Y5400474D01*
X10747805Y5400475D01*
X10662181Y5449910D01*
X10614429Y5462705D01*
X10614427Y5462706D01*
X10614425Y5462707D01*
X10566679Y5475500D01*
X10566678Y5475500D01*
X9974500Y5475500D01*
X9907461Y5495185D01*
X9861706Y5547989D01*
X9850500Y5599500D01*
X9850500Y6579270D01*
X9847646Y6609699D01*
X9831152Y6656835D01*
X9827589Y6726613D01*
X9862317Y6787241D01*
X9907234Y6814830D01*
X9968157Y6836148D01*
X10074999Y6915001D01*
X10153852Y7021843D01*
X10180557Y7098164D01*
X10197708Y7147174D01*
X10197708Y7147177D01*
X10197710Y7147181D01*
X10199798Y7169444D01*
X10200500Y7176930D01*
X10200500Y7525949D01*
X10220185Y7592988D01*
X10272989Y7638743D01*
X10342147Y7648687D01*
X10386496Y7633337D01*
G37*
%TD.AperFunction*%
%TA.AperFunction,Conductor*%
G36*
X11985803Y8581269D02*
G01*
X12028379Y8544881D01*
X12066129Y8493731D01*
X12077851Y8477849D01*
X12183224Y8400081D01*
X12225475Y8344434D01*
X12229368Y8332397D01*
X12230488Y8328216D01*
X12230487Y8328216D01*
X12250089Y8255064D01*
X12250089Y8255063D01*
X12261399Y8235474D01*
X12299525Y8169438D01*
X12299526Y8169437D01*
X12299527Y8169436D01*
X12588181Y7880782D01*
X12621666Y7819459D01*
X12624500Y7793101D01*
X12624500Y5484500D01*
X12604815Y5417461D01*
X12552011Y5371706D01*
X12500500Y5360500D01*
X12411899Y5360500D01*
X12344860Y5380185D01*
X12324218Y5396819D01*
X12111819Y5609218D01*
X12078334Y5670541D01*
X12075500Y5696899D01*
X12075500Y7221186D01*
X12075499Y7221190D01*
X12071926Y7234527D01*
X12049912Y7316687D01*
X12049911Y7316688D01*
X12049911Y7316689D01*
X12000475Y7402315D01*
X11364969Y8037820D01*
X11331485Y8099142D01*
X11336469Y8168833D01*
X11378340Y8224767D01*
X11443805Y8249184D01*
X11452651Y8249500D01*
X11454270Y8249500D01*
X11484699Y8252354D01*
X11484701Y8252354D01*
X11563181Y8279816D01*
X11612882Y8297207D01*
X11722150Y8377850D01*
X11802793Y8487118D01*
X11811570Y8512203D01*
X11852288Y8568975D01*
X11917241Y8594724D01*
X11985803Y8581269D01*
G37*
%TD.AperFunction*%
%TA.AperFunction,Conductor*%
G36*
X5367539Y8279816D02*
G01*
X5413294Y8227012D01*
X5424500Y8175501D01*
X5424500Y7350565D01*
X5433578Y7316687D01*
X5450091Y7255059D01*
X5497243Y7173390D01*
X5499392Y7169668D01*
X5499526Y7169437D01*
X5499528Y7169435D01*
X5663181Y7005782D01*
X5696666Y6944459D01*
X5699500Y6918101D01*
X5699500Y6405144D01*
X5699502Y6405118D01*
X5702413Y6380013D01*
X5702415Y6380009D01*
X5747793Y6277236D01*
X5747794Y6277235D01*
X5827235Y6197794D01*
X5930009Y6152415D01*
X5955135Y6149500D01*
X6036203Y6149501D01*
X6103240Y6129817D01*
X6148996Y6077014D01*
X6159141Y6009316D01*
X6144750Y5900003D01*
X6144750Y5899998D01*
X6163936Y5754265D01*
X6153170Y5685230D01*
X6106790Y5632974D01*
X6039521Y5614089D01*
X6031268Y5614462D01*
X5899999Y5624793D01*
X5656780Y5605652D01*
X5419542Y5548697D01*
X5271953Y5487563D01*
X5202483Y5480094D01*
X5140004Y5511369D01*
X5104352Y5571458D01*
X5100500Y5602124D01*
X5100500Y5923071D01*
X5097710Y5952815D01*
X5097710Y5952819D01*
X5097708Y5952823D01*
X5097708Y5952827D01*
X5053852Y6078156D01*
X5053852Y6078157D01*
X4974999Y6184999D01*
X4974996Y6185001D01*
X4974994Y6185004D01*
X4950865Y6202812D01*
X4908615Y6258460D01*
X4900500Y6302581D01*
X4900500Y7509307D01*
X4900500Y7509309D01*
X4869799Y7623886D01*
X4837438Y7679937D01*
X4810489Y7726614D01*
X4798790Y7738313D01*
X4765305Y7799636D01*
X4770289Y7869328D01*
X4788095Y7901480D01*
X4840239Y7969436D01*
X4880861Y8022375D01*
X4936330Y8156291D01*
X4940990Y8191687D01*
X4969257Y8255583D01*
X5027582Y8294054D01*
X5063929Y8299501D01*
X5300500Y8299501D01*
X5367539Y8279816D01*
G37*
%TD.AperFunction*%
%TA.AperFunction,Conductor*%
G36*
X3942539Y7229815D02*
G01*
X3988294Y7177011D01*
X3999500Y7125500D01*
X3999500Y6226008D01*
X3979815Y6158969D01*
X3927011Y6113214D01*
X3857853Y6103270D01*
X3821040Y6114607D01*
X3717510Y6165220D01*
X3707429Y6166689D01*
X3646949Y6175500D01*
X3646943Y6175500D01*
X3453049Y6175500D01*
X3382492Y6165221D01*
X3382491Y6165221D01*
X3354457Y6151516D01*
X3285584Y6139759D01*
X3245543Y6151516D01*
X3217511Y6165219D01*
X3217509Y6165220D01*
X3217507Y6165221D01*
X3217503Y6165222D01*
X3177190Y6171095D01*
X3113689Y6200239D01*
X3076025Y6259089D01*
X3076157Y6328958D01*
X3081629Y6343874D01*
X3097585Y6380009D01*
X3100500Y6405135D01*
X3100499Y7125501D01*
X3120183Y7192539D01*
X3172987Y7238294D01*
X3224499Y7249500D01*
X3240691Y7249500D01*
X3875500Y7249500D01*
X3942539Y7229815D01*
G37*
%TD.AperFunction*%
%TA.AperFunction,Conductor*%
G36*
X8032539Y10279815D02*
G01*
X8078294Y10227011D01*
X8089500Y10175500D01*
X8089500Y8684500D01*
X8069815Y8617461D01*
X8017011Y8571706D01*
X7965500Y8560500D01*
X7849500Y8560500D01*
X7782461Y8580185D01*
X7736706Y8632989D01*
X7725500Y8684500D01*
X7725500Y10175500D01*
X7745185Y10242539D01*
X7797989Y10288294D01*
X7849500Y10299500D01*
X7965500Y10299500D01*
X8032539Y10279815D01*
G37*
%TD.AperFunction*%
%TA.AperFunction,Conductor*%
G36*
X11480701Y12440152D02*
G01*
X11514060Y12393891D01*
X11541309Y12328106D01*
X11544139Y12321274D01*
X11632379Y12206278D01*
X11747375Y12118038D01*
X11847954Y12076378D01*
X11902355Y12032539D01*
X11924421Y11966246D01*
X11924500Y11961818D01*
X11924500Y11500563D01*
X11935234Y11460501D01*
X11950087Y11405068D01*
X11953199Y11397558D01*
X11951602Y11396897D01*
X11965754Y11338565D01*
X11958936Y11303511D01*
X11952354Y11284702D01*
X11952353Y11284695D01*
X11949500Y11254270D01*
X11949500Y10845731D01*
X11952353Y10815300D01*
X11952575Y10814286D01*
X11952520Y10813518D01*
X11953058Y10807788D01*
X11952109Y10807700D01*
X11947646Y10744591D01*
X11919111Y10700150D01*
X11569438Y10350475D01*
X11499527Y10280565D01*
X11499525Y10280563D01*
X11499525Y10280562D01*
X11470369Y10230062D01*
X11450090Y10194938D01*
X11450090Y10194937D01*
X11424594Y10099787D01*
X11424500Y10099444D01*
X11424500Y9806899D01*
X11404815Y9739860D01*
X11388181Y9719218D01*
X11255782Y9586819D01*
X11194459Y9553334D01*
X11168101Y9550500D01*
X11045730Y9550500D01*
X11015300Y9547647D01*
X11015298Y9547647D01*
X10887119Y9502794D01*
X10887117Y9502793D01*
X10777850Y9422150D01*
X10697207Y9312883D01*
X10656807Y9197429D01*
X10616085Y9140653D01*
X10551132Y9114907D01*
X10482570Y9128364D01*
X10452088Y9150702D01*
X9602315Y10000474D01*
X9602314Y10000475D01*
X9516690Y10049910D01*
X9468938Y10062705D01*
X9468936Y10062706D01*
X9468934Y10062707D01*
X9421188Y10075500D01*
X9421187Y10075500D01*
X9264500Y10075500D01*
X9197461Y10095185D01*
X9151706Y10147989D01*
X9140500Y10199500D01*
X9140500Y10330327D01*
X9160185Y10397366D01*
X9212989Y10443121D01*
X9282147Y10453065D01*
X9326494Y10437717D01*
X9426113Y10380201D01*
X9438013Y10377013D01*
X9438017Y10377010D01*
X9438018Y10377011D01*
X9459715Y10371198D01*
X9540691Y10349500D01*
X9955794Y10349500D01*
X9971980Y10348439D01*
X9999999Y10344750D01*
X10000000Y10344750D01*
X10000001Y10344750D01*
X10014977Y10346722D01*
X10143709Y10363670D01*
X10277625Y10419139D01*
X10317951Y10450084D01*
X10361344Y10471482D01*
X10393887Y10480201D01*
X10496614Y10539511D01*
X10520284Y10563181D01*
X10581607Y10596666D01*
X10607965Y10599500D01*
X10923070Y10599500D01*
X10936289Y10600740D01*
X10952819Y10602290D01*
X10952823Y10602292D01*
X10952826Y10602292D01*
X11016185Y10624463D01*
X11078157Y10646148D01*
X11184999Y10725001D01*
X11263852Y10831843D01*
X11307710Y10957181D01*
X11310500Y10986934D01*
X11310500Y11373066D01*
X11307710Y11402819D01*
X11307708Y11402823D01*
X11307708Y11402827D01*
X11273507Y11500564D01*
X11263852Y11528157D01*
X11200959Y11613374D01*
X11176988Y11679003D01*
X11192304Y11747174D01*
X11207444Y11767256D01*
X11212011Y11773652D01*
X11212012Y11773653D01*
X11265220Y11882491D01*
X11275500Y11953051D01*
X11275499Y12346441D01*
X11295183Y12413478D01*
X11347987Y12459233D01*
X11417146Y12469177D01*
X11480701Y12440152D01*
G37*
%TD.AperFunction*%
%TA.AperFunction,Conductor*%
G36*
X5640938Y10839467D02*
G01*
X5747181Y10802290D01*
X5762057Y10800895D01*
X5776930Y10799500D01*
X5776934Y10799500D01*
X6035500Y10799500D01*
X6102539Y10779815D01*
X6148294Y10727011D01*
X6159500Y10675500D01*
X6159500Y10331831D01*
X6139815Y10264792D01*
X6123181Y10244150D01*
X5999526Y10120496D01*
X5950091Y10034873D01*
X5950088Y10034866D01*
X5945954Y10019439D01*
X5945955Y10019438D01*
X5925862Y9944449D01*
X5925859Y9944437D01*
X5924500Y9939369D01*
X5924500Y9925951D01*
X5904815Y9858912D01*
X5852011Y9813157D01*
X5850586Y9812517D01*
X5827240Y9802210D01*
X5827232Y9802204D01*
X5739669Y9714640D01*
X5737251Y9717058D01*
X5698171Y9685158D01*
X5628750Y9677253D01*
X5566076Y9708135D01*
X5560389Y9714699D01*
X5560331Y9714640D01*
X5472765Y9802206D01*
X5369992Y9847585D01*
X5344868Y9850500D01*
X5344865Y9850500D01*
X4916371Y9850500D01*
X4849332Y9870185D01*
X4803577Y9922989D01*
X4801809Y9927050D01*
X4796707Y9939367D01*
X4791420Y9952133D01*
X4783953Y10021603D01*
X4815229Y10084081D01*
X4818301Y10087265D01*
X4900474Y10169437D01*
X4912581Y10190407D01*
X4949910Y10255062D01*
X4973942Y10344750D01*
X4973943Y10344750D01*
X4973943Y10344756D01*
X4975500Y10350564D01*
X4975500Y10449436D01*
X4975500Y10573101D01*
X4995185Y10640140D01*
X5011819Y10660782D01*
X5114218Y10763181D01*
X5175541Y10796666D01*
X5201899Y10799500D01*
X5423070Y10799500D01*
X5436289Y10800740D01*
X5452819Y10802290D01*
X5559047Y10839462D01*
X5628823Y10843024D01*
X5640938Y10839467D01*
G37*
%TD.AperFunction*%
%TA.AperFunction,Conductor*%
G36*
X2703127Y12090077D02*
G01*
X2740158Y12030827D01*
X2743292Y12008006D01*
X2743689Y12008058D01*
X2763670Y11856292D01*
X2763671Y11856288D01*
X2819137Y11722378D01*
X2819138Y11722376D01*
X2819139Y11722375D01*
X2907379Y11607379D01*
X2919764Y11597876D01*
X2960967Y11541448D01*
X2965122Y11471702D01*
X2930910Y11410782D01*
X2869193Y11378029D01*
X2844279Y11375500D01*
X2680144Y11375500D01*
X2680119Y11375498D01*
X2655010Y11372586D01*
X2655001Y11372584D01*
X2650076Y11370409D01*
X2580797Y11361343D01*
X2549920Y11370410D01*
X2544999Y11372583D01*
X2544992Y11372585D01*
X2544991Y11372585D01*
X2519865Y11375500D01*
X2180143Y11375500D01*
X2180117Y11375498D01*
X2155012Y11372587D01*
X2155011Y11372586D01*
X2074585Y11337075D01*
X2005307Y11328004D01*
X1942122Y11357828D01*
X1905092Y11417078D01*
X1900500Y11450510D01*
X1900500Y11925500D01*
X1920185Y11992539D01*
X1972989Y12038294D01*
X2024500Y12049500D01*
X2146807Y12049500D01*
X2146809Y12049500D01*
X2224346Y12070276D01*
X2256439Y12074501D01*
X2469856Y12074501D01*
X2469864Y12074501D01*
X2469879Y12074503D01*
X2469882Y12074503D01*
X2494987Y12077414D01*
X2494987Y12077415D01*
X2494991Y12077415D01*
X2570665Y12110829D01*
X2639942Y12119900D01*
X2703127Y12090077D01*
G37*
%TD.AperFunction*%
%TA.AperFunction,Conductor*%
G36*
X11154459Y18523485D02*
G01*
X11182491Y18509780D01*
X11202095Y18506924D01*
X11265595Y18477783D01*
X11303261Y18418935D01*
X11306924Y18402095D01*
X11309779Y18382492D01*
X11323484Y18354457D01*
X11335241Y18285584D01*
X11323484Y18245543D01*
X11309781Y18217512D01*
X11309780Y18217509D01*
X11299500Y18146949D01*
X11299500Y18146945D01*
X11299500Y18146944D01*
X11299500Y17953050D01*
X11309779Y17882493D01*
X11309779Y17882492D01*
X11323484Y17854457D01*
X11335241Y17785584D01*
X11323484Y17745543D01*
X11315796Y17729816D01*
X11309780Y17717509D01*
X11299500Y17646949D01*
X11299500Y17646945D01*
X11299500Y17646944D01*
X11299500Y17453050D01*
X11309779Y17382493D01*
X11309779Y17382492D01*
X11323484Y17354457D01*
X11335241Y17285584D01*
X11323484Y17245543D01*
X11309781Y17217512D01*
X11309780Y17217509D01*
X11299500Y17146949D01*
X11299500Y17146945D01*
X11299500Y17146944D01*
X11299500Y16953050D01*
X11309779Y16882493D01*
X11309779Y16882492D01*
X11323484Y16854457D01*
X11335241Y16785584D01*
X11323484Y16745543D01*
X11309781Y16717512D01*
X11309780Y16717509D01*
X11299500Y16646949D01*
X11299500Y16646945D01*
X11299500Y16646944D01*
X11299500Y16453050D01*
X11309779Y16382493D01*
X11309779Y16382492D01*
X11323484Y16354457D01*
X11335241Y16285584D01*
X11323484Y16245543D01*
X11309781Y16217512D01*
X11309780Y16217509D01*
X11299500Y16146949D01*
X11299500Y16146945D01*
X11299500Y16146944D01*
X11299500Y15953050D01*
X11309779Y15882493D01*
X11309779Y15882492D01*
X11323484Y15854457D01*
X11335241Y15785584D01*
X11323484Y15745543D01*
X11309781Y15717512D01*
X11309780Y15717509D01*
X11299500Y15646949D01*
X11299500Y15646945D01*
X11299500Y15646944D01*
X11299500Y15453050D01*
X11309779Y15382493D01*
X11309779Y15382492D01*
X11323484Y15354457D01*
X11335241Y15285584D01*
X11323484Y15245543D01*
X11309781Y15217512D01*
X11309780Y15217509D01*
X11299500Y15146949D01*
X11299500Y15146945D01*
X11299500Y15146944D01*
X11299500Y14953050D01*
X11309779Y14882493D01*
X11309779Y14882492D01*
X11323484Y14854457D01*
X11335241Y14785584D01*
X11323484Y14745543D01*
X11309781Y14717512D01*
X11309780Y14717509D01*
X11299500Y14646949D01*
X11299500Y14646945D01*
X11299500Y14646944D01*
X11299500Y14453050D01*
X11309779Y14382493D01*
X11309779Y14382492D01*
X11323484Y14354457D01*
X11335241Y14285584D01*
X11323484Y14245543D01*
X11309781Y14217512D01*
X11309780Y14217509D01*
X11299500Y14146949D01*
X11299500Y14146945D01*
X11299500Y14146944D01*
X11299500Y13953050D01*
X11309779Y13882493D01*
X11309779Y13882492D01*
X11323484Y13854457D01*
X11335241Y13785584D01*
X11323484Y13745543D01*
X11309781Y13717512D01*
X11309780Y13717509D01*
X11299500Y13646949D01*
X11299500Y13646945D01*
X11299500Y13646944D01*
X11299500Y13453050D01*
X11309779Y13382493D01*
X11309779Y13382492D01*
X11323484Y13354457D01*
X11335241Y13285584D01*
X11323484Y13245543D01*
X11309781Y13217512D01*
X11309780Y13217510D01*
X11299498Y13146936D01*
X11299175Y13142468D01*
X11297037Y13142623D01*
X11279815Y13083969D01*
X11227011Y13038214D01*
X11157853Y13028270D01*
X11121040Y13039607D01*
X11017510Y13090220D01*
X11007429Y13091689D01*
X10946949Y13100500D01*
X10946943Y13100500D01*
X10753049Y13100500D01*
X10682492Y13090221D01*
X10682491Y13090221D01*
X10654457Y13076516D01*
X10585584Y13064759D01*
X10545543Y13076516D01*
X10517511Y13090219D01*
X10517509Y13090220D01*
X10517495Y13090222D01*
X10446949Y13100500D01*
X10446943Y13100500D01*
X10253049Y13100500D01*
X10182492Y13090221D01*
X10182491Y13090221D01*
X10154457Y13076516D01*
X10085584Y13064759D01*
X10045543Y13076516D01*
X10017511Y13090219D01*
X10017509Y13090220D01*
X10017495Y13090222D01*
X9946949Y13100500D01*
X9946943Y13100500D01*
X9753049Y13100500D01*
X9682492Y13090221D01*
X9682491Y13090221D01*
X9654457Y13076516D01*
X9585584Y13064759D01*
X9545543Y13076516D01*
X9517511Y13090219D01*
X9517509Y13090220D01*
X9517495Y13090222D01*
X9446949Y13100500D01*
X9446943Y13100500D01*
X9253049Y13100500D01*
X9182492Y13090221D01*
X9182491Y13090221D01*
X9154457Y13076516D01*
X9085584Y13064759D01*
X9045543Y13076516D01*
X9017511Y13090219D01*
X9017509Y13090220D01*
X9017495Y13090222D01*
X8946949Y13100500D01*
X8946943Y13100500D01*
X8753049Y13100500D01*
X8682492Y13090221D01*
X8682491Y13090221D01*
X8654457Y13076516D01*
X8585584Y13064759D01*
X8545543Y13076516D01*
X8517511Y13090219D01*
X8517509Y13090220D01*
X8517495Y13090222D01*
X8446949Y13100500D01*
X8446943Y13100500D01*
X8253049Y13100500D01*
X8182492Y13090221D01*
X8182491Y13090221D01*
X8154457Y13076516D01*
X8085584Y13064759D01*
X8045543Y13076516D01*
X8017511Y13090219D01*
X8017509Y13090220D01*
X8017495Y13090222D01*
X7946949Y13100500D01*
X7946943Y13100500D01*
X7753049Y13100500D01*
X7682492Y13090221D01*
X7682491Y13090221D01*
X7654457Y13076516D01*
X7585584Y13064759D01*
X7545543Y13076516D01*
X7517511Y13090219D01*
X7517509Y13090220D01*
X7517495Y13090222D01*
X7446949Y13100500D01*
X7446943Y13100500D01*
X7253049Y13100500D01*
X7182492Y13090221D01*
X7182491Y13090221D01*
X7154457Y13076516D01*
X7085584Y13064759D01*
X7045543Y13076516D01*
X7017511Y13090219D01*
X7017509Y13090220D01*
X7017495Y13090222D01*
X6946949Y13100500D01*
X6946943Y13100500D01*
X6753049Y13100500D01*
X6682492Y13090221D01*
X6682491Y13090221D01*
X6654457Y13076516D01*
X6585584Y13064759D01*
X6545543Y13076516D01*
X6517511Y13090219D01*
X6517509Y13090220D01*
X6517495Y13090222D01*
X6446949Y13100500D01*
X6446943Y13100500D01*
X6253049Y13100500D01*
X6182492Y13090221D01*
X6182491Y13090221D01*
X6154457Y13076516D01*
X6085584Y13064759D01*
X6045543Y13076516D01*
X6017511Y13090219D01*
X6017509Y13090220D01*
X6017507Y13090221D01*
X6017503Y13090222D01*
X5997903Y13093077D01*
X5934402Y13122221D01*
X5896738Y13181070D01*
X5893076Y13197906D01*
X5890220Y13217507D01*
X5890220Y13217509D01*
X5876516Y13245540D01*
X5864756Y13314409D01*
X5876515Y13354460D01*
X5890220Y13382491D01*
X5900500Y13453051D01*
X5900499Y13646948D01*
X5890220Y13717509D01*
X5876516Y13745540D01*
X5864756Y13814409D01*
X5876515Y13854460D01*
X5890220Y13882491D01*
X5900500Y13953051D01*
X5900499Y14146948D01*
X5890220Y14217509D01*
X5876516Y14245540D01*
X5864756Y14314409D01*
X5876515Y14354460D01*
X5890220Y14382491D01*
X5900500Y14453051D01*
X5900499Y14646948D01*
X5897796Y14665500D01*
X5894331Y14689285D01*
X5890220Y14717509D01*
X5876516Y14745540D01*
X5864756Y14814409D01*
X5876515Y14854460D01*
X5890220Y14882491D01*
X5900500Y14953051D01*
X5900499Y15146948D01*
X5890220Y15217509D01*
X5876516Y15245540D01*
X5864756Y15314409D01*
X5876515Y15354460D01*
X5890220Y15382491D01*
X5900500Y15453051D01*
X5900499Y15646948D01*
X5890220Y15717509D01*
X5876516Y15745540D01*
X5864756Y15814409D01*
X5876515Y15854460D01*
X5890220Y15882491D01*
X5900500Y15953051D01*
X5900499Y16146948D01*
X5890220Y16217509D01*
X5876516Y16245540D01*
X5864756Y16314409D01*
X5876515Y16354460D01*
X5890220Y16382491D01*
X5900500Y16453051D01*
X5900499Y16646948D01*
X5890220Y16717509D01*
X5876516Y16745540D01*
X5864756Y16814409D01*
X5876515Y16854460D01*
X5890220Y16882491D01*
X5900500Y16953051D01*
X5900499Y17146948D01*
X5890220Y17217509D01*
X5876516Y17245540D01*
X5864756Y17314409D01*
X5876515Y17354460D01*
X5890220Y17382491D01*
X5900500Y17453051D01*
X5900499Y17646948D01*
X5890220Y17717509D01*
X5876516Y17745540D01*
X5864756Y17814409D01*
X5876515Y17854460D01*
X5890220Y17882491D01*
X5900500Y17953051D01*
X5900499Y18146948D01*
X5890220Y18217509D01*
X5876516Y18245540D01*
X5864756Y18314409D01*
X5876515Y18354460D01*
X5890220Y18382491D01*
X5893076Y18402096D01*
X5922217Y18465595D01*
X5981065Y18503261D01*
X5997891Y18506923D01*
X6017509Y18509780D01*
X6045539Y18523484D01*
X6114409Y18535244D01*
X6154459Y18523485D01*
X6182491Y18509780D01*
X6253051Y18499500D01*
X6446948Y18499501D01*
X6446950Y18499501D01*
X6475172Y18503613D01*
X6517509Y18509780D01*
X6545539Y18523484D01*
X6614409Y18535244D01*
X6654459Y18523485D01*
X6682491Y18509780D01*
X6753051Y18499500D01*
X6946948Y18499501D01*
X6946950Y18499501D01*
X6975172Y18503613D01*
X7017509Y18509780D01*
X7045539Y18523484D01*
X7114409Y18535244D01*
X7154459Y18523485D01*
X7182491Y18509780D01*
X7253051Y18499500D01*
X7446948Y18499501D01*
X7446950Y18499501D01*
X7475172Y18503613D01*
X7517509Y18509780D01*
X7545539Y18523484D01*
X7614409Y18535244D01*
X7654459Y18523485D01*
X7682491Y18509780D01*
X7753051Y18499500D01*
X7946948Y18499501D01*
X7946950Y18499501D01*
X7975172Y18503613D01*
X8017509Y18509780D01*
X8045539Y18523484D01*
X8114409Y18535244D01*
X8154459Y18523485D01*
X8182491Y18509780D01*
X8253051Y18499500D01*
X8446948Y18499501D01*
X8446950Y18499501D01*
X8475172Y18503613D01*
X8517509Y18509780D01*
X8545539Y18523484D01*
X8614409Y18535244D01*
X8654459Y18523485D01*
X8682491Y18509780D01*
X8753051Y18499500D01*
X8946948Y18499501D01*
X8946950Y18499501D01*
X8975172Y18503613D01*
X9017509Y18509780D01*
X9045539Y18523484D01*
X9114409Y18535244D01*
X9154459Y18523485D01*
X9182491Y18509780D01*
X9253051Y18499500D01*
X9446948Y18499501D01*
X9446950Y18499501D01*
X9475172Y18503613D01*
X9517509Y18509780D01*
X9545539Y18523484D01*
X9614409Y18535244D01*
X9654459Y18523485D01*
X9682491Y18509780D01*
X9753051Y18499500D01*
X9946948Y18499501D01*
X9946950Y18499501D01*
X9975172Y18503613D01*
X10017509Y18509780D01*
X10045539Y18523484D01*
X10114409Y18535244D01*
X10154459Y18523485D01*
X10182491Y18509780D01*
X10253051Y18499500D01*
X10446948Y18499501D01*
X10446950Y18499501D01*
X10475172Y18503613D01*
X10517509Y18509780D01*
X10545539Y18523484D01*
X10614409Y18535244D01*
X10654459Y18523485D01*
X10682491Y18509780D01*
X10753051Y18499500D01*
X10946948Y18499501D01*
X10946950Y18499501D01*
X10975172Y18503613D01*
X11017509Y18509780D01*
X11045539Y18523484D01*
X11114409Y18535244D01*
X11154459Y18523485D01*
G37*
%TD.AperFunction*%
%TA.AperFunction,Conductor*%
G36*
X2642539Y14769815D02*
G01*
X2688294Y14717011D01*
X2699500Y14665500D01*
X2699500Y14376930D01*
X2702289Y14347186D01*
X2702291Y14347174D01*
X2737857Y14245537D01*
X2746148Y14221843D01*
X2801423Y14146948D01*
X2825002Y14115000D01*
X2827821Y14112181D01*
X2829920Y14108336D01*
X2830519Y14107525D01*
X2830408Y14107444D01*
X2861306Y14050858D01*
X2856322Y13981166D01*
X2814450Y13925233D01*
X2748986Y13900816D01*
X2740142Y13900500D01*
X2680144Y13900500D01*
X2680119Y13900498D01*
X2655010Y13897586D01*
X2655001Y13897584D01*
X2650076Y13895409D01*
X2580797Y13886343D01*
X2549920Y13895410D01*
X2544999Y13897583D01*
X2544992Y13897585D01*
X2544991Y13897585D01*
X2538709Y13898314D01*
X2519868Y13900500D01*
X2519865Y13900500D01*
X2314500Y13900500D01*
X2247461Y13920185D01*
X2201706Y13972989D01*
X2190500Y14024500D01*
X2190500Y14665500D01*
X2210185Y14732539D01*
X2262989Y14778294D01*
X2314500Y14789500D01*
X2575500Y14789500D01*
X2642539Y14769815D01*
G37*
%TD.AperFunction*%
%TA.AperFunction,Conductor*%
G36*
X2535138Y17729816D02*
G01*
X2555780Y17713182D01*
X2769437Y17499525D01*
X2837499Y17460229D01*
X2885715Y17409663D01*
X2899500Y17352842D01*
X2899500Y16605144D01*
X2899502Y16605118D01*
X2902413Y16580013D01*
X2902415Y16580009D01*
X2947793Y16477236D01*
X2963076Y16461953D01*
X2996561Y16400630D01*
X2991577Y16330938D01*
X2949705Y16275005D01*
X2933342Y16264645D01*
X2931847Y16263856D01*
X2825001Y16184999D01*
X2746147Y16078156D01*
X2702291Y15952827D01*
X2702289Y15952815D01*
X2699500Y15923071D01*
X2699500Y15664500D01*
X2679815Y15597461D01*
X2627011Y15551706D01*
X2575500Y15540500D01*
X2314500Y15540500D01*
X2247461Y15560185D01*
X2201706Y15612989D01*
X2190500Y15664500D01*
X2190500Y17625501D01*
X2210185Y17692540D01*
X2262989Y17738295D01*
X2314500Y17749501D01*
X2468099Y17749501D01*
X2535138Y17729816D01*
G37*
%TD.AperFunction*%
%TA.AperFunction,Conductor*%
G36*
X3561244Y19233539D02*
G01*
X3576999Y19220212D01*
X4249271Y18547940D01*
X4282756Y18486617D01*
X4277772Y18416925D01*
X4235900Y18360992D01*
X4223593Y18352874D01*
X4219437Y18350475D01*
X4080782Y18211819D01*
X4019459Y18178334D01*
X3993101Y18175500D01*
X3324500Y18175500D01*
X3257461Y18195185D01*
X3211706Y18247989D01*
X3200500Y18299500D01*
X3200499Y18994857D01*
X3200499Y18994864D01*
X3200462Y18995185D01*
X3196511Y19029258D01*
X3198456Y19029484D01*
X3199610Y19087510D01*
X3238546Y19145525D01*
X3285775Y19169990D01*
X3316385Y19178191D01*
X3323887Y19180201D01*
X3426614Y19239511D01*
X3426616Y19239514D01*
X3427317Y19239918D01*
X3495217Y19256391D01*
X3561244Y19233539D01*
G37*
%TD.AperFunction*%
%TA.AperFunction,Conductor*%
G36*
X4595906Y20769861D02*
G01*
X4609374Y20761206D01*
X4655799Y20726943D01*
X4690970Y20714636D01*
X4716455Y20705718D01*
X4773231Y20664996D01*
X4798978Y20600043D01*
X4799500Y20588677D01*
X4799500Y20176930D01*
X4802289Y20147186D01*
X4802291Y20147174D01*
X4846147Y20021845D01*
X4846148Y20021843D01*
X4925001Y19915001D01*
X5031843Y19836148D01*
X5070003Y19822796D01*
X5157173Y19792292D01*
X5157177Y19792292D01*
X5157181Y19792290D01*
X5172057Y19790895D01*
X5186930Y19789500D01*
X5186934Y19789500D01*
X5275500Y19789500D01*
X5342539Y19769815D01*
X5388294Y19717011D01*
X5399500Y19665500D01*
X5399500Y19178191D01*
X5407188Y19149500D01*
X5411986Y19131593D01*
X5410323Y19061743D01*
X5371160Y19003881D01*
X5306932Y18976377D01*
X5292211Y18975500D01*
X4935147Y18975500D01*
X4868108Y18995185D01*
X4847466Y19011819D01*
X4049139Y19810146D01*
X4015654Y19871469D01*
X4019778Y19938781D01*
X4057710Y20047181D01*
X4060500Y20076934D01*
X4060500Y20523066D01*
X4060500Y20523071D01*
X4060500Y20523072D01*
X4057607Y20553924D01*
X4070946Y20622508D01*
X4119248Y20672993D01*
X4181065Y20689500D01*
X4273070Y20689500D01*
X4286289Y20690740D01*
X4302819Y20692290D01*
X4302823Y20692292D01*
X4302826Y20692292D01*
X4351836Y20709443D01*
X4428157Y20736148D01*
X4462109Y20761206D01*
X4527735Y20785176D01*
X4595906Y20769861D01*
G37*
%TD.AperFunction*%
%TA.AperFunction,Conductor*%
G36*
X4754544Y22551655D02*
G01*
X4756040Y22550569D01*
X4855799Y22476943D01*
X4983271Y22432338D01*
X5013537Y22429500D01*
X5375500Y22429501D01*
X5442539Y22409817D01*
X5488294Y22357013D01*
X5499500Y22305501D01*
X5499500Y22003975D01*
X5479815Y21936936D01*
X5427011Y21891181D01*
X5357853Y21881237D01*
X5334545Y21886934D01*
X5246736Y21917661D01*
X5246724Y21917663D01*
X5216467Y21920500D01*
X4813539Y21920500D01*
X4783275Y21917663D01*
X4783270Y21917662D01*
X4725454Y21897431D01*
X4655676Y21893870D01*
X4595048Y21928599D01*
X4562821Y21990592D01*
X4560500Y22014473D01*
X4560500Y22423069D01*
X4558988Y22439191D01*
X4572327Y22507775D01*
X4620628Y22558261D01*
X4688556Y22574618D01*
X4754544Y22551655D01*
G37*
%TD.AperFunction*%
%TD*%
M02*
