%TF.GenerationSoftware,KiCad,Pcbnew,8.0.7*%
%TF.CreationDate,2025-01-22T04:17:01+01:00*%
%TF.ProjectId,beacon,62656163-6f6e-42e6-9b69-6361645f7063,rev?*%
%TF.SameCoordinates,Original*%
%TF.FileFunction,Copper,L2,Bot*%
%TF.FilePolarity,Positive*%
%FSLAX46Y46*%
G04 Gerber Fmt 4.6, Leading zero omitted, Abs format (unit mm)*
G04 Created by KiCad (PCBNEW 8.0.7) date 2025-01-22 04:17:01*
%MOMM*%
%LPD*%
G01*
G04 APERTURE LIST*
G04 Aperture macros list*
%AMRoundRect*
0 Rectangle with rounded corners*
0 $1 Rounding radius*
0 $2 $3 $4 $5 $6 $7 $8 $9 X,Y pos of 4 corners*
0 Add a 4 corners polygon primitive as box body*
4,1,4,$2,$3,$4,$5,$6,$7,$8,$9,$2,$3,0*
0 Add four circle primitives for the rounded corners*
1,1,$1+$1,$2,$3*
1,1,$1+$1,$4,$5*
1,1,$1+$1,$6,$7*
1,1,$1+$1,$8,$9*
0 Add four rect primitives between the rounded corners*
20,1,$1+$1,$2,$3,$4,$5,0*
20,1,$1+$1,$4,$5,$6,$7,0*
20,1,$1+$1,$6,$7,$8,$9,0*
20,1,$1+$1,$8,$9,$2,$3,0*%
G04 Aperture macros list end*
%TA.AperFunction,ComponentPad*%
%ADD10R,2.200000X2.200000*%
%TD*%
%TA.AperFunction,ComponentPad*%
%ADD11C,2.200000*%
%TD*%
%TA.AperFunction,ComponentPad*%
%ADD12C,3.800000*%
%TD*%
%TA.AperFunction,SMDPad,CuDef*%
%ADD13RoundRect,0.150000X0.625000X-0.150000X0.625000X0.150000X-0.625000X0.150000X-0.625000X-0.150000X0*%
%TD*%
%TA.AperFunction,SMDPad,CuDef*%
%ADD14RoundRect,0.250000X0.650000X-0.350000X0.650000X0.350000X-0.650000X0.350000X-0.650000X-0.350000X0*%
%TD*%
%TA.AperFunction,ComponentPad*%
%ADD15R,2.100000X2.100000*%
%TD*%
%TA.AperFunction,ComponentPad*%
%ADD16C,2.100000*%
%TD*%
%TA.AperFunction,SMDPad,CuDef*%
%ADD17R,1.300000X3.400000*%
%TD*%
%TA.AperFunction,ViaPad*%
%ADD18C,0.500000*%
%TD*%
%TA.AperFunction,Conductor*%
%ADD19C,0.300000*%
%TD*%
%TA.AperFunction,Conductor*%
%ADD20C,0.150000*%
%TD*%
%TA.AperFunction,Conductor*%
%ADD21C,1.000000*%
%TD*%
G04 APERTURE END LIST*
D10*
%TO.P,J3,1,Pin_1*%
%TO.N,/PYRO2_OUT*%
X11315000Y-7600000D03*
D11*
%TO.P,J3,2,Pin_2*%
%TO.N,+BATT*%
X8775000Y-7600000D03*
%TO.P,J3,3,Pin_3*%
%TO.N,/PYRO1_OUT*%
X6235000Y-7600000D03*
%TO.P,J3,4,Pin_4*%
%TO.N,+BATT*%
X3695000Y-7600000D03*
%TD*%
D12*
%TO.P,H3,1,1*%
%TO.N,GND*%
X7500000Y25300000D03*
%TD*%
D13*
%TO.P,J1,1,Pin_1*%
%TO.N,GND*%
X12500000Y8000000D03*
%TO.P,J1,2,Pin_2*%
%TO.N,+BATT*%
X12500000Y9000000D03*
%TO.P,J1,3,Pin_3*%
%TO.N,/RX*%
X12500000Y10000000D03*
%TO.P,J1,4,Pin_4*%
%TO.N,/TX*%
X12500000Y11000000D03*
D14*
%TO.P,J1,MP*%
%TO.N,N/C*%
X8625000Y6700000D03*
X8625000Y12300000D03*
%TD*%
D12*
%TO.P,H4,1,1*%
%TO.N,GND*%
X7500000Y-2200000D03*
%TD*%
D15*
%TO.P,BT1,1,+*%
%TO.N,Net-(BT1-+)*%
X5900000Y1530000D03*
D16*
%TO.P,BT1,2,-*%
%TO.N,GND*%
X5900000Y4070000D03*
%TD*%
D17*
%TO.P,BZ1,1,+*%
%TO.N,/BUZZ*%
X11350000Y17800000D03*
%TO.P,BZ1,2,-*%
%TO.N,GND*%
X2650000Y17800000D03*
%TD*%
D18*
%TO.N,GND*%
X9400000Y23100000D03*
X5700000Y-4500000D03*
X2300000Y16300000D03*
X4700000Y22400000D03*
X13000000Y17200000D03*
X1800000Y6600000D03*
X9900000Y10100000D03*
X5200000Y8000000D03*
X12400000Y7200000D03*
X2200000Y22300000D03*
X11700000Y2300000D03*
X11641405Y1703512D03*
X3500000Y19100000D03*
X4200000Y19800000D03*
X8600000Y15800000D03*
X7900000Y9500000D03*
X13200000Y2600000D03*
X6700000Y17700000D03*
X13300000Y-4300000D03*
X12950000Y1000000D03*
X11400000Y1100000D03*
X2000000Y24800000D03*
X13100000Y-7200000D03*
X10200000Y17700000D03*
X13150000Y0D03*
X5600000Y9900000D03*
X8600000Y14000000D03*
X13300000Y20200000D03*
X3200000Y-1800000D03*
X13000000Y21900000D03*
X6700000Y14000000D03*
X3300000Y-6000000D03*
X3300000Y-4200000D03*
X1800000Y20400000D03*
X8600000Y17700000D03*
X12500000Y22500000D03*
X3900000Y6200000D03*
X2200000Y-6500000D03*
X7500000Y5500000D03*
X10100000Y5700000D03*
X2300000Y21400000D03*
X6700000Y15700000D03*
X2100000Y100000D03*
X10700000Y15700000D03*
X2400000Y14100000D03*
X13100000Y15500000D03*
X5600000Y6400000D03*
X2825000Y12443707D03*
X12400000Y6400000D03*
X10700000Y14000000D03*
%TO.N,+3.3V*%
X5850000Y11800000D03*
X10000000Y10900000D03*
X12700000Y19400000D03*
X7850000Y11300000D03*
X9870993Y8529007D03*
%TO.N,/VFBSMPS*%
X10000000Y11600000D03*
X4100000Y15300000D03*
%TO.N,/TX*%
X12775000Y11780551D03*
%TO.N,/RX*%
X12500000Y10000000D03*
%TO.N,+BATT*%
X9700000Y4500000D03*
%TO.N,/BUZZ*%
X10235807Y20072398D03*
%TO.N,/PYRO1_CON*%
X6300000Y8199998D03*
X8000000Y3200000D03*
%TO.N,/PYRO2_CON*%
X8900000Y3400000D03*
X6700000Y5900000D03*
%TO.N,Net-(D3-A)*%
X11200000Y4700000D03*
X9000000Y8003678D03*
%TO.N,/BAT_ADC*%
X12025000Y12598899D03*
X7900000Y7700000D03*
%TO.N,/MOSI*%
X4300000Y9700000D03*
X3525000Y4600000D03*
X4396821Y13373758D03*
%TO.N,/MISO*%
X4475000Y14019042D03*
X2800000Y3400000D03*
X4400000Y8300000D03*
%TO.N,/SCK*%
X11000000Y20100000D03*
X3000000Y9000000D03*
X2200000Y4500000D03*
X3300000Y12000000D03*
%TO.N,/CS_FLASH*%
X2100000Y3400000D03*
X4000000Y14500000D03*
%TD*%
D19*
%TO.N,+3.3V*%
X10400000Y10900000D02*
X10000000Y10900000D01*
X10550000Y11050000D02*
X10400000Y10900000D01*
X10550000Y13050000D02*
X10550000Y11050000D01*
X12300000Y14800000D02*
X10550000Y13050000D01*
X12300000Y19000000D02*
X12300000Y14800000D01*
X12700000Y19400000D02*
X12300000Y19000000D01*
D20*
%TO.N,/SCK*%
X3300000Y15200000D02*
X3300000Y12000000D01*
X4400000Y16300000D02*
X3300000Y15200000D01*
X8400000Y16300000D02*
X4400000Y16300000D01*
X9500000Y20200000D02*
X9500000Y17400000D01*
X9917628Y20617628D02*
X9500000Y20200000D01*
X9500000Y17400000D02*
X8400000Y16300000D01*
X10362329Y20617628D02*
X9917628Y20617628D01*
X10879957Y20100000D02*
X10362329Y20617628D01*
X11000000Y20100000D02*
X10879957Y20100000D01*
D19*
%TO.N,GND*%
X12422182Y8000000D02*
X12500000Y8000000D01*
%TO.N,+3.3V*%
X10500000Y9158014D02*
X10500000Y10400000D01*
X7200000Y11300000D02*
X7850000Y11300000D01*
X9522182Y11300000D02*
X9922182Y10900000D01*
X7850000Y11300000D02*
X9522182Y11300000D01*
X6700000Y11800000D02*
X7200000Y11300000D01*
X5850000Y11800000D02*
X6700000Y11800000D01*
X9922182Y10900000D02*
X10000000Y10900000D01*
X9870993Y8529007D02*
X10500000Y9158014D01*
X10500000Y10400000D02*
X10000000Y10900000D01*
D20*
%TO.N,/VFBSMPS*%
X10000000Y11671752D02*
X10000000Y11600000D01*
X9401839Y13300000D02*
X9800000Y12901839D01*
X4100000Y15300000D02*
X4900000Y14500000D01*
X9800000Y12901839D02*
X9800000Y11871752D01*
X8371752Y13300000D02*
X9401839Y13300000D01*
X7171752Y14500000D02*
X8371752Y13300000D01*
X9800000Y11871752D02*
X10000000Y11671752D01*
X4900000Y14500000D02*
X7171752Y14500000D01*
%TO.N,/TX*%
X12500000Y11505551D02*
X12500000Y11000000D01*
X12775000Y11780551D02*
X12500000Y11505551D01*
D21*
%TO.N,+BATT*%
X7025000Y-5850000D02*
X8775000Y-7600000D01*
D19*
X11425000Y7652818D02*
X11425000Y8425000D01*
X11427818Y4150000D02*
X11750000Y4472182D01*
D21*
X3695000Y-7600000D02*
X5445000Y-5850000D01*
D19*
X11425000Y8425000D02*
X12000000Y9000000D01*
D21*
X5445000Y-5850000D02*
X7025000Y-5850000D01*
D19*
X9700000Y4500000D02*
X10050000Y4150000D01*
X11750000Y7327818D02*
X11425000Y7652818D01*
X10050000Y4150000D02*
X11427818Y4150000D01*
X11750000Y4472182D02*
X11750000Y7327818D01*
X12000000Y9000000D02*
X12500000Y9000000D01*
D20*
%TO.N,/BUZZ*%
X11350000Y18958205D02*
X11350000Y17800000D01*
X10235807Y20072398D02*
X11350000Y18958205D01*
%TO.N,/PYRO1_CON*%
X6400000Y8099998D02*
X6400000Y6500000D01*
X8000000Y3875736D02*
X8000000Y3200000D01*
X6300000Y8199998D02*
X6400000Y8099998D01*
X6225000Y6325000D02*
X6225000Y5650736D01*
X6225000Y5650736D02*
X8000000Y3875736D01*
X6400000Y6500000D02*
X6225000Y6325000D01*
%TO.N,/PYRO2_CON*%
X6700000Y5900000D02*
X6700000Y5600000D01*
X6700000Y5600000D02*
X8900000Y3400000D01*
%TO.N,Net-(D3-A)*%
X11200000Y7000000D02*
X11200000Y4700000D01*
X9000000Y8003678D02*
X9300306Y8003678D01*
X10445993Y7754007D02*
X11200000Y7000000D01*
X9300306Y8003678D02*
X9549977Y7754007D01*
X9549977Y7754007D02*
X10445993Y7754007D01*
%TO.N,/BAT_ADC*%
X7900000Y7700000D02*
X7900000Y8000000D01*
X10154007Y8054007D02*
X11100000Y9000000D01*
X7900000Y8000000D02*
X8378678Y8478678D01*
X9674241Y8054007D02*
X10154007Y8054007D01*
X11827147Y12598899D02*
X12025000Y12598899D01*
X11100000Y9000000D02*
X11100000Y11871752D01*
X11100000Y11871752D02*
X11827147Y12598899D01*
X8378678Y8478678D02*
X9249570Y8478678D01*
X9249570Y8478678D02*
X9674241Y8054007D01*
%TO.N,/MOSI*%
X4300000Y9000000D02*
X3100000Y7800000D01*
X4100000Y9900000D02*
X4100000Y13076937D01*
X4300000Y9700000D02*
X4300000Y9000000D01*
X3100000Y7800000D02*
X3100000Y5025000D01*
X3100000Y5025000D02*
X3525000Y4600000D01*
X4100000Y13076937D02*
X4396821Y13373758D01*
X4300000Y9700000D02*
X4100000Y9900000D01*
%TO.N,/MISO*%
X4000000Y5428248D02*
X4000000Y4300000D01*
X4400000Y12705185D02*
X4871821Y13177006D01*
X4775000Y8675000D02*
X4775000Y9896752D01*
X3425000Y7325000D02*
X3425000Y6003248D01*
X4871821Y13622221D02*
X4475000Y14019042D01*
X4400000Y10271752D02*
X4400000Y12705185D01*
X4775000Y9896752D02*
X4400000Y10271752D01*
X4000000Y4300000D02*
X3100000Y3400000D01*
X4400000Y8300000D02*
X3425000Y7325000D01*
X4871821Y13177006D02*
X4871821Y13622221D01*
X3100000Y3400000D02*
X2800000Y3400000D01*
X3425000Y6003248D02*
X4000000Y5428248D01*
X4400000Y8300000D02*
X4775000Y8675000D01*
%TO.N,/SCK*%
X3000000Y8900000D02*
X3000000Y9000000D01*
X3000000Y9000000D02*
X3300000Y9300000D01*
X2421911Y4721911D02*
X2421911Y8321911D01*
X3300000Y9300000D02*
X3300000Y12000000D01*
X2421911Y8321911D02*
X3000000Y8900000D01*
X2200000Y4500000D02*
X2421911Y4721911D01*
%TO.N,/CS_FLASH*%
X4000000Y13800000D02*
X3775000Y13575000D01*
X4000000Y14500000D02*
X4000000Y13800000D01*
X3775000Y13575000D02*
X3775000Y9103248D01*
X2800000Y8128248D02*
X2800000Y4100000D01*
X2800000Y4100000D02*
X2100000Y3400000D01*
X3775000Y9103248D02*
X2800000Y8128248D01*
%TD*%
%TA.AperFunction,Conductor*%
%TO.N,GND*%
G36*
X10046948Y19554770D02*
G01*
X10092098Y19536068D01*
X10221957Y19518972D01*
X10285853Y19490706D01*
X10293452Y19483715D01*
X10363181Y19413987D01*
X10396666Y19352664D01*
X10399500Y19326305D01*
X10399500Y16055144D01*
X10399502Y16055118D01*
X10402413Y16030013D01*
X10402415Y16030009D01*
X10447793Y15927236D01*
X10447794Y15927235D01*
X10527235Y15847794D01*
X10630009Y15802415D01*
X10655135Y15799500D01*
X11725500Y15799501D01*
X11792539Y15779817D01*
X11838294Y15727013D01*
X11849500Y15675501D01*
X11849500Y15037966D01*
X11829815Y14970927D01*
X11813181Y14950285D01*
X10189513Y13326617D01*
X10189509Y13326611D01*
X10166633Y13286990D01*
X10116065Y13238775D01*
X10047458Y13225554D01*
X9982593Y13251523D01*
X9971566Y13261311D01*
X9632402Y13600474D01*
X9632401Y13600475D01*
X9546777Y13649910D01*
X9499025Y13662705D01*
X9499023Y13662706D01*
X9499021Y13662707D01*
X9451275Y13675500D01*
X9451274Y13675500D01*
X8578651Y13675500D01*
X8511612Y13695185D01*
X8490970Y13711819D01*
X7402315Y14800474D01*
X7402314Y14800475D01*
X7316690Y14849910D01*
X7268938Y14862705D01*
X7268936Y14862706D01*
X7268934Y14862707D01*
X7221188Y14875500D01*
X7221187Y14875500D01*
X5106900Y14875500D01*
X5039861Y14895185D01*
X5019219Y14911819D01*
X4688684Y15242354D01*
X4655199Y15303677D01*
X4653428Y15313837D01*
X4636330Y15443709D01*
X4580861Y15577625D01*
X4492621Y15692621D01*
X4492618Y15692623D01*
X4487673Y15699068D01*
X4489702Y15700626D01*
X4462335Y15750745D01*
X4467319Y15820437D01*
X4495822Y15864787D01*
X4503697Y15872661D01*
X4519223Y15888185D01*
X4580547Y15921667D01*
X4606900Y15924500D01*
X8449435Y15924500D01*
X8449436Y15924500D01*
X8497186Y15937295D01*
X8544938Y15950090D01*
X8630562Y15999525D01*
X8700475Y16069438D01*
X9800474Y17169437D01*
X9800475Y17169438D01*
X9849910Y17255062D01*
X9875500Y17350565D01*
X9875500Y19440207D01*
X9895185Y19507246D01*
X9947989Y19553001D01*
X10017147Y19562945D01*
X10046948Y19554770D01*
G37*
%TD.AperFunction*%
%TA.AperFunction,Conductor*%
G36*
X13001509Y26999963D02*
G01*
X13007232Y26999823D01*
X13087583Y26997855D01*
X13108728Y26995510D01*
X13279013Y26961638D01*
X13302261Y26954587D01*
X13461257Y26888728D01*
X13482692Y26877270D01*
X13625775Y26781665D01*
X13644565Y26766244D01*
X13766243Y26644566D01*
X13781664Y26625776D01*
X13877269Y26482693D01*
X13888728Y26461255D01*
X13954583Y26302269D01*
X13961639Y26279007D01*
X13995508Y26108734D01*
X13997854Y26087581D01*
X13999963Y26001512D01*
X14000000Y25998474D01*
X14000000Y-7998473D01*
X13999963Y-8001511D01*
X13997854Y-8087580D01*
X13995508Y-8108733D01*
X13961639Y-8279006D01*
X13954583Y-8302268D01*
X13888728Y-8461254D01*
X13877269Y-8482692D01*
X13781664Y-8625775D01*
X13766243Y-8644565D01*
X13644565Y-8766243D01*
X13625775Y-8781664D01*
X13482692Y-8877269D01*
X13461254Y-8888728D01*
X13302268Y-8954583D01*
X13279006Y-8961639D01*
X13108733Y-8995508D01*
X13087580Y-8997854D01*
X13004250Y-8999895D01*
X13001509Y-8999963D01*
X12998473Y-9000000D01*
X12801327Y-9000000D01*
X12734288Y-8980315D01*
X12688533Y-8927511D01*
X12678589Y-8858353D01*
X12687893Y-8825913D01*
X12712584Y-8769993D01*
X12712585Y-8769991D01*
X12715500Y-8744865D01*
X12715499Y-6455136D01*
X12715497Y-6455117D01*
X12712586Y-6430012D01*
X12712585Y-6430010D01*
X12712585Y-6430009D01*
X12667206Y-6327235D01*
X12587765Y-6247794D01*
X12539539Y-6226500D01*
X12484992Y-6202415D01*
X12459868Y-6199500D01*
X12459865Y-6199500D01*
X10668710Y-6199500D01*
X10601671Y-6179815D01*
X10555916Y-6127011D01*
X10545972Y-6057853D01*
X10574997Y-5994297D01*
X10581029Y-5987819D01*
X10641981Y-5926866D01*
X10641984Y-5926863D01*
X10732435Y-5791495D01*
X10794738Y-5641081D01*
X10826500Y-5481403D01*
X10826500Y-5318597D01*
X10826500Y-5318594D01*
X10826499Y-5318592D01*
X10794740Y-5158926D01*
X10794737Y-5158917D01*
X10787152Y-5140606D01*
X10762158Y-5080263D01*
X10732437Y-5008509D01*
X10732436Y-5008507D01*
X10641984Y-4873137D01*
X10641981Y-4873133D01*
X10526866Y-4758018D01*
X10526862Y-4758015D01*
X10391492Y-4667563D01*
X10391490Y-4667562D01*
X10241082Y-4605262D01*
X10241073Y-4605259D01*
X10081406Y-4573500D01*
X10081403Y-4573500D01*
X9918597Y-4573500D01*
X9918594Y-4573500D01*
X9758926Y-4605259D01*
X9758917Y-4605262D01*
X9608509Y-4667562D01*
X9608507Y-4667563D01*
X9473137Y-4758015D01*
X9473133Y-4758018D01*
X9358018Y-4873133D01*
X9358015Y-4873137D01*
X9267563Y-5008507D01*
X9267562Y-5008509D01*
X9205262Y-5158917D01*
X9205259Y-5158926D01*
X9173500Y-5318592D01*
X9173500Y-5481407D01*
X9205259Y-5641073D01*
X9205262Y-5641082D01*
X9267562Y-5791490D01*
X9267563Y-5791492D01*
X9358015Y-5926862D01*
X9358018Y-5926866D01*
X9473133Y-6041981D01*
X9473137Y-6041984D01*
X9608505Y-6132435D01*
X9608506Y-6132435D01*
X9608507Y-6132436D01*
X9608509Y-6132437D01*
X9664070Y-6155450D01*
X9758919Y-6194738D01*
X9848382Y-6212533D01*
X9910292Y-6244917D01*
X9944866Y-6305633D01*
X9941127Y-6375402D01*
X9937625Y-6384234D01*
X9917416Y-6430003D01*
X9917415Y-6430008D01*
X9914500Y-6455131D01*
X9914500Y-6458546D01*
X9894815Y-6525585D01*
X9842011Y-6571340D01*
X9772853Y-6581284D01*
X9714338Y-6556400D01*
X9588615Y-6458546D01*
X9543626Y-6423530D01*
X9365689Y-6327235D01*
X9339504Y-6313064D01*
X9339495Y-6313061D01*
X9119984Y-6237702D01*
X8948282Y-6209050D01*
X8891049Y-6199500D01*
X8658951Y-6199500D01*
X8658950Y-6199500D01*
X8591323Y-6210784D01*
X8521958Y-6202401D01*
X8483234Y-6176156D01*
X7535292Y-5228213D01*
X7535288Y-5228210D01*
X7404185Y-5140609D01*
X7404172Y-5140602D01*
X7258501Y-5080264D01*
X7258489Y-5080261D01*
X7103845Y-5049500D01*
X7103842Y-5049500D01*
X5523843Y-5049500D01*
X5366158Y-5049500D01*
X5366153Y-5049500D01*
X5211510Y-5080260D01*
X5211502Y-5080262D01*
X5065824Y-5140604D01*
X5065814Y-5140609D01*
X4934711Y-5228210D01*
X4934707Y-5228213D01*
X3986764Y-6176156D01*
X3925441Y-6209641D01*
X3878674Y-6210784D01*
X3811049Y-6199500D01*
X3578951Y-6199500D01*
X3533164Y-6207140D01*
X3350015Y-6237702D01*
X3130504Y-6313061D01*
X3130495Y-6313064D01*
X2926371Y-6423531D01*
X2926365Y-6423535D01*
X2743222Y-6566081D01*
X2743219Y-6566084D01*
X2743216Y-6566086D01*
X2743216Y-6566087D01*
X2729226Y-6581284D01*
X2586016Y-6736852D01*
X2459075Y-6931151D01*
X2365842Y-7143699D01*
X2308866Y-7368691D01*
X2308864Y-7368702D01*
X2289700Y-7599993D01*
X2289700Y-7600006D01*
X2308864Y-7831297D01*
X2308866Y-7831308D01*
X2365842Y-8056300D01*
X2459075Y-8268848D01*
X2586016Y-8463147D01*
X2586019Y-8463151D01*
X2586021Y-8463153D01*
X2743216Y-8633913D01*
X2743219Y-8633915D01*
X2743222Y-8633918D01*
X2928527Y-8778147D01*
X2969340Y-8834857D01*
X2973015Y-8904630D01*
X2938383Y-8965313D01*
X2876442Y-8997640D01*
X2852365Y-9000000D01*
X2001527Y-9000000D01*
X1998490Y-8999963D01*
X1912420Y-8997854D01*
X1891266Y-8995508D01*
X1720993Y-8961639D01*
X1697731Y-8954583D01*
X1538745Y-8888728D01*
X1517307Y-8877269D01*
X1374224Y-8781664D01*
X1355434Y-8766243D01*
X1233756Y-8644565D01*
X1218335Y-8625775D01*
X1122730Y-8482692D01*
X1111271Y-8461254D01*
X1045413Y-8302261D01*
X1038362Y-8279013D01*
X1004490Y-8108728D01*
X1002145Y-8087583D01*
X1000037Y-8001509D01*
X1000000Y-7998473D01*
X1000000Y3400001D01*
X1544750Y3400001D01*
X1544750Y3400000D01*
X1563670Y3256292D01*
X1563671Y3256288D01*
X1619137Y3122378D01*
X1619138Y3122376D01*
X1619139Y3122375D01*
X1707379Y3007379D01*
X1822375Y2919139D01*
X1956291Y2863670D01*
X2083280Y2846952D01*
X2099999Y2844750D01*
X2100000Y2844750D01*
X2100001Y2844750D01*
X2114977Y2846722D01*
X2243709Y2863670D01*
X2377625Y2919139D01*
X2377631Y2919144D01*
X2384664Y2923203D01*
X2385857Y2921137D01*
X2439678Y2941946D01*
X2508124Y2927910D01*
X2516436Y2922568D01*
X2522371Y2919142D01*
X2522375Y2919139D01*
X2656291Y2863670D01*
X2783280Y2846952D01*
X2799999Y2844750D01*
X2800000Y2844750D01*
X2800001Y2844750D01*
X2814977Y2846722D01*
X2943709Y2863670D01*
X3077625Y2919139D01*
X3192621Y3007379D01*
X3196061Y3011864D01*
X3238723Y3044598D01*
X3237899Y3046026D01*
X3255678Y3056291D01*
X3330562Y3099525D01*
X3400475Y3169438D01*
X4151790Y3920754D01*
X4213111Y3954237D01*
X4282802Y3949253D01*
X4338736Y3907381D01*
X4363086Y3842804D01*
X4364346Y3826790D01*
X4364348Y3826781D01*
X4421303Y3589543D01*
X4514668Y3364139D01*
X4638504Y3162058D01*
X5376212Y3899766D01*
X5387482Y3857708D01*
X5459890Y3732292D01*
X5562292Y3629890D01*
X5687708Y3557482D01*
X5729765Y3546213D01*
X5100370Y2916819D01*
X5039047Y2883334D01*
X5012690Y2880500D01*
X4805142Y2880500D01*
X4805119Y2880498D01*
X4780011Y2877586D01*
X4780008Y2877585D01*
X4677235Y2832207D01*
X4597794Y2752766D01*
X4552415Y2649994D01*
X4552415Y2649992D01*
X4549500Y2624869D01*
X4549500Y435144D01*
X4549502Y435118D01*
X4552413Y410013D01*
X4552415Y410009D01*
X4597793Y307236D01*
X4597794Y307235D01*
X4677235Y227794D01*
X4780009Y182415D01*
X4805135Y179500D01*
X6994864Y179501D01*
X6994879Y179503D01*
X6994882Y179503D01*
X7019987Y182414D01*
X7019988Y182415D01*
X7019991Y182415D01*
X7122765Y227794D01*
X7202206Y307235D01*
X7247585Y410009D01*
X7250500Y435135D01*
X7250499Y2624864D01*
X7248193Y2644750D01*
X7247586Y2649988D01*
X7247585Y2649990D01*
X7247585Y2649991D01*
X7202206Y2752765D01*
X7122765Y2832206D01*
X7122763Y2832207D01*
X7019992Y2877585D01*
X6994868Y2880500D01*
X6787308Y2880500D01*
X6720269Y2900185D01*
X6699627Y2916819D01*
X6070234Y3546213D01*
X6112292Y3557482D01*
X6237708Y3629890D01*
X6340110Y3732292D01*
X6412518Y3857708D01*
X6423787Y3899766D01*
X7161494Y3162058D01*
X7215809Y3250690D01*
X7267621Y3297565D01*
X7336550Y3308988D01*
X7400713Y3281331D01*
X7439738Y3223375D01*
X7444475Y3202086D01*
X7463670Y3056293D01*
X7463671Y3056288D01*
X7511032Y2941946D01*
X7519139Y2922375D01*
X7607379Y2807379D01*
X7722375Y2719139D01*
X7856291Y2663670D01*
X7983280Y2646952D01*
X7999999Y2644750D01*
X8000000Y2644750D01*
X8000001Y2644750D01*
X8014977Y2646722D01*
X8143709Y2663670D01*
X8277625Y2719139D01*
X8392621Y2807379D01*
X8456388Y2890482D01*
X8512814Y2931682D01*
X8582560Y2935837D01*
X8616764Y2922379D01*
X8622371Y2919142D01*
X8622375Y2919139D01*
X8756291Y2863670D01*
X8883280Y2846952D01*
X8899999Y2844750D01*
X8900000Y2844750D01*
X8900001Y2844750D01*
X8914977Y2846722D01*
X9043709Y2863670D01*
X9177625Y2919139D01*
X9292621Y3007379D01*
X9380861Y3122375D01*
X9436330Y3256291D01*
X9455250Y3400000D01*
X9436330Y3543709D01*
X9380861Y3677625D01*
X9292621Y3792621D01*
X9177625Y3880861D01*
X9177624Y3880862D01*
X9177622Y3880863D01*
X9043712Y3936329D01*
X9043710Y3936330D01*
X9043709Y3936330D01*
X9027043Y3938525D01*
X8913846Y3953428D01*
X8849950Y3981695D01*
X8842352Y3988686D01*
X7247589Y5583448D01*
X7214104Y5644771D01*
X7219088Y5714463D01*
X7220687Y5718527D01*
X7236330Y5756291D01*
X7255250Y5900000D01*
X7236330Y6043709D01*
X7180861Y6177625D01*
X7092621Y6292621D01*
X6977625Y6380861D01*
X6977623Y6380862D01*
X6852047Y6432877D01*
X6797644Y6476718D01*
X6775579Y6543012D01*
X6775500Y6547438D01*
X6775500Y7884765D01*
X6784939Y7932217D01*
X6819325Y8015235D01*
X6836330Y8056289D01*
X6855250Y8199998D01*
X6836330Y8343707D01*
X6780861Y8477623D01*
X6692621Y8592619D01*
X6577625Y8680859D01*
X6577624Y8680860D01*
X6577622Y8680861D01*
X6443712Y8736327D01*
X6443710Y8736328D01*
X6443709Y8736328D01*
X6371854Y8745788D01*
X6300001Y8755248D01*
X6299999Y8755248D01*
X6156291Y8736328D01*
X6156287Y8736327D01*
X6022377Y8680861D01*
X5907379Y8592619D01*
X5819137Y8477621D01*
X5763671Y8343711D01*
X5763670Y8343707D01*
X5744750Y8199999D01*
X5744750Y8199998D01*
X5763670Y8056290D01*
X5763671Y8056286D01*
X5819137Y7922376D01*
X5819138Y7922374D01*
X5819139Y7922373D01*
X5907379Y7807377D01*
X5975988Y7754731D01*
X6017189Y7698305D01*
X6024500Y7656357D01*
X6024500Y6706899D01*
X6004815Y6639860D01*
X5988181Y6619218D01*
X5924526Y6555564D01*
X5875091Y6469941D01*
X5875088Y6469934D01*
X5869898Y6450566D01*
X5869899Y6450565D01*
X5850656Y6378748D01*
X5850654Y6378740D01*
X5849500Y6374435D01*
X5849500Y5735444D01*
X5829815Y5668405D01*
X5777011Y5622650D01*
X5735231Y5611826D01*
X5656773Y5605650D01*
X5419542Y5548697D01*
X5194146Y5455335D01*
X5194141Y5455332D01*
X4992056Y5331496D01*
X5729765Y4593788D01*
X5687708Y4582518D01*
X5562292Y4510110D01*
X5459890Y4407708D01*
X5387482Y4282292D01*
X5376212Y4240235D01*
X4638504Y4977944D01*
X4605227Y4923640D01*
X4553415Y4876765D01*
X4484486Y4865342D01*
X4420323Y4892999D01*
X4381298Y4950955D01*
X4375500Y4988430D01*
X4375500Y5477683D01*
X4375499Y5477686D01*
X4367967Y5505797D01*
X4349910Y5573187D01*
X4349909Y5573188D01*
X4343985Y5583448D01*
X4325193Y5615998D01*
X4300477Y5658808D01*
X4300473Y5658813D01*
X3836819Y6122467D01*
X3803334Y6183790D01*
X3800500Y6210148D01*
X3800500Y7118102D01*
X3820185Y7185141D01*
X3836815Y7205779D01*
X4342352Y7711317D01*
X4403673Y7744800D01*
X4413839Y7746573D01*
X4543709Y7763670D01*
X4677625Y7819139D01*
X4792621Y7907379D01*
X4880861Y8022375D01*
X4936330Y8156291D01*
X4953427Y8286155D01*
X4981694Y8350050D01*
X4988670Y8357634D01*
X5075474Y8444437D01*
X5076412Y8446061D01*
X5077075Y8447208D01*
X5124908Y8530059D01*
X5124910Y8530062D01*
X5130916Y8552476D01*
X5138346Y8580202D01*
X5149648Y8622386D01*
X5150500Y8625564D01*
X5150500Y8724436D01*
X5150500Y9946187D01*
X5150499Y9946189D01*
X5150499Y9946193D01*
X5149629Y9949438D01*
X5149625Y9949451D01*
X5124910Y10041689D01*
X5124909Y10041692D01*
X5119533Y10051003D01*
X5075475Y10127314D01*
X5005562Y10197227D01*
X4811819Y10390970D01*
X4778334Y10452293D01*
X4775500Y10478651D01*
X4775500Y12498286D01*
X4795185Y12565325D01*
X4811819Y12585967D01*
X4968464Y12742612D01*
X5172296Y12946443D01*
X5221732Y13032069D01*
X5247321Y13127570D01*
X5247321Y13226442D01*
X5247321Y13671656D01*
X5239494Y13700865D01*
X5234977Y13717726D01*
X5221732Y13767157D01*
X5221732Y13767158D01*
X5172296Y13852784D01*
X5112261Y13912819D01*
X5078776Y13974142D01*
X5083760Y14043834D01*
X5125632Y14099767D01*
X5191096Y14124184D01*
X5199942Y14124500D01*
X6964853Y14124500D01*
X7031892Y14104815D01*
X7052534Y14088181D01*
X7786781Y13353934D01*
X7820266Y13292611D01*
X7815282Y13222919D01*
X7773410Y13166986D01*
X7744593Y13150900D01*
X7702660Y13134363D01*
X7702658Y13134362D01*
X7582077Y13042923D01*
X7490639Y12922344D01*
X7435122Y12781562D01*
X7430445Y12742612D01*
X7424500Y12693102D01*
X7424500Y12693097D01*
X7424500Y12011966D01*
X7404815Y11944927D01*
X7352011Y11899172D01*
X7282853Y11889228D01*
X7219297Y11918253D01*
X7212819Y11924285D01*
X6976616Y12160487D01*
X6976614Y12160489D01*
X6873887Y12219799D01*
X6833718Y12230562D01*
X6833715Y12230563D01*
X6802267Y12238990D01*
X6759309Y12250500D01*
X6759308Y12250500D01*
X6209285Y12250500D01*
X6142246Y12270185D01*
X6133801Y12276123D01*
X6127629Y12280859D01*
X6127623Y12280862D01*
X5993712Y12336329D01*
X5993710Y12336330D01*
X5993709Y12336330D01*
X5921854Y12345790D01*
X5850001Y12355250D01*
X5849999Y12355250D01*
X5706291Y12336330D01*
X5706287Y12336329D01*
X5572377Y12280863D01*
X5457379Y12192621D01*
X5369137Y12077623D01*
X5313671Y11943713D01*
X5313670Y11943709D01*
X5294750Y11800000D01*
X5302234Y11743151D01*
X5313670Y11656292D01*
X5313671Y11656288D01*
X5369137Y11522378D01*
X5369138Y11522376D01*
X5369139Y11522375D01*
X5457379Y11407379D01*
X5572375Y11319139D01*
X5706291Y11263670D01*
X5833280Y11246952D01*
X5849999Y11244750D01*
X5850000Y11244750D01*
X5850001Y11244750D01*
X5864977Y11246722D01*
X5993709Y11263670D01*
X6127625Y11319139D01*
X6127629Y11319142D01*
X6133801Y11323877D01*
X6198970Y11349070D01*
X6209285Y11349500D01*
X6462035Y11349500D01*
X6529074Y11329815D01*
X6549715Y11313182D01*
X6923386Y10939510D01*
X7026113Y10880201D01*
X7050321Y10873716D01*
X7050324Y10873714D01*
X7050325Y10873714D01*
X7080447Y10865643D01*
X7140691Y10849500D01*
X7490715Y10849500D01*
X7557754Y10829815D01*
X7566199Y10823877D01*
X7572370Y10819142D01*
X7572373Y10819141D01*
X7572375Y10819139D01*
X7706291Y10763670D01*
X7833280Y10746952D01*
X7849999Y10744750D01*
X7850000Y10744750D01*
X7850001Y10744750D01*
X7864977Y10746722D01*
X7993709Y10763670D01*
X8127625Y10819139D01*
X8127629Y10819142D01*
X8133801Y10823877D01*
X8198970Y10849070D01*
X8209285Y10849500D01*
X9284217Y10849500D01*
X9351256Y10829815D01*
X9371898Y10813181D01*
X9470892Y10714187D01*
X9497772Y10673959D01*
X9519139Y10622375D01*
X9607379Y10507379D01*
X9722375Y10419139D01*
X9789333Y10391405D01*
X9856288Y10363671D01*
X9856290Y10363670D01*
X9859721Y10363219D01*
X9863995Y10362656D01*
X9927894Y10334394D01*
X9935500Y10327397D01*
X10013181Y10249716D01*
X10046666Y10188393D01*
X10049500Y10162035D01*
X10049500Y9395980D01*
X10029815Y9328941D01*
X10013181Y9308299D01*
X9806492Y9101611D01*
X9745169Y9068126D01*
X9735002Y9066354D01*
X9727286Y9065338D01*
X9727284Y9065338D01*
X9593370Y9009870D01*
X9478369Y8921626D01*
X9455290Y8891548D01*
X9398861Y8850346D01*
X9344587Y8847114D01*
X9344587Y8846339D01*
X9344586Y8846339D01*
X9340535Y8846873D01*
X9329115Y8846192D01*
X9324824Y8847261D01*
X9312499Y8850563D01*
X9312494Y8850564D01*
X9312493Y8850564D01*
X9299006Y8854178D01*
X9299005Y8854178D01*
X8428114Y8854178D01*
X8329242Y8854178D01*
X8329239Y8854178D01*
X8315754Y8850565D01*
X8315755Y8850564D01*
X8233738Y8828588D01*
X8233737Y8828587D01*
X8148114Y8779152D01*
X7599526Y8230564D01*
X7546026Y8137899D01*
X7544598Y8138724D01*
X7511868Y8096066D01*
X7507381Y8092624D01*
X7419137Y7977623D01*
X7363671Y7843713D01*
X7363670Y7843709D01*
X7344750Y7700001D01*
X7344750Y7700000D01*
X7363670Y7556292D01*
X7363671Y7556288D01*
X7419138Y7422376D01*
X7449696Y7382552D01*
X7474890Y7317383D01*
X7466675Y7261577D01*
X7435122Y7181564D01*
X7428485Y7126287D01*
X7424500Y7093102D01*
X7424500Y6306898D01*
X7430126Y6260046D01*
X7435122Y6218439D01*
X7435122Y6218437D01*
X7435123Y6218436D01*
X7448786Y6183790D01*
X7490639Y6077657D01*
X7582077Y5957078D01*
X7702656Y5865640D01*
X7702657Y5865640D01*
X7702658Y5865639D01*
X7843436Y5810123D01*
X7931898Y5799500D01*
X7931903Y5799500D01*
X9318097Y5799500D01*
X9318102Y5799500D01*
X9406564Y5810123D01*
X9547342Y5865639D01*
X9667922Y5957078D01*
X9759361Y6077658D01*
X9814877Y6218436D01*
X9825500Y6306898D01*
X9825500Y7093102D01*
X9814877Y7181564D01*
X9804050Y7209017D01*
X9797769Y7278603D01*
X9830105Y7340539D01*
X9890794Y7375161D01*
X9919405Y7378507D01*
X10239094Y7378507D01*
X10306133Y7358822D01*
X10326775Y7342188D01*
X10788181Y6880782D01*
X10821666Y6819459D01*
X10824500Y6793101D01*
X10824500Y5157026D01*
X10804815Y5089987D01*
X10798882Y5081548D01*
X10761045Y5032238D01*
X10719137Y4977623D01*
X10663671Y4843713D01*
X10663669Y4843708D01*
X10645845Y4708315D01*
X10617578Y4644418D01*
X10559254Y4605947D01*
X10522906Y4600500D01*
X10337082Y4600500D01*
X10270043Y4620185D01*
X10224288Y4672989D01*
X10222521Y4677048D01*
X10180862Y4777623D01*
X10180861Y4777624D01*
X10180861Y4777625D01*
X10092621Y4892621D01*
X9977625Y4980861D01*
X9977624Y4980862D01*
X9977622Y4980863D01*
X9843712Y5036329D01*
X9843710Y5036330D01*
X9843709Y5036330D01*
X9754658Y5048054D01*
X9700001Y5055250D01*
X9699999Y5055250D01*
X9556291Y5036330D01*
X9556287Y5036329D01*
X9422377Y4980863D01*
X9307379Y4892621D01*
X9219137Y4777623D01*
X9163671Y4643713D01*
X9163670Y4643709D01*
X9144750Y4500000D01*
X9156220Y4412875D01*
X9163670Y4356292D01*
X9163671Y4356288D01*
X9219137Y4222378D01*
X9219138Y4222376D01*
X9219139Y4222375D01*
X9307379Y4107379D01*
X9422375Y4019139D01*
X9461788Y4002814D01*
X9556288Y3963671D01*
X9556290Y3963670D01*
X9559721Y3963219D01*
X9563995Y3962656D01*
X9627894Y3934394D01*
X9635499Y3927397D01*
X9705188Y3857708D01*
X9773386Y3789510D01*
X9773388Y3789509D01*
X9773392Y3789506D01*
X9876111Y3730202D01*
X9876113Y3730201D01*
X9897386Y3724501D01*
X9897388Y3724500D01*
X9897389Y3724500D01*
X9917106Y3719218D01*
X9990691Y3699500D01*
X9990693Y3699500D01*
X11487125Y3699500D01*
X11487127Y3699500D01*
X11580428Y3724500D01*
X11601705Y3730201D01*
X11704432Y3789511D01*
X12110489Y4195568D01*
X12169799Y4298295D01*
X12184708Y4353937D01*
X12200500Y4412873D01*
X12200500Y7387127D01*
X12169799Y7501704D01*
X12140080Y7553178D01*
X12140080Y7553179D01*
X12110491Y7604429D01*
X12110487Y7604434D01*
X11911819Y7803102D01*
X11878334Y7864425D01*
X11875500Y7890783D01*
X11875500Y8187034D01*
X11895185Y8254073D01*
X11911819Y8274716D01*
X12000286Y8363182D01*
X12061610Y8396666D01*
X12087967Y8399500D01*
X13179270Y8399500D01*
X13209699Y8402354D01*
X13209701Y8402354D01*
X13286538Y8429241D01*
X13337882Y8447207D01*
X13447150Y8527850D01*
X13527793Y8637118D01*
X13562508Y8736328D01*
X13572646Y8765299D01*
X13572646Y8765301D01*
X13575500Y8795731D01*
X13575500Y9204270D01*
X13572646Y9234700D01*
X13572646Y9234702D01*
X13527793Y9362881D01*
X13527792Y9362883D01*
X13524500Y9367344D01*
X13480938Y9426369D01*
X13456968Y9491995D01*
X13472283Y9560165D01*
X13480932Y9573625D01*
X13527793Y9637118D01*
X13550219Y9701210D01*
X13572646Y9765299D01*
X13572646Y9765301D01*
X13575500Y9795731D01*
X13575500Y10204270D01*
X13572646Y10234700D01*
X13572646Y10234702D01*
X13527793Y10362881D01*
X13527792Y10362883D01*
X13527211Y10363670D01*
X13480938Y10426369D01*
X13456968Y10491995D01*
X13472283Y10560165D01*
X13480932Y10573625D01*
X13527793Y10637118D01*
X13565455Y10744750D01*
X13572646Y10765299D01*
X13572646Y10765301D01*
X13575500Y10795731D01*
X13575500Y11204270D01*
X13572646Y11234700D01*
X13572646Y11234702D01*
X13532626Y11349070D01*
X13527793Y11362882D01*
X13447150Y11472150D01*
X13447148Y11472151D01*
X13447148Y11472152D01*
X13362449Y11534662D01*
X13320198Y11590309D01*
X13313143Y11650616D01*
X13330250Y11780551D01*
X13311330Y11924260D01*
X13255861Y12058176D01*
X13167621Y12173172D01*
X13052625Y12261412D01*
X13052624Y12261413D01*
X13052622Y12261414D01*
X12918712Y12316880D01*
X12918710Y12316881D01*
X12918709Y12316881D01*
X12846854Y12326341D01*
X12775001Y12335801D01*
X12774998Y12335801D01*
X12701783Y12326162D01*
X12632748Y12336928D01*
X12580492Y12383308D01*
X12561607Y12450576D01*
X12562659Y12465287D01*
X12580250Y12598899D01*
X12580250Y12598900D01*
X12567848Y12693097D01*
X12561330Y12742608D01*
X12505861Y12876524D01*
X12417621Y12991520D01*
X12302625Y13079760D01*
X12302624Y13079761D01*
X12302622Y13079762D01*
X12168712Y13135228D01*
X12168710Y13135229D01*
X12168709Y13135229D01*
X12096854Y13144689D01*
X12025001Y13154149D01*
X12024999Y13154149D01*
X11881291Y13135229D01*
X11881287Y13135228D01*
X11747377Y13079762D01*
X11632379Y12991520D01*
X11544137Y12876521D01*
X11532647Y12848784D01*
X11505769Y12808560D01*
X11212181Y12514971D01*
X11150858Y12481486D01*
X11081167Y12486470D01*
X11025233Y12528341D01*
X11000816Y12593806D01*
X11000500Y12602652D01*
X11000500Y12812035D01*
X11020185Y12879074D01*
X11036819Y12899716D01*
X11812603Y13675500D01*
X12660490Y14523386D01*
X12719799Y14626113D01*
X12726285Y14650325D01*
X12726286Y14650325D01*
X12726286Y14650329D01*
X12750500Y14740691D01*
X12750500Y18743546D01*
X12770185Y18810585D01*
X12822989Y18856340D01*
X12842410Y18863322D01*
X12843702Y18863670D01*
X12843709Y18863670D01*
X12977625Y18919139D01*
X13092621Y19007379D01*
X13180861Y19122375D01*
X13236330Y19256291D01*
X13255250Y19400000D01*
X13236330Y19543709D01*
X13180861Y19677625D01*
X13092621Y19792621D01*
X12977625Y19880861D01*
X12977624Y19880862D01*
X12977622Y19880863D01*
X12843712Y19936329D01*
X12843710Y19936330D01*
X12843709Y19936330D01*
X12771854Y19945790D01*
X12700001Y19955250D01*
X12699999Y19955250D01*
X12556291Y19936330D01*
X12556287Y19936329D01*
X12422377Y19880863D01*
X12307372Y19792616D01*
X12301628Y19786871D01*
X12300040Y19788459D01*
X12253032Y19754139D01*
X12183285Y19749990D01*
X12161007Y19757398D01*
X12069995Y19797584D01*
X12069991Y19797585D01*
X12044868Y19800500D01*
X12044865Y19800500D01*
X11656186Y19800500D01*
X11589147Y19820185D01*
X11543392Y19872989D01*
X11533448Y19942147D01*
X11536296Y19956036D01*
X11555250Y20100000D01*
X11555250Y20100001D01*
X11553048Y20116720D01*
X11536330Y20243709D01*
X11480861Y20377625D01*
X11392621Y20492621D01*
X11277625Y20580861D01*
X11277624Y20580862D01*
X11277622Y20580863D01*
X11143712Y20636329D01*
X11143710Y20636330D01*
X11143709Y20636330D01*
X11066841Y20646450D01*
X11000001Y20655250D01*
X10999997Y20655250D01*
X10933151Y20646450D01*
X10864116Y20657216D01*
X10829286Y20681708D01*
X10592892Y20918102D01*
X10592891Y20918103D01*
X10507267Y20967538D01*
X10459515Y20980333D01*
X10459513Y20980334D01*
X10459511Y20980335D01*
X10411765Y20993128D01*
X10411764Y20993128D01*
X9967064Y20993128D01*
X9868192Y20993128D01*
X9820440Y20980333D01*
X9820439Y20980334D01*
X9772691Y20967539D01*
X9772690Y20967539D01*
X9687063Y20918101D01*
X9199526Y20430564D01*
X9150091Y20344941D01*
X9150091Y20344940D01*
X9150090Y20344938D01*
X9124500Y20249435D01*
X9124500Y20249433D01*
X9124500Y17606899D01*
X9104815Y17539860D01*
X9088181Y17519218D01*
X8280782Y16711819D01*
X8219459Y16678334D01*
X8193101Y16675500D01*
X4350564Y16675500D01*
X4302812Y16662705D01*
X4302811Y16662706D01*
X4255063Y16649911D01*
X4255062Y16649911D01*
X4169435Y16600473D01*
X2999527Y15430565D01*
X2999525Y15430563D01*
X2999525Y15430562D01*
X2950090Y15344938D01*
X2950090Y15344937D01*
X2938049Y15300000D01*
X2924816Y15250612D01*
X2924803Y15250564D01*
X2924500Y15249436D01*
X2924500Y12457026D01*
X2904815Y12389987D01*
X2898882Y12381548D01*
X2863779Y12335801D01*
X2819137Y12277623D01*
X2763671Y12143713D01*
X2763670Y12143709D01*
X2752988Y12062569D01*
X2744750Y12000000D01*
X2752160Y11943713D01*
X2763670Y11856292D01*
X2763671Y11856288D01*
X2819137Y11722378D01*
X2819138Y11722376D01*
X2819139Y11722375D01*
X2898876Y11618460D01*
X2924070Y11553291D01*
X2924500Y11542974D01*
X2924500Y9647438D01*
X2904815Y9580399D01*
X2852011Y9534644D01*
X2847953Y9532877D01*
X2722376Y9480862D01*
X2607379Y9392621D01*
X2519137Y9277623D01*
X2463671Y9143713D01*
X2463670Y9143709D01*
X2444750Y9000001D01*
X2444750Y8999998D01*
X2451218Y8950864D01*
X2440452Y8881829D01*
X2415960Y8846999D01*
X2191349Y8622386D01*
X2121438Y8552476D01*
X2121436Y8552474D01*
X2121436Y8552473D01*
X2107220Y8527850D01*
X2072001Y8466850D01*
X2072001Y8466849D01*
X2061924Y8429242D01*
X2061924Y8429241D01*
X2061923Y8429242D01*
X2048512Y8379186D01*
X2048509Y8379174D01*
X2046411Y8371347D01*
X2046411Y5115093D01*
X2026726Y5048054D01*
X1973922Y5002299D01*
X1969865Y5000532D01*
X1922375Y4980861D01*
X1807379Y4892621D01*
X1719137Y4777623D01*
X1663671Y4643713D01*
X1663670Y4643709D01*
X1644750Y4500000D01*
X1656220Y4412875D01*
X1663670Y4356292D01*
X1663671Y4356288D01*
X1719137Y4222378D01*
X1719138Y4222376D01*
X1719139Y4222375D01*
X1807379Y4107379D01*
X1835043Y4086151D01*
X1876246Y4029724D01*
X1880401Y3959978D01*
X1846189Y3899058D01*
X1828780Y3885864D01*
X1828823Y3885808D01*
X1822377Y3880862D01*
X1822375Y3880861D01*
X1751909Y3826790D01*
X1707379Y3792621D01*
X1619137Y3677623D01*
X1563671Y3543713D01*
X1563670Y3543709D01*
X1544750Y3400001D01*
X1000000Y3400001D01*
X1000000Y25981408D01*
X11873500Y25981408D01*
X11873500Y25818593D01*
X11905259Y25658927D01*
X11905262Y25658918D01*
X11967562Y25508510D01*
X11967563Y25508508D01*
X12058015Y25373138D01*
X12058018Y25373134D01*
X12173133Y25258019D01*
X12173137Y25258016D01*
X12308505Y25167565D01*
X12308506Y25167565D01*
X12308507Y25167564D01*
X12308509Y25167563D01*
X12408781Y25126030D01*
X12458919Y25105262D01*
X12458921Y25105262D01*
X12458926Y25105260D01*
X12618592Y25073501D01*
X12618595Y25073500D01*
X12618597Y25073500D01*
X12781405Y25073500D01*
X12781406Y25073501D01*
X12834629Y25084088D01*
X12941073Y25105260D01*
X12941076Y25105262D01*
X12941081Y25105262D01*
X13091495Y25167565D01*
X13226863Y25258016D01*
X13341984Y25373137D01*
X13432435Y25508505D01*
X13494738Y25658919D01*
X13526500Y25818597D01*
X13526500Y25981403D01*
X13526500Y25981406D01*
X13526499Y25981408D01*
X13494740Y26141074D01*
X13494737Y26141083D01*
X13432437Y26291491D01*
X13432436Y26291493D01*
X13425242Y26302259D01*
X13341984Y26426863D01*
X13341981Y26426867D01*
X13226866Y26541982D01*
X13226862Y26541985D01*
X13091492Y26632437D01*
X13091490Y26632438D01*
X12941082Y26694738D01*
X12941073Y26694741D01*
X12781406Y26726500D01*
X12781403Y26726500D01*
X12618597Y26726500D01*
X12618594Y26726500D01*
X12458926Y26694741D01*
X12458917Y26694738D01*
X12308509Y26632438D01*
X12308507Y26632437D01*
X12173137Y26541985D01*
X12173133Y26541982D01*
X12058018Y26426867D01*
X12058015Y26426863D01*
X11967563Y26291493D01*
X11967562Y26291491D01*
X11905262Y26141083D01*
X11905259Y26141074D01*
X11873500Y25981408D01*
X1000000Y25981408D01*
X1000000Y25998474D01*
X1000037Y26001510D01*
X1002145Y26087579D01*
X1002146Y26087581D01*
X1002145Y26087585D01*
X1004490Y26108728D01*
X1038362Y26279017D01*
X1045412Y26302259D01*
X1111274Y26461262D01*
X1122726Y26482686D01*
X1218338Y26625781D01*
X1233751Y26644561D01*
X1355439Y26766249D01*
X1374219Y26781662D01*
X1517314Y26877274D01*
X1538738Y26888726D01*
X1697741Y26954588D01*
X1720983Y26961638D01*
X1891272Y26995510D01*
X1912415Y26997855D01*
X1993037Y26999830D01*
X1998491Y26999963D01*
X2001527Y27000000D01*
X12998473Y27000000D01*
X13001509Y26999963D01*
G37*
%TD.AperFunction*%
%TD*%
M02*
