%TF.GenerationSoftware,KiCad,Pcbnew,8.0.7*%
%TF.CreationDate,2025-01-22T04:17:01+01:00*%
%TF.ProjectId,beacon,62656163-6f6e-42e6-9b69-6361645f7063,rev?*%
%TF.SameCoordinates,Original*%
%TF.FileFunction,Legend,Top*%
%TF.FilePolarity,Positive*%
%FSLAX46Y46*%
G04 Gerber Fmt 4.6, Leading zero omitted, Abs format (unit mm)*
G04 Created by KiCad (PCBNEW 8.0.7) date 2025-01-22 04:17:01*
%MOMM*%
%LPD*%
G01*
G04 APERTURE LIST*
G04 Aperture macros list*
%AMRoundRect*
0 Rectangle with rounded corners*
0 $1 Rounding radius*
0 $2 $3 $4 $5 $6 $7 $8 $9 X,Y pos of 4 corners*
0 Add a 4 corners polygon primitive as box body*
4,1,4,$2,$3,$4,$5,$6,$7,$8,$9,$2,$3,0*
0 Add four circle primitives for the rounded corners*
1,1,$1+$1,$2,$3*
1,1,$1+$1,$4,$5*
1,1,$1+$1,$6,$7*
1,1,$1+$1,$8,$9*
0 Add four rect primitives between the rounded corners*
20,1,$1+$1,$2,$3,$4,$5,0*
20,1,$1+$1,$4,$5,$6,$7,0*
20,1,$1+$1,$6,$7,$8,$9,0*
20,1,$1+$1,$8,$9,$2,$3,0*%
%AMFreePoly0*
4,1,11,1.372500,0.090000,0.862500,0.090000,0.862500,-0.165000,1.372500,-0.165000,1.372500,-0.587500,0.612500,-0.587500,0.612500,-0.495000,-0.862500,-0.495000,-0.862500,0.495000,1.372500,0.495000,1.372500,0.090000,1.372500,0.090000,$1*%
%AMFreePoly1*
4,1,11,1.372500,0.165000,0.862500,0.165000,0.862500,-0.090000,1.372500,-0.090000,1.372500,-0.495000,-0.862500,-0.495000,-0.862500,0.495000,0.612500,0.495000,0.612500,0.587500,1.372500,0.587500,1.372500,0.165000,1.372500,0.165000,$1*%
G04 Aperture macros list end*
%ADD10C,0.175000*%
%ADD11C,0.120000*%
%ADD12C,0.100000*%
%ADD13R,2.200000X2.200000*%
%ADD14C,2.200000*%
%ADD15RoundRect,0.150000X-0.200000X0.150000X-0.200000X-0.150000X0.200000X-0.150000X0.200000X0.150000X0*%
%ADD16RoundRect,0.150000X0.150000X0.200000X-0.150000X0.200000X-0.150000X-0.200000X0.150000X-0.200000X0*%
%ADD17RoundRect,0.135000X0.185000X-0.135000X0.185000X0.135000X-0.185000X0.135000X-0.185000X-0.135000X0*%
%ADD18RoundRect,0.147500X0.147500X0.172500X-0.147500X0.172500X-0.147500X-0.172500X0.147500X-0.172500X0*%
%ADD19RoundRect,0.140000X0.140000X0.170000X-0.140000X0.170000X-0.140000X-0.170000X0.140000X-0.170000X0*%
%ADD20RoundRect,0.140000X-0.140000X-0.170000X0.140000X-0.170000X0.140000X0.170000X-0.140000X0.170000X0*%
%ADD21RoundRect,0.140000X-0.170000X0.140000X-0.170000X-0.140000X0.170000X-0.140000X0.170000X0.140000X0*%
%ADD22RoundRect,0.140000X0.170000X-0.140000X0.170000X0.140000X-0.170000X0.140000X-0.170000X-0.140000X0*%
%ADD23RoundRect,0.135000X-0.135000X-0.185000X0.135000X-0.185000X0.135000X0.185000X-0.135000X0.185000X0*%
%ADD24RoundRect,0.062500X0.375000X0.062500X-0.375000X0.062500X-0.375000X-0.062500X0.375000X-0.062500X0*%
%ADD25RoundRect,0.062500X0.062500X0.375000X-0.062500X0.375000X-0.062500X-0.375000X0.062500X-0.375000X0*%
%ADD26R,5.600000X5.600000*%
%ADD27C,3.800000*%
%ADD28RoundRect,0.135000X-0.185000X0.135000X-0.185000X-0.135000X0.185000X-0.135000X0.185000X0.135000X0*%
%ADD29C,1.300000*%
%ADD30RoundRect,0.150000X-0.150000X0.587500X-0.150000X-0.587500X0.150000X-0.587500X0.150000X0.587500X0*%
%ADD31RoundRect,0.250000X0.250000X0.475000X-0.250000X0.475000X-0.250000X-0.475000X0.250000X-0.475000X0*%
%ADD32R,0.800000X0.900000*%
%ADD33RoundRect,0.150000X0.150000X-0.587500X0.150000X0.587500X-0.150000X0.587500X-0.150000X-0.587500X0*%
%ADD34RoundRect,0.062500X0.062500X-0.387500X0.062500X0.387500X-0.062500X0.387500X-0.062500X-0.387500X0*%
%ADD35R,1.600000X0.200000*%
%ADD36R,0.250000X0.675000*%
%ADD37R,0.675000X0.250000*%
%ADD38R,0.550000X0.950000*%
%ADD39RoundRect,0.125000X0.125000X-0.150000X0.125000X0.150000X-0.125000X0.150000X-0.125000X-0.150000X0*%
%ADD40RoundRect,0.147500X-0.147500X-0.172500X0.147500X-0.172500X0.147500X0.172500X-0.147500X0.172500X0*%
%ADD41RoundRect,0.147500X0.172500X-0.147500X0.172500X0.147500X-0.172500X0.147500X-0.172500X-0.147500X0*%
%ADD42RoundRect,0.218750X0.218750X0.256250X-0.218750X0.256250X-0.218750X-0.256250X0.218750X-0.256250X0*%
%ADD43R,0.405000X0.990000*%
%ADD44FreePoly0,270.000000*%
%ADD45FreePoly1,270.000000*%
%ADD46RoundRect,0.500000X-0.500000X-1.250000X0.500000X-1.250000X0.500000X1.250000X-0.500000X1.250000X0*%
%ADD47R,2.100000X2.100000*%
%ADD48C,2.100000*%
G04 APERTURE END LIST*
D10*
X15315131Y26361434D02*
X15415131Y26328100D01*
X15415131Y26328100D02*
X15448464Y26294767D01*
X15448464Y26294767D02*
X15481797Y26228100D01*
X15481797Y26228100D02*
X15481797Y26128100D01*
X15481797Y26128100D02*
X15448464Y26061434D01*
X15448464Y26061434D02*
X15415131Y26028100D01*
X15415131Y26028100D02*
X15348464Y25994767D01*
X15348464Y25994767D02*
X15081797Y25994767D01*
X15081797Y25994767D02*
X15081797Y26694767D01*
X15081797Y26694767D02*
X15315131Y26694767D01*
X15315131Y26694767D02*
X15381797Y26661434D01*
X15381797Y26661434D02*
X15415131Y26628100D01*
X15415131Y26628100D02*
X15448464Y26561434D01*
X15448464Y26561434D02*
X15448464Y26494767D01*
X15448464Y26494767D02*
X15415131Y26428100D01*
X15415131Y26428100D02*
X15381797Y26394767D01*
X15381797Y26394767D02*
X15315131Y26361434D01*
X15315131Y26361434D02*
X15081797Y26361434D01*
X15915131Y26694767D02*
X16048464Y26694767D01*
X16048464Y26694767D02*
X16115131Y26661434D01*
X16115131Y26661434D02*
X16181797Y26594767D01*
X16181797Y26594767D02*
X16215131Y26461434D01*
X16215131Y26461434D02*
X16215131Y26228100D01*
X16215131Y26228100D02*
X16181797Y26094767D01*
X16181797Y26094767D02*
X16115131Y26028100D01*
X16115131Y26028100D02*
X16048464Y25994767D01*
X16048464Y25994767D02*
X15915131Y25994767D01*
X15915131Y25994767D02*
X15848464Y26028100D01*
X15848464Y26028100D02*
X15781797Y26094767D01*
X15781797Y26094767D02*
X15748464Y26228100D01*
X15748464Y26228100D02*
X15748464Y26461434D01*
X15748464Y26461434D02*
X15781797Y26594767D01*
X15781797Y26594767D02*
X15848464Y26661434D01*
X15848464Y26661434D02*
X15915131Y26694767D01*
X16648464Y26694767D02*
X16781797Y26694767D01*
X16781797Y26694767D02*
X16848464Y26661434D01*
X16848464Y26661434D02*
X16915130Y26594767D01*
X16915130Y26594767D02*
X16948464Y26461434D01*
X16948464Y26461434D02*
X16948464Y26228100D01*
X16948464Y26228100D02*
X16915130Y26094767D01*
X16915130Y26094767D02*
X16848464Y26028100D01*
X16848464Y26028100D02*
X16781797Y25994767D01*
X16781797Y25994767D02*
X16648464Y25994767D01*
X16648464Y25994767D02*
X16581797Y26028100D01*
X16581797Y26028100D02*
X16515130Y26094767D01*
X16515130Y26094767D02*
X16481797Y26228100D01*
X16481797Y26228100D02*
X16481797Y26461434D01*
X16481797Y26461434D02*
X16515130Y26594767D01*
X16515130Y26594767D02*
X16581797Y26661434D01*
X16581797Y26661434D02*
X16648464Y26694767D01*
X17148463Y26694767D02*
X17548463Y26694767D01*
X17348463Y25994767D02*
X17348463Y26694767D01*
D11*
%TO.C,D2*%
X11750000Y11610000D02*
X11750000Y8950000D01*
X13450000Y11610000D02*
X11750000Y11610000D01*
X13450000Y11610000D02*
X13450000Y8950000D01*
%TO.C,D3*%
X11810000Y9750000D02*
X9150000Y9750000D01*
X11810000Y8050000D02*
X9150000Y8050000D01*
X11810000Y8050000D02*
X11810000Y9750000D01*
%TO.C,R7*%
X7520000Y6546359D02*
X7520000Y6853641D01*
X8280000Y6546359D02*
X8280000Y6853641D01*
%TO.C,R8*%
X7520000Y8346359D02*
X7520000Y8653641D01*
X8280000Y8346359D02*
X8280000Y8653641D01*
%TO.C,C5*%
X5007836Y20760000D02*
X4792164Y20760000D01*
X5007836Y20040000D02*
X4792164Y20040000D01*
%TO.C,C16*%
X4892164Y6060000D02*
X5107836Y6060000D01*
X4892164Y5340000D02*
X5107836Y5340000D01*
%TO.C,C7*%
X5707836Y22560000D02*
X5492164Y22560000D01*
X5707836Y21840000D02*
X5492164Y21840000D01*
%TO.C,C11*%
X10340000Y10807836D02*
X10340000Y10592164D01*
X11060000Y10807836D02*
X11060000Y10592164D01*
%TO.C,C21*%
X6540000Y20792164D02*
X6540000Y21007836D01*
X7260000Y20792164D02*
X7260000Y21007836D01*
%TO.C,C13*%
X9992164Y7760000D02*
X10207836Y7760000D01*
X9992164Y7040000D02*
X10207836Y7040000D01*
%TO.C,C3*%
X8940000Y10807836D02*
X8940000Y10592164D01*
X9660000Y10807836D02*
X9660000Y10592164D01*
%TO.C,R5*%
X8446359Y880000D02*
X8753641Y880000D01*
X8446359Y120000D02*
X8753641Y120000D01*
%TO.C,C18*%
X4840000Y11007836D02*
X4840000Y10792164D01*
X5560000Y11007836D02*
X5560000Y10792164D01*
%TO.C,C12*%
X3107836Y20660000D02*
X2892164Y20660000D01*
X3107836Y19940000D02*
X2892164Y19940000D01*
%TO.C,U1*%
X4990000Y19410000D02*
X4990000Y18935000D01*
X4990000Y12190000D02*
X4990000Y12665000D01*
X5465000Y19410000D02*
X4990000Y19410000D01*
X5465000Y12190000D02*
X4990000Y12190000D01*
X11735000Y19410000D02*
X12210000Y19410000D01*
X11735000Y12190000D02*
X12210000Y12190000D01*
X12210000Y19410000D02*
X12210000Y18935000D01*
%TO.C,R3*%
X10420000Y21746359D02*
X10420000Y22053641D01*
X11180000Y21746359D02*
X11180000Y22053641D01*
%TO.C,R6*%
X8220000Y2253641D02*
X8220000Y1946359D01*
X8980000Y2253641D02*
X8980000Y1946359D01*
%TO.C,C14*%
X7340000Y4292164D02*
X7340000Y4507836D01*
X8060000Y4292164D02*
X8060000Y4507836D01*
%TO.C,U2*%
X8640000Y5000000D02*
X8640000Y5650000D01*
X8640000Y5000000D02*
X8640000Y4350000D01*
X11760000Y5000000D02*
X11760000Y6675000D01*
X11760000Y5000000D02*
X11760000Y4350000D01*
%TO.C,C6*%
X8340000Y21992164D02*
X8340000Y22207836D01*
X9060000Y21992164D02*
X9060000Y22207836D01*
%TO.C,C15*%
X5640000Y11007836D02*
X5640000Y10792164D01*
X6360000Y11007836D02*
X6360000Y10792164D01*
%TO.C,R4*%
X10246359Y23680000D02*
X10553641Y23680000D01*
X10246359Y22920000D02*
X10553641Y22920000D01*
%TO.C,C1*%
X12092164Y20560000D02*
X12307836Y20560000D01*
X12092164Y19840000D02*
X12307836Y19840000D01*
%TO.C,C20*%
X9240000Y21792164D02*
X9240000Y22007836D01*
X9960000Y21792164D02*
X9960000Y22007836D01*
%TO.C,C10*%
X2907836Y16060000D02*
X2692164Y16060000D01*
X2907836Y15340000D02*
X2692164Y15340000D01*
%TO.C,R9*%
X9120000Y2253641D02*
X9120000Y1946359D01*
X9880000Y2253641D02*
X9880000Y1946359D01*
%TO.C,C4*%
X3707836Y21660000D02*
X3492164Y21660000D01*
X3707836Y20940000D02*
X3492164Y20940000D01*
%TO.C,C2*%
X7540000Y10507836D02*
X7540000Y10292164D01*
X8260000Y10507836D02*
X8260000Y10292164D01*
%TO.C,R10*%
X12020000Y3553641D02*
X12020000Y3246359D01*
X12780000Y3553641D02*
X12780000Y3246359D01*
%TO.C,R1*%
X12020000Y5146359D02*
X12020000Y5453641D01*
X12780000Y5146359D02*
X12780000Y5453641D01*
%TO.C,C19*%
X3661252Y-4365000D02*
X3138748Y-4365000D01*
X3661252Y-5835000D02*
X3138748Y-5835000D01*
%TO.C,Y1*%
X1900000Y16450000D02*
X4200000Y16450000D01*
X4200000Y16450000D02*
X4200000Y19150000D01*
%TO.C,C9*%
X2907836Y14960000D02*
X2692164Y14960000D01*
X2907836Y14240000D02*
X2692164Y14240000D01*
%TO.C,Q1*%
X1840000Y-400000D02*
X1840000Y250000D01*
X1840000Y-400000D02*
X1840000Y-1050000D01*
X4960000Y-400000D02*
X4960000Y250000D01*
X4960000Y-400000D02*
X4960000Y-1050000D01*
X1890000Y-1562500D02*
X1560000Y-1802500D01*
X1560000Y-1322500D01*
X1890000Y-1562500D01*
G36*
X1890000Y-1562500D02*
G01*
X1560000Y-1802500D01*
X1560000Y-1322500D01*
X1890000Y-1562500D01*
G37*
%TO.C,R2*%
X10020000Y2253641D02*
X10020000Y1946359D01*
X10780000Y2253641D02*
X10780000Y1946359D01*
%TO.C,U4*%
X1665000Y2500000D02*
X1665000Y5500000D01*
X3935000Y2500000D02*
X3935000Y5500000D01*
X1750000Y1670000D02*
X1470000Y1950000D01*
X1750000Y1950000D01*
X1750000Y1670000D01*
G36*
X1750000Y1670000D02*
G01*
X1470000Y1950000D01*
X1750000Y1950000D01*
X1750000Y1670000D01*
G37*
D12*
%TO.C,U6*%
X1750000Y13600000D02*
X1750000Y12880000D01*
X1750000Y13600000D02*
X1970000Y13600000D01*
X1750000Y10400000D02*
X1750000Y11120000D01*
X1970000Y10400000D02*
X1750000Y10400000D01*
X4450000Y13400000D02*
X4450000Y12880000D01*
X4450000Y11120000D02*
X4450000Y10400000D01*
X4450000Y10400000D02*
X4230000Y10400000D01*
X4810000Y13600000D02*
X4450000Y13600000D01*
X4450000Y13960000D01*
X4810000Y13600000D01*
G36*
X4810000Y13600000D02*
G01*
X4450000Y13600000D01*
X4450000Y13960000D01*
X4810000Y13600000D01*
G37*
D11*
%TO.C,U3*%
X1800000Y9650000D02*
X2300000Y9650000D01*
X1800000Y9150000D02*
X1800000Y9650000D01*
X1800000Y6650000D02*
X1800000Y7400000D01*
X6500000Y9650000D02*
X7000000Y9650000D01*
X7000000Y9650000D02*
X7000000Y9150000D01*
X7000000Y6850000D02*
X7000000Y6350000D01*
X7000000Y6350000D02*
X6500000Y6350000D01*
X1800000Y6090000D02*
X1440000Y6450000D01*
X1800000Y6450000D01*
X1800000Y6090000D01*
G36*
X1800000Y6090000D02*
G01*
X1440000Y6450000D01*
X1800000Y6450000D01*
X1800000Y6090000D01*
G37*
%TO.C,C17*%
X3661252Y-2465000D02*
X3138748Y-2465000D01*
X3661252Y-3935000D02*
X3138748Y-3935000D01*
D12*
%TO.C,SW1*%
X11500000Y21600000D02*
X11500000Y23000000D01*
X12900000Y21600000D02*
X12900000Y23000000D01*
X12647214Y22300000D02*
G75*
G02*
X11752786Y22300000I-447214J0D01*
G01*
X11752786Y22300000D02*
G75*
G02*
X12647214Y22300000I447214J0D01*
G01*
D11*
%TO.C,C8*%
X3607836Y22560000D02*
X3392164Y22560000D01*
X3607836Y21840000D02*
X3392164Y21840000D01*
%TO.C,D1*%
X10300000Y23865000D02*
X12585000Y23865000D01*
X12585000Y25335000D02*
X10300000Y25335000D01*
X12585000Y23865000D02*
X12585000Y25335000D01*
%TO.C,Q2*%
X9955000Y542500D02*
X9955000Y-2727500D01*
X10140000Y542500D02*
X9955000Y542500D01*
X10140000Y-2727500D02*
X9955000Y-2727500D01*
X13060000Y542500D02*
X13245000Y542500D01*
X13060000Y-2727500D02*
X13245000Y-2727500D01*
X13245000Y542500D02*
X13245000Y-2727500D01*
X12575000Y1107500D02*
X12335000Y1437500D01*
X12815000Y1437500D01*
X12575000Y1107500D01*
G36*
X12575000Y1107500D02*
G01*
X12335000Y1437500D01*
X12815000Y1437500D01*
X12575000Y1107500D01*
G37*
%TD*%
%LPC*%
D13*
%TO.C,J3*%
X11315000Y-7600000D03*
D14*
X8775000Y-7600000D03*
X6235000Y-7600000D03*
X3695000Y-7600000D03*
%TD*%
D15*
%TO.C,D2*%
X12600000Y11050000D03*
X12600000Y8950000D03*
%TD*%
D16*
%TO.C,D3*%
X11250000Y8900000D03*
X9150000Y8900000D03*
%TD*%
D17*
%TO.C,R7*%
X7900000Y6190000D03*
X7900000Y7210000D03*
%TD*%
D18*
%TO.C,L3*%
X5215000Y23050000D03*
X6185000Y23050000D03*
%TD*%
D17*
%TO.C,R8*%
X7900000Y7990000D03*
X7900000Y9010000D03*
%TD*%
D19*
%TO.C,C5*%
X5380000Y20400000D03*
X4420000Y20400000D03*
%TD*%
D20*
%TO.C,C16*%
X4520000Y5700000D03*
X5480000Y5700000D03*
%TD*%
D19*
%TO.C,C7*%
X6080000Y22200000D03*
X5120000Y22200000D03*
%TD*%
D21*
%TO.C,C11*%
X10700000Y11180000D03*
X10700000Y10220000D03*
%TD*%
D22*
%TO.C,C21*%
X6900000Y20420000D03*
X6900000Y21380000D03*
%TD*%
D20*
%TO.C,C13*%
X9620000Y7400000D03*
X10580000Y7400000D03*
%TD*%
D21*
%TO.C,C3*%
X9300000Y11180000D03*
X9300000Y10220000D03*
%TD*%
D23*
%TO.C,R5*%
X8090000Y500000D03*
X9110000Y500000D03*
%TD*%
D21*
%TO.C,C18*%
X5200000Y11380000D03*
X5200000Y10420000D03*
%TD*%
D19*
%TO.C,C12*%
X3480000Y20300000D03*
X2520000Y20300000D03*
%TD*%
D24*
%TO.C,U1*%
X12037500Y13050000D03*
X12037500Y13550000D03*
X12037500Y14050000D03*
X12037500Y14550000D03*
X12037500Y15050000D03*
X12037500Y15550000D03*
X12037500Y16050000D03*
X12037500Y16550000D03*
X12037500Y17050000D03*
X12037500Y17550000D03*
X12037500Y18050000D03*
X12037500Y18550000D03*
D25*
X11350000Y19237500D03*
X10850000Y19237500D03*
X10350000Y19237500D03*
X9850000Y19237500D03*
X9350000Y19237500D03*
X8850000Y19237500D03*
X8350000Y19237500D03*
X7850000Y19237500D03*
X7350000Y19237500D03*
X6850000Y19237500D03*
X6350000Y19237500D03*
X5850000Y19237500D03*
D24*
X5162500Y18550000D03*
X5162500Y18050000D03*
X5162500Y17550000D03*
X5162500Y17050000D03*
X5162500Y16550000D03*
X5162500Y16050000D03*
X5162500Y15550000D03*
X5162500Y15050000D03*
X5162500Y14550000D03*
X5162500Y14050000D03*
X5162500Y13550000D03*
X5162500Y13050000D03*
D25*
X5850000Y12362500D03*
X6350000Y12362500D03*
X6850000Y12362500D03*
X7350000Y12362500D03*
X7850000Y12362500D03*
X8350000Y12362500D03*
X8850000Y12362500D03*
X9350000Y12362500D03*
X9850000Y12362500D03*
X10350000Y12362500D03*
X10850000Y12362500D03*
X11350000Y12362500D03*
D26*
X8600000Y15800000D03*
%TD*%
D27*
%TO.C,H3*%
X7500000Y25300000D03*
%TD*%
D17*
%TO.C,R3*%
X10800000Y21390000D03*
X10800000Y22410000D03*
%TD*%
D28*
%TO.C,R6*%
X8600000Y2610000D03*
X8600000Y1590000D03*
%TD*%
D29*
%TO.C,H2*%
X10000000Y-5400000D03*
%TD*%
D22*
%TO.C,C14*%
X7700000Y3920000D03*
X7700000Y4880000D03*
%TD*%
D30*
%TO.C,U2*%
X11150000Y5937500D03*
X9250000Y5937500D03*
X10200000Y4062500D03*
%TD*%
D22*
%TO.C,C6*%
X8700000Y21620000D03*
X8700000Y22580000D03*
%TD*%
D21*
%TO.C,C15*%
X6000000Y11380000D03*
X6000000Y10420000D03*
%TD*%
D23*
%TO.C,R4*%
X9890000Y23300000D03*
X10910000Y23300000D03*
%TD*%
D20*
%TO.C,C1*%
X11720000Y20200000D03*
X12680000Y20200000D03*
%TD*%
D22*
%TO.C,C20*%
X9600000Y21420000D03*
X9600000Y22380000D03*
%TD*%
D19*
%TO.C,C10*%
X3280000Y15700000D03*
X2320000Y15700000D03*
%TD*%
D28*
%TO.C,R9*%
X9500000Y2610000D03*
X9500000Y1590000D03*
%TD*%
D19*
%TO.C,C4*%
X4080000Y21300000D03*
X3120000Y21300000D03*
%TD*%
D21*
%TO.C,C2*%
X7900000Y10880000D03*
X7900000Y9920000D03*
%TD*%
D28*
%TO.C,R10*%
X12400000Y3910000D03*
X12400000Y2890000D03*
%TD*%
D17*
%TO.C,R1*%
X12400000Y4790000D03*
X12400000Y5810000D03*
%TD*%
D31*
%TO.C,C19*%
X4350000Y-5100000D03*
X2450000Y-5100000D03*
%TD*%
D32*
%TO.C,Y1*%
X3600000Y17100000D03*
X3600000Y18500000D03*
X2500000Y18500000D03*
X2500000Y17100000D03*
%TD*%
D19*
%TO.C,C9*%
X3280000Y14600000D03*
X2320000Y14600000D03*
%TD*%
D33*
%TO.C,Q1*%
X2450000Y-1337500D03*
X4350000Y-1337500D03*
X3400000Y537500D03*
%TD*%
D28*
%TO.C,R2*%
X10400000Y2610000D03*
X10400000Y1590000D03*
%TD*%
D34*
%TO.C,U4*%
X2050000Y2575000D03*
X2550000Y2575000D03*
X3050000Y2575000D03*
X3550000Y2575000D03*
X3550000Y5425000D03*
X3050000Y5425000D03*
X2550000Y5425000D03*
X2050000Y5425000D03*
D35*
X2800000Y4000000D03*
%TD*%
D36*
%TO.C,U6*%
X3850000Y13262500D03*
X3350000Y13262500D03*
X2850000Y13262500D03*
X2350000Y13262500D03*
D37*
X2087500Y12500000D03*
X2087500Y12000000D03*
X2087500Y11500000D03*
D36*
X2350000Y10737500D03*
X2850000Y10737500D03*
X3350000Y10737500D03*
X3850000Y10737500D03*
D37*
X4112500Y11500000D03*
X4112500Y12000000D03*
X4112500Y12500000D03*
%TD*%
D29*
%TO.C,H1*%
X12700000Y25900000D03*
%TD*%
D38*
%TO.C,U3*%
X2525000Y6925000D03*
X3775000Y6925000D03*
X5025000Y6925000D03*
X6275000Y6925000D03*
X6275000Y9075000D03*
X5025000Y9075000D03*
X3775000Y9075000D03*
X2525000Y9075000D03*
%TD*%
D31*
%TO.C,C17*%
X4350000Y-3200000D03*
X2450000Y-3200000D03*
%TD*%
D39*
%TO.C,SW1*%
X11800000Y20975000D03*
X12600000Y20975000D03*
X11800000Y23625000D03*
X12600000Y23625000D03*
%TD*%
D40*
%TO.C,L1*%
X5015000Y21300000D03*
X5985000Y21300000D03*
%TD*%
D19*
%TO.C,C8*%
X3980000Y22200000D03*
X3020000Y22200000D03*
%TD*%
D40*
%TO.C,L4*%
X7815000Y20700000D03*
X8785000Y20700000D03*
%TD*%
D41*
%TO.C,L2*%
X7800000Y21615000D03*
X7800000Y22585000D03*
%TD*%
D42*
%TO.C,D1*%
X11887500Y24600000D03*
X10312500Y24600000D03*
%TD*%
D43*
%TO.C,Q2*%
X12590000Y342500D03*
X11930000Y342500D03*
X11270000Y342500D03*
X10610000Y342500D03*
D44*
X10992500Y-1650000D03*
D45*
X12207500Y-1650000D03*
%TD*%
D46*
%TO.C,AE1*%
X3800000Y24700000D03*
%TD*%
D27*
%TO.C,H4*%
X7500000Y-2200000D03*
%TD*%
D47*
%TO.C,BT1*%
X5900000Y1530000D03*
D48*
X5900000Y4070000D03*
%TD*%
%LPD*%
M02*
