M48
; DRILL file {KiCad 8.0.7} date 2025-01-22T04:17:01+0100
; FORMAT={-:-/ absolute / inch / decimal}
; #@! TF.CreationDate,2025-01-22T04:17:01+01:00
; #@! TF.GenerationSoftware,Kicad,Pcbnew,8.0.7
; #@! TF.FileFunction,Plated,1,2,PTH
FMAT,2
INCH
; #@! TA.AperFunction,Plated,PTH,ViaDrill
T1C0.0118
; #@! TA.AperFunction,Plated,PTH,ComponentDrill
T2C0.0433
; #@! TA.AperFunction,Plated,PTH,ComponentDrill
T3C0.0866
%
G90
G05
T1
X0.0709Y0.8031
X0.0709Y0.2598
X0.0787Y0.9764
X0.0827Y0.1339
X0.0827Y0.0039
X0.0866Y0.878
X0.0866Y0.1772
X0.0866Y-0.2559
X0.0906Y0.8425
X0.0906Y0.6417
X0.0945Y0.5551
X0.1102Y0.1339
X0.1112Y0.4899
X0.1181Y0.3543
X0.126Y-0.0709
X0.1299Y0.4724
X0.1299Y-0.1654
X0.1299Y-0.2362
X0.1378Y0.752
X0.1388Y0.1811
X0.1535Y0.2441
X0.1575Y0.5709
X0.1614Y0.6024
X0.1654Y0.7795
X0.1693Y0.3819
X0.1731Y0.5265
X0.1732Y0.3268
X0.1762Y0.5519
X0.185Y0.8819
X0.2047Y0.315
X0.2205Y0.3898
X0.2205Y0.252
X0.2244Y-0.1772
X0.2303Y0.4646
X0.248Y0.3228
X0.2638Y0.6969
X0.2638Y0.6181
X0.2638Y0.5512
X0.2638Y0.2323
X0.2953Y0.2165
X0.3091Y0.4449
X0.311Y0.374
X0.311Y0.3031
X0.315Y0.126
X0.3386Y0.6969
X0.3386Y0.622
X0.3386Y0.5512
X0.3504Y0.1339
X0.3543Y0.3151
X0.3701Y0.9094
X0.3819Y0.1772
X0.3886Y0.3358
X0.3898Y0.3976
X0.3937Y0.4567
X0.3937Y0.4291
X0.3976Y0.2244
X0.4016Y0.6969
X0.403Y0.7903
X0.4213Y0.6181
X0.4213Y0.5512
X0.4331Y0.7913
X0.4409Y0.185
X0.4488Y0.0433
X0.4583Y0.0671
X0.4606Y0.0906
X0.4734Y0.496
X0.4882Y0.2835
X0.4882Y0.252
X0.4921Y0.8858
X0.4921Y0.3937
X0.5Y0.7638
X0.503Y0.4638
X0.5098Y0.0394
X0.5118Y0.8622
X0.5118Y0.6772
X0.5157Y0.6102
X0.5157Y-0.2835
X0.5177Y0.0
X0.5197Y0.1024
X0.5236Y0.7953
X0.5236Y-0.1693
T2
X0.1455Y-0.2992
X0.2323Y0.1602
X0.2323Y0.0602
X0.2455Y-0.2992
X0.3455Y-0.2992
X0.4455Y-0.2992
T3
X0.2953Y0.9961
X0.2953Y-0.0866
M30
